<?xml version="1.0" encoding="UTF-8" standalone="no"?>
<svg
   xmlns:dc="http://purl.org/dc/elements/1.1/"
   xmlns:cc="http://creativecommons.org/ns#"
   xmlns:rdf="http://www.w3.org/1999/02/22-rdf-syntax-ns#"
   xmlns:svg="http://www.w3.org/2000/svg"
   xmlns="http://www.w3.org/2000/svg"
   width="2560"
   height="700"
   viewBox="0 0 677.33332 185.20834"
   version="1.1"
   id="svg1231">
  <defs
     id="defs1225" />
  <metadata
     id="metadata1228">
    <rdf:RDF>
      <cc:Work
         rdf:about="">
        <dc:format>image/svg+xml</dc:format>
        <dc:type
           rdf:resource="http://purl.org/dc/dcmitype/StillImage" />
        <dc:title></dc:title>
      </cc:Work>
    </rdf:RDF>
  </metadata>
  <g
     id="layer1">
    <g
       id="g3454">
      <g
         id="g3431"
         transform="matrix(0.26458334,0,0,0.26458334,326.89662,-278.55003)">
        <rect
           style="opacity:1;fill:#dc6a69;fill-opacity:1;stroke:none;stroke-width:3.18327;stroke-opacity:1"
           id="rect3427"
           width="2560"
           height="700"
           x="-1235.5148"
           y="1052.7875" />
        <g
           id="g4619"
           transform="translate(0,500)" />
        <path
           id="path1577"
           style="fill:#ffffff;fill-opacity:1;stroke:none;stroke-width:5.58145"
           d="m -657.80918,1196.4259 -5.97333,5.9287 -5.92863,-5.9734 -1.19356,1.1846 5.92864,5.9734 -5.97333,5.9286 1.186,1.195 5.97333,-5.9287 5.92863,5.9733 1.19356,-1.1846 -5.92864,-5.9733 5.97333,-5.9286 z" />
        <path
           id="path1579"
           style="fill:#4747ff;fill-opacity:1;stroke:none;stroke-width:11.215"
           d="m -1104.5464,1642.0112 -12.0024,11.9127 -11.9125,-12.0025 -2.3983,2.3802 11.9125,12.0025 -12.0023,11.9125 2.3831,2.4012 12.0023,-11.9127 11.9127,12.0023 2.3981,-2.3802 -11.9125,-12.0024 12.0023,-11.9125 z" />
        <path
           id="path1585"
           style="fill:#ffffff;fill-opacity:1;stroke:none;stroke-width:11.215"
           d="m -564.5464,1734.0112 -12.0024,11.9127 -11.9125,-12.0025 -2.3983,2.3802 11.9125,12.0025 -12.0023,11.9125 2.3831,2.4012 12.0023,-11.9127 11.9127,12.0023 2.3981,-2.3802 -11.9125,-12.0024 12.0023,-11.9125 z" />
        <path
           id="path1587"
           style="fill:#000000;fill-opacity:1;stroke:none;stroke-width:11.215"
           d="m 995.4536,1682.0112 -12.0024,11.9127 -11.9125,-12.0025 -2.3983,2.3802 11.9125,12.0025 -12.0023,11.9125 2.3831,2.4012 12.0023,-11.9127 11.9127,12.0023 2.3981,-2.3802 -11.9125,-12.0024 12.0023,-11.9125 z" />
        <path
           id="path1591"
           style="fill:#4747ff;fill-opacity:1;stroke:none;stroke-width:11.215"
           d="m 1135.4536,1372.0112 -12.0024,11.9127 -11.9125,-12.0025 -2.3983,2.3802 11.9125,12.0025 -12.0023,11.9125 2.3831,2.4012 12.0023,-11.9127 11.9127,12.0023 2.3981,-2.3802 -11.9125,-12.0024 12.0023,-11.9125 z" />
        <path
           id="path1593"
           style="fill:#fece00;fill-opacity:1;stroke:none;stroke-width:5.58145"
           d="m 742.19082,1516.4259 -5.97333,5.9287 -5.92863,-5.9734 -1.19356,1.1846 5.92864,5.9734 -5.97333,5.9286 1.186,1.195 5.97333,-5.9287 5.92863,5.9733 1.19356,-1.1846 -5.92864,-5.9733 5.97333,-5.9286 z" />
        <path
           id="path1595"
           style="fill:#ffffff;fill-opacity:1;stroke:none;stroke-width:11.215"
           d="m 435.4536,1622.0112 -12.0024,11.9127 -11.9125,-12.0025 -2.3983,2.3802 11.9125,12.0025 -12.0023,11.9125 2.3831,2.4012 12.0023,-11.9127 11.9127,12.0023 2.3981,-2.3802 -11.9125,-12.0024 12.0023,-11.9125 z" />
        <path
           id="path1647"
           style="fill:#fece00;fill-opacity:1;stroke:none;stroke-width:3.21508"
           d="m 1196.3772,1504.0013 -3.4409,3.4152 -3.415,-3.4409 -0.6876,0.6825 3.415,3.4407 -3.4407,3.4153 0.6832,0.6881 3.4408,-3.415 3.4152,3.4407 0.6874,-0.6823 -3.415,-3.4408 3.4407,-3.415 z" />
        <g
           id="g2582"
           transform="matrix(0.52385399,0,0,0.52385399,-766.17486,1272.0898)">
          <rect
             style="fill:#69d4dc;fill-opacity:1;stroke:none;stroke-width:6.80586"
             id="rect2518"
             width="179"
             height="284.94138"
             x="-50.514774"
             y="589.15405"
             rx="20.034468"
             ry="20" />
          <rect
             style="fill:#ffffff;fill-opacity:1;stroke:none;stroke-width:9.32386"
             id="rect2520"
             width="180"
             height="222.17854"
             x="-51.014774"
             y="619.21362" />
          <rect
             style="fill:#4747ff;fill-opacity:1;stroke:none;stroke-width:6.8"
             id="rect2562"
             width="49.806862"
             height="65.201714"
             x="-34.23587"
             y="646.25964" />
          <rect
             style="fill:#000000;fill-opacity:1;stroke:none;stroke-width:5.90127"
             id="rect2564"
             width="70"
             height="5.3703952"
             x="41.570992"
             y="646.25964" />
          <rect
             style="fill:#000000;fill-opacity:1;stroke:none;stroke-width:5.90127"
             id="rect2566"
             width="70"
             height="5.3703952"
             x="41.570992"
             y="680.25964" />
          <rect
             style="fill:#000000;fill-opacity:1;stroke:none;stroke-width:5.90127"
             id="rect2568"
             width="70"
             height="5.3703952"
             x="41.570992"
             y="714.25964" />
          <rect
             style="fill:#000000;fill-opacity:1;stroke:none;stroke-width:8.54814"
             id="rect2570"
             width="146.8755"
             height="5.3703952"
             x="-34.783504"
             y="748.25964" />
          <rect
             style="fill:#000000;fill-opacity:1;stroke:none;stroke-width:8.54814"
             id="rect2572"
             width="146.8755"
             height="5.3703952"
             x="-34.783504"
             y="782.25964" />
        </g>
        <g
           id="g2654"
           transform="matrix(0.30204258,0,0,0.30204258,640.84512,913.11211)">
          <path
             id="path2584"
             style="fill:#ffffff;fill-opacity:1;stroke:none;stroke-width:3.81397"
             d="m 526.15256,1238.3583 a 47.688447,45.417571 0 0 0 -47.63394,45.4185 47.688447,45.417571 0 0 0 0.95067,9.0197 31.792301,31.792301 0 0 0 -31.72966,31.7931 31.792301,31.792301 0 0 0 31.79168,31.7916 31.792301,31.792301 0 0 0 1.25209,-0.024 v 0.024 h 148.17082 v -0.021 a 32.92774,31.792301 0 0 0 1.19152,0.021 32.92774,31.792301 0 0 0 32.92832,-31.7916 32.92774,31.792301 0 0 0 -32.92832,-31.7931 32.92774,31.792301 0 0 0 -11.53806,2.017 37.469497,34.063177 0 0 0 -36.58034,-26.6875 37.469497,34.063177 0 0 0 -10.54794,1.3775 47.688447,45.417571 0 0 0 -45.27196,-31.1452 47.688447,45.417571 0 0 0 -0.0549,0 z" />
          <g
             id="g2624"
             transform="translate(4,12)">
            <rect
               style="fill:#000000;fill-opacity:1;stroke:none;stroke-width:6.8"
               id="rect2606"
               width="5.3695564"
               height="45.641232"
               x="531.73248"
               y="1172.7556" />
            <circle
               style="fill:#fece00;fill-opacity:1;stroke:none;stroke-width:1.28649"
               id="path2604"
               cx="533.75403"
               cy="1168.2329"
               r="18.793447" />
          </g>
          <g
             id="g2614"
             transform="rotate(57.163902,534.79124,1309.5243)">
            <rect
               style="fill:#000000;fill-opacity:1;stroke:none;stroke-width:6.8"
               id="rect2608"
               width="5.3695564"
               height="45.641232"
               x="531.73248"
               y="1172.7556" />
            <circle
               style="fill:#fece00;fill-opacity:1;stroke:none;stroke-width:1.28649"
               id="circle2610"
               cx="533.75403"
               cy="1168.2329"
               r="18.793447" />
          </g>
          <g
             id="g2620"
             transform="rotate(-69.068347,532.06189,1289.3902)">
            <rect
               style="fill:#000000;fill-opacity:1;stroke:none;stroke-width:6.8"
               id="rect2616"
               width="5.3695564"
               height="45.641232"
               x="531.73248"
               y="1172.7556" />
            <circle
               style="fill:#fece00;fill-opacity:1;stroke:none;stroke-width:1.28649"
               id="circle2618"
               cx="533.75403"
               cy="1168.2329"
               r="18.793447" />
          </g>
          <g
             id="g2630"
             transform="rotate(138.74431,537.22887,1305.1046)">
            <rect
               style="fill:#000000;fill-opacity:1;stroke:none;stroke-width:6.8"
               id="rect2626"
               width="5.3695564"
               height="45.641232"
               x="531.73248"
               y="1172.7556" />
            <circle
               style="fill:#fece00;fill-opacity:1;stroke:none;stroke-width:1.28649"
               id="circle2628"
               cx="533.75403"
               cy="1168.2329"
               r="18.793447" />
          </g>
          <g
             id="g2636"
             transform="rotate(-136.94961,546.78631,1299.8632)">
            <rect
               style="fill:#000000;fill-opacity:1;stroke:none;stroke-width:6.8"
               id="rect2632"
               width="5.3695564"
               height="45.641232"
               x="531.73248"
               y="1172.7556" />
            <circle
               style="fill:#fece00;fill-opacity:1;stroke:none;stroke-width:1.28649"
               id="circle2634"
               cx="533.75403"
               cy="1168.2329"
               r="18.793447" />
          </g>
        </g>
        <g
           id="g2900"
           transform="matrix(0.62245051,0,0,0.62245051,395.92866,892.10103)">
          <rect
             style="fill:#ffffff;fill-opacity:1;stroke-width:4.75928"
             id="rect2516"
             width="194.53741"
             height="139.36899"
             x="271.43768"
             y="1217.0122" />
          <rect
             style="fill:#000000;fill-opacity:1;stroke:none;stroke-width:2.61012"
             id="rect2656"
             width="194.48741"
             height="3.5752978"
             x="271.35672"
             y="1236.0763" />
          <circle
             style="fill:#ec5ea0;fill-opacity:1;stroke:none;stroke-width:3.47315"
             id="path2658"
             cx="281.14764"
             cy="1226.6835"
             r="3.8469121" />
          <circle
             style="fill:#fece00;fill-opacity:1;stroke:none;stroke-width:3.47315"
             id="circle2660"
             cx="291.36279"
             cy="1226.6835"
             r="3.8469121" />
          <circle
             style="fill:#69d4dc;fill-opacity:1;stroke:none;stroke-width:3.47315"
             id="circle2662"
             cx="301.57791"
             cy="1226.6835"
             r="3.8469121" />
          <rect
             style="fill:#4747ff;fill-opacity:1;stroke:none;stroke-width:5.20829"
             id="rect2668"
             width="54.811405"
             height="34.757397"
             x="287.32043"
             y="1260.0624" />
          <rect
             style="fill:#000000;fill-opacity:1;stroke:none;stroke-width:4.82557"
             id="rect2670"
             width="87.804298"
             height="2.8628228"
             x="359.97354"
             y="1260.0624" />
          <rect
             style="fill:#000000;fill-opacity:1;stroke:none;stroke-width:4.82557"
             id="rect2672"
             width="87.804298"
             height="2.8628228"
             x="359.97354"
             y="1278.1869" />
          <rect
             style="fill:#000000;fill-opacity:1;stroke:none;stroke-width:4.82557"
             id="rect2674"
             width="87.804298"
             height="2.8628228"
             x="359.97354"
             y="1296.3114" />
          <rect
             style="fill:#000000;fill-opacity:1;stroke:none;stroke-width:6.54724"
             id="rect2676"
             width="161.63339"
             height="2.8628228"
             x="286.71777"
             y="1314.436" />
          <rect
             style="fill:#000000;fill-opacity:1;stroke:none;stroke-width:6.54724"
             id="rect2678"
             width="161.63339"
             height="2.8628228"
             x="286.71777"
             y="1332.5605" />
        </g>
        <g
           id="g2750"
           transform="matrix(0.37009225,-0.17698426,0.17698426,0.37009225,-891.44883,1808.6847)">
          <rect
             style="fill:#ffffff;fill-opacity:1;stroke:none;stroke-width:13.3136"
             id="rect2717"
             width="265.84033"
             height="151.04564"
             x="-168.80165"
             y="-357.10077"
             rx="9.7893934"
             ry="9.7893934" />
          <path
             id="rect2719"
             style="fill:#000000;fill-opacity:1;stroke:none;stroke-width:5.03028"
             d="m 1633.3398,-318.25586 c -0.7058,0.0186 -1.3648,0.49631 -1.6406,1.26953 l -0.084,0.23633 c -0.3676,1.03097 0.088,2.18783 1.0215,2.59375 l 67.6177,43.77667 c 0.259,0.11258 0.7007,0.49154 0.9606,0.47239 0.2596,0.0192 0.5715,-0.30768 0.8305,-0.42026 l 65.8903,-43.8288 c 0.9338,-0.40592 1.3892,-1.56278 1.0215,-2.59375 l -0.084,-0.23633 c -0.3676,-1.03097 -1.4158,-1.53482 -2.3496,-1.1289 l -65.3106,42.37104 -67.164,-42.37104 c -0.2334,-0.10148 -0.4737,-0.14683 -0.709,-0.14063 z"
             transform="matrix(1.9578787,0,0,1.9578787,-3364.9275,265.20727)" />
          <rect
             style="fill:#000000;fill-opacity:1;stroke:none;stroke-width:9.85991"
             id="rect2727"
             width="149.94351"
             height="8.2301216"
             x="-326.556"
             y="-332.24377"
             rx="3.9157574"
             ry="3.9157574"
             transform="matrix(0.99999989,-4.7308866e-4,0.0679419,0.99768928,0,0)" />
          <rect
             style="fill:#000000;fill-opacity:1;stroke:none;stroke-width:8.53045"
             id="rect2729"
             width="112.34811"
             height="8.2217865"
             x="-296.53998"
             y="-292.73151"
             rx="3.9157574"
             ry="3.9157574"
             transform="matrix(0.9999998,-6.3139977e-4,0.05095841,0.99870078,0,0)" />
          <rect
             style="fill:#000000;fill-opacity:1;stroke:none;stroke-width:6.72396"
             id="rect2731"
             width="69.858315"
             height="8.2152357"
             x="-260.845"
             y="-253.39871"
             rx="3.9157574"
             ry="3.9157574"
             transform="matrix(0.99999948,-0.00101544,0.03171131,0.99949707,0,0)" />
        </g>
        <g
           id="g2762"
           transform="matrix(0.27401349,-0.1310378,0.1310378,0.27401349,1305.4824,1477.3693)">
          <rect
             style="fill:#ffffff;fill-opacity:1;stroke:none;stroke-width:13.3136"
             id="rect2752"
             width="265.84033"
             height="151.04564"
             x="-168.80165"
             y="-357.10077"
             rx="9.7893934"
             ry="9.7893934" />
          <path
             id="path2754"
             style="fill:#000000;fill-opacity:1;stroke:none;stroke-width:5.03028"
             d="m 1633.3398,-318.25586 c -0.7058,0.0186 -1.3648,0.49631 -1.6406,1.26953 l -0.084,0.23633 c -0.3676,1.03097 0.088,2.18783 1.0215,2.59375 l 67.6177,43.77667 c 0.259,0.11258 0.7007,0.49154 0.9606,0.47239 0.2596,0.0192 0.5715,-0.30768 0.8305,-0.42026 l 65.8903,-43.8288 c 0.9338,-0.40592 1.3892,-1.56278 1.0215,-2.59375 l -0.084,-0.23633 c -0.3676,-1.03097 -1.4158,-1.53482 -2.3496,-1.1289 l -65.3106,42.37104 -67.164,-42.37104 c -0.2334,-0.10148 -0.4737,-0.14683 -0.709,-0.14063 z"
             transform="matrix(1.9578787,0,0,1.9578787,-3364.9275,265.20727)" />
          <rect
             style="fill:#000000;fill-opacity:1;stroke:none;stroke-width:9.85991"
             id="rect2756"
             width="149.94351"
             height="8.2301216"
             x="-326.556"
             y="-332.24377"
             rx="3.9157574"
             ry="3.9157574"
             transform="matrix(0.99999989,-4.7308866e-4,0.0679419,0.99768928,0,0)" />
          <rect
             style="fill:#000000;fill-opacity:1;stroke:none;stroke-width:8.53045"
             id="rect2758"
             width="112.34811"
             height="8.2217865"
             x="-296.53998"
             y="-292.73151"
             rx="3.9157574"
             ry="3.9157574"
             transform="matrix(0.9999998,-6.3139977e-4,0.05095841,0.99870078,0,0)" />
          <rect
             style="fill:#000000;fill-opacity:1;stroke:none;stroke-width:6.72396"
             id="rect2760"
             width="69.858315"
             height="8.2152357"
             x="-260.845"
             y="-253.39871"
             rx="3.9157574"
             ry="3.9157574"
             transform="matrix(0.99999948,-0.00101544,0.03171131,0.99949707,0,0)" />
        </g>
        <text
           xml:space="preserve"
           style="font-style:normal;font-weight:normal;font-size:40px;line-height:1.25;font-family:sans-serif;fill:#000000;fill-opacity:1;stroke:none;stroke-width:1"
           x="291.36761"
           y="714.10229"
           id="text2793"><tspan
             id="tspan2791"
             x="291.36761"
             y="714.10229"
             style="stroke-width:1" /></text>
        <g
           id="g2934"
           transform="matrix(0.27957738,0,0,0.27957738,-1333.134,859.20408)">
          <path
             id="path2902"
             style="fill:#ffffff;fill-opacity:1;stroke:none;stroke-width:3.81397"
             d="m 526.15256,1238.3583 a 47.688447,45.417571 0 0 0 -47.63394,45.4185 47.688447,45.417571 0 0 0 0.95067,9.0197 31.792301,31.792301 0 0 0 -31.72966,31.7931 31.792301,31.792301 0 0 0 31.79168,31.7916 31.792301,31.792301 0 0 0 1.25209,-0.024 v 0.024 h 148.17082 v -0.021 a 32.92774,31.792301 0 0 0 1.19152,0.021 32.92774,31.792301 0 0 0 32.92832,-31.7916 32.92774,31.792301 0 0 0 -32.92832,-31.7931 32.92774,31.792301 0 0 0 -11.53806,2.017 37.469497,34.063177 0 0 0 -36.58034,-26.6875 37.469497,34.063177 0 0 0 -10.54794,1.3775 47.688447,45.417571 0 0 0 -45.27196,-31.1452 47.688447,45.417571 0 0 0 -0.0549,0 z" />
          <g
             id="g2908"
             transform="translate(4,12)">
            <rect
               style="fill:#000000;fill-opacity:1;stroke:none;stroke-width:6.8"
               id="rect2904"
               width="5.3695564"
               height="45.641232"
               x="531.73248"
               y="1172.7556" />
            <circle
               style="fill:#fece00;fill-opacity:1;stroke:none;stroke-width:1.28649"
               id="circle2906"
               cx="533.75403"
               cy="1168.2329"
               r="18.793447" />
          </g>
          <g
             id="g2914"
             transform="rotate(57.163902,534.79124,1309.5243)">
            <rect
               style="fill:#000000;fill-opacity:1;stroke:none;stroke-width:6.8"
               id="rect2910"
               width="5.3695564"
               height="45.641232"
               x="531.73248"
               y="1172.7556" />
            <circle
               style="fill:#fece00;fill-opacity:1;stroke:none;stroke-width:1.28649"
               id="circle2912"
               cx="533.75403"
               cy="1168.2329"
               r="18.793447" />
          </g>
          <g
             id="g2920"
             transform="rotate(-69.068347,532.06189,1289.3902)">
            <rect
               style="fill:#000000;fill-opacity:1;stroke:none;stroke-width:6.8"
               id="rect2916"
               width="5.3695564"
               height="45.641232"
               x="531.73248"
               y="1172.7556" />
            <circle
               style="fill:#fece00;fill-opacity:1;stroke:none;stroke-width:1.28649"
               id="circle2918"
               cx="533.75403"
               cy="1168.2329"
               r="18.793447" />
          </g>
          <g
             id="g2926"
             transform="rotate(138.74431,537.22887,1305.1046)">
            <rect
               style="fill:#000000;fill-opacity:1;stroke:none;stroke-width:6.8"
               id="rect2922"
               width="5.3695564"
               height="45.641232"
               x="531.73248"
               y="1172.7556" />
            <circle
               style="fill:#fece00;fill-opacity:1;stroke:none;stroke-width:1.28649"
               id="circle2924"
               cx="533.75403"
               cy="1168.2329"
               r="18.793447" />
          </g>
          <g
             id="g2932"
             transform="rotate(-136.94961,546.78631,1299.8632)">
            <rect
               style="fill:#000000;fill-opacity:1;stroke:none;stroke-width:6.8"
               id="rect2928"
               width="5.3695564"
               height="45.641232"
               x="531.73248"
               y="1172.7556" />
            <circle
               style="fill:#fece00;fill-opacity:1;stroke:none;stroke-width:1.28649"
               id="circle2930"
               cx="533.75403"
               cy="1168.2329"
               r="18.793447" />
          </g>
        </g>
        <g
           id="g1179"
           transform="matrix(0.67997927,0,0,0.67997927,328.69356,540.83126)">
          <rect
             style="fill:#fece00;fill-opacity:1;stroke:none;stroke-width:5.22297"
             id="rect2936"
             width="137.36871"
             height="218.67056"
             x="1027.4845"
             y="1471.3176"
             rx="15.374911"
             ry="15.348459" />
          <rect
             style="fill:#ffffff;fill-opacity:1;stroke:none;stroke-width:7.15535"
             id="rect2938"
             width="138.13614"
             height="170.50493"
             x="1027.1008"
             y="1494.3861" />
          <rect
             style="fill:#4747ff;fill-opacity:1;stroke:none;stroke-width:5.21848"
             id="rect2940"
             width="38.222931"
             height="50.037292"
             x="1039.9773"
             y="1515.1418" />
          <rect
             style="fill:#000000;fill-opacity:1;stroke:none;stroke-width:4.52877"
             id="rect2942"
             width="53.719608"
             height="4.1213646"
             x="1098.1533"
             y="1515.1418" />
          <rect
             style="fill:#000000;fill-opacity:1;stroke:none;stroke-width:4.52877"
             id="rect2944"
             width="53.719608"
             height="4.1213646"
             x="1098.1533"
             y="1541.2341" />
          <rect
             style="fill:#000000;fill-opacity:1;stroke:none;stroke-width:4.52877"
             id="rect2946"
             width="53.719608"
             height="4.1213646"
             x="1098.1533"
             y="1567.3265" />
          <rect
             style="fill:#000000;fill-opacity:1;stroke:none;stroke-width:6.56004"
             id="rect2948"
             width="112.71564"
             height="4.1213646"
             x="1039.557"
             y="1593.4188" />
          <rect
             style="fill:#000000;fill-opacity:1;stroke:none;stroke-width:6.56004"
             id="rect2950"
             width="112.71564"
             height="4.1213646"
             x="1039.557"
             y="1619.5112" />
        </g>
        <path
           id="path2962"
           style="fill:#ffffff;fill-opacity:1;stroke:none;stroke-width:11.215"
           d="m -1180.5464,1462.0112 -12.0024,11.9127 -11.9125,-12.0025 -2.3983,2.3802 11.9125,12.0025 -12.0023,11.9125 2.3831,2.4012 12.0023,-11.9127 11.9127,12.0023 2.3981,-2.3802 -11.9125,-12.0024 12.0023,-11.9125 z" />
        <path
           id="path2966"
           style="fill:#fece00;fill-opacity:1;stroke:none;stroke-width:5.58145"
           d="m 482.19082,1436.4259 -5.97333,5.9287 -5.92863,-5.9734 -1.19356,1.1846 5.92864,5.9734 -5.97333,5.9286 1.186,1.195 5.97333,-5.9287 5.92863,5.9733 1.19356,-1.1846 -5.92864,-5.9733 5.97333,-5.9286 z" />
        <g
           id="g3000"
           transform="matrix(0.33149579,0,0,0.33149579,228.34705,1312.8323)">
          <path
             id="path2968"
             style="fill:#ffffff;fill-opacity:1;stroke:none;stroke-width:3.81397"
             d="m 526.15256,1238.3583 a 47.688447,45.417571 0 0 0 -47.63394,45.4185 47.688447,45.417571 0 0 0 0.95067,9.0197 31.792301,31.792301 0 0 0 -31.72966,31.7931 31.792301,31.792301 0 0 0 31.79168,31.7916 31.792301,31.792301 0 0 0 1.25209,-0.024 v 0.024 h 148.17082 v -0.021 a 32.92774,31.792301 0 0 0 1.19152,0.021 32.92774,31.792301 0 0 0 32.92832,-31.7916 32.92774,31.792301 0 0 0 -32.92832,-31.7931 32.92774,31.792301 0 0 0 -11.53806,2.017 37.469497,34.063177 0 0 0 -36.58034,-26.6875 37.469497,34.063177 0 0 0 -10.54794,1.3775 47.688447,45.417571 0 0 0 -45.27196,-31.1452 47.688447,45.417571 0 0 0 -0.0549,0 z" />
          <g
             id="g2974"
             transform="translate(4,12)">
            <rect
               style="fill:#000000;fill-opacity:1;stroke:none;stroke-width:6.8"
               id="rect2970"
               width="5.3695564"
               height="45.641232"
               x="531.73248"
               y="1172.7556" />
            <circle
               style="fill:#fece00;fill-opacity:1;stroke:none;stroke-width:1.28649"
               id="circle2972"
               cx="533.75403"
               cy="1168.2329"
               r="18.793447" />
          </g>
          <g
             id="g2980"
             transform="rotate(57.163902,534.79124,1309.5243)">
            <rect
               style="fill:#000000;fill-opacity:1;stroke:none;stroke-width:6.8"
               id="rect2976"
               width="5.3695564"
               height="45.641232"
               x="531.73248"
               y="1172.7556" />
            <circle
               style="fill:#fece00;fill-opacity:1;stroke:none;stroke-width:1.28649"
               id="circle2978"
               cx="533.75403"
               cy="1168.2329"
               r="18.793447" />
          </g>
          <g
             id="g2986"
             transform="rotate(-69.068347,532.06189,1289.3902)">
            <rect
               style="fill:#000000;fill-opacity:1;stroke:none;stroke-width:6.8"
               id="rect2982"
               width="5.3695564"
               height="45.641232"
               x="531.73248"
               y="1172.7556" />
            <circle
               style="fill:#fece00;fill-opacity:1;stroke:none;stroke-width:1.28649"
               id="circle2984"
               cx="533.75403"
               cy="1168.2329"
               r="18.793447" />
          </g>
          <g
             id="g2992"
             transform="rotate(138.74431,537.22887,1305.1046)">
            <rect
               style="fill:#000000;fill-opacity:1;stroke:none;stroke-width:6.8"
               id="rect2988"
               width="5.3695564"
               height="45.641232"
               x="531.73248"
               y="1172.7556" />
            <circle
               style="fill:#fece00;fill-opacity:1;stroke:none;stroke-width:1.28649"
               id="circle2990"
               cx="533.75403"
               cy="1168.2329"
               r="18.793447" />
          </g>
          <g
             id="g2998"
             transform="rotate(-136.94961,546.78631,1299.8632)">
            <rect
               style="fill:#000000;fill-opacity:1;stroke:none;stroke-width:6.8"
               id="rect2994"
               width="5.3695564"
               height="45.641232"
               x="531.73248"
               y="1172.7556" />
            <circle
               style="fill:#fece00;fill-opacity:1;stroke:none;stroke-width:1.28649"
               id="circle2996"
               cx="533.75403"
               cy="1168.2329"
               r="18.793447" />
          </g>
        </g>
        <path
           id="path1587-6"
           style="fill:#000000;fill-opacity:1;stroke:none;stroke-width:6.16035"
           d="m -244.09281,1648.2277 -6.59287,6.5436 -6.54348,-6.5929 -1.31738,1.3074 6.54349,6.5929 -6.59282,6.5435 1.30903,1.319 6.59281,-6.5436 6.5436,6.5928 1.31726,-1.3074 -6.54348,-6.5929 6.59281,-6.5435 z" />
      </g>
    </g>
  </g>
</svg>
