<?xml version="1.0" encoding="UTF-8" standalone="no"?>
<svg
   xmlns:dc="http://purl.org/dc/elements/1.1/"
   xmlns:cc="http://creativecommons.org/ns#"
   xmlns:rdf="http://www.w3.org/1999/02/22-rdf-syntax-ns#"
   xmlns:svg="http://www.w3.org/2000/svg"
   xmlns="http://www.w3.org/2000/svg"
   xmlns:sodipodi="http://sodipodi.sourceforge.net/DTD/sodipodi-0.dtd"
   xmlns:inkscape="http://www.inkscape.org/namespaces/inkscape"
   width="2560"
   height="700"
   viewBox="0 0 677.33332 185.20834"
   version="1.1"
   id="svg1231"
   inkscape:export-filename="/Users/mehmet/Downloads/img-4.png"
   inkscape:export-xdpi="95.987198"
   inkscape:export-ydpi="95.987198"
   sodipodi:docname="develop.svg"
   inkscape:version="1.0.2 (e86c8708, 2021-01-15)">
  <defs
     id="defs1225" />
  <sodipodi:namedview
     id="base"
     pagecolor="#ffffff"
     bordercolor="#666666"
     borderopacity="1.0"
     inkscape:pageopacity="0.0"
     inkscape:pageshadow="2"
     inkscape:zoom="0.92611534"
     inkscape:cx="676.1546"
     inkscape:cy="582.2574"
     inkscape:document-units="px"
     inkscape:current-layer="g3431"
     inkscape:document-rotation="0"
     showgrid="false"
     units="px"
     inkscape:window-width="1680"
     inkscape:window-height="923"
     inkscape:window-x="0"
     inkscape:window-y="23"
     inkscape:window-maximized="0"
     showguides="false" />
  <metadata
     id="metadata1228">
    <rdf:RDF>
      <cc:Work
         rdf:about="">
        <dc:format>image/svg+xml</dc:format>
        <dc:type
           rdf:resource="http://purl.org/dc/dcmitype/StillImage" />
        <dc:title></dc:title>
      </cc:Work>
    </rdf:RDF>
  </metadata>
  <g
     inkscape:label="Layer 1"
     inkscape:groupmode="layer"
     id="layer1">
    <g
       id="g3454">
      <g
         id="g3431"
         transform="matrix(0.26458334,0,0,0.26458334,326.89662,-278.55003)">
        <rect
           style="opacity:1;fill:#dc6a69;fill-opacity:1;stroke:none;stroke-width:3.18327;stroke-opacity:1"
           id="rect3427"
           width="2560"
           height="700"
           x="-1235.5148"
           y="1052.7875" />
        <g
           id="g4619"
           transform="translate(0,500)" />
        <path
           id="path1577"
           style="fill:#ffffff;fill-opacity:1;stroke:none;stroke-width:5.58145"
           d="m -657.80918,1196.4259 -5.97333,5.9287 -5.92863,-5.9734 -1.19356,1.1846 5.92864,5.9734 -5.97333,5.9286 1.186,1.195 5.97333,-5.9287 5.92863,5.9733 1.19356,-1.1846 -5.92864,-5.9733 5.97333,-5.9286 z" />
        <path
           id="path1579"
           style="fill:#4747ff;fill-opacity:1;stroke:none;stroke-width:11.215"
           d="m -1104.5464,1642.0112 -12.0024,11.9127 -11.9125,-12.0025 -2.3983,2.3802 11.9125,12.0025 -12.0023,11.9125 2.3831,2.4012 12.0023,-11.9127 11.9127,12.0023 2.3981,-2.3802 -11.9125,-12.0024 12.0023,-11.9125 z" />
        <path
           id="path1581"
           style="fill:#fece00;fill-opacity:1;stroke:none;stroke-width:5.58145"
           d="m -537.80918,1356.4259 -5.97333,5.9287 -5.92863,-5.9734 -1.19356,1.1846 5.92864,5.9734 -5.97333,5.9286 1.186,1.195 5.97333,-5.9287 5.92863,5.9733 1.19356,-1.1846 -5.92864,-5.9733 5.97333,-5.9286 z" />
        <path
           id="path1585"
           style="fill:#ffffff;fill-opacity:1;stroke:none;stroke-width:11.215"
           d="m -564.5464,1734.0112 -12.0024,11.9127 -11.9125,-12.0025 -2.3983,2.3802 11.9125,12.0025 -12.0023,11.9125 2.3831,2.4012 12.0023,-11.9127 11.9127,12.0023 2.3981,-2.3802 -11.9125,-12.0024 12.0023,-11.9125 z" />
        <path
           id="path1587"
           style="fill:#000000;fill-opacity:1;stroke:none;stroke-width:11.215"
           d="m 995.4536,1682.0112 -12.0024,11.9127 -11.9125,-12.0025 -2.3983,2.3802 11.9125,12.0025 -12.0023,11.9125 2.3831,2.4012 12.0023,-11.9127 11.9127,12.0023 2.3981,-2.3802 -11.9125,-12.0024 12.0023,-11.9125 z" />
        <path
           id="path1589"
           style="fill:#ffffff;fill-opacity:1;stroke:none;stroke-width:5.58145"
           d="m -37.809179,1416.4259 -5.97333,5.9287 -5.92863,-5.9734 -1.19356,1.1846 5.92864,5.9734 -5.97333,5.9286 1.186,1.195 5.97333,-5.9287 5.92863,5.9733 1.19356,-1.1846 -5.92864,-5.9733 5.97333,-5.9286 z" />
        <path
           id="path1591"
           style="fill:#4747ff;fill-opacity:1;stroke:none;stroke-width:11.215"
           d="m 1135.4536,1372.0112 -12.0024,11.9127 -11.9125,-12.0025 -2.3983,2.3802 11.9125,12.0025 -12.0023,11.9125 2.3831,2.4012 12.0023,-11.9127 11.9127,12.0023 2.3981,-2.3802 -11.9125,-12.0024 12.0023,-11.9125 z" />
        <path
           id="path1593"
           style="fill:#fece00;fill-opacity:1;stroke:none;stroke-width:5.58145"
           d="m 742.19082,1516.4259 -5.97333,5.9287 -5.92863,-5.9734 -1.19356,1.1846 5.92864,5.9734 -5.97333,5.9286 1.186,1.195 5.97333,-5.9287 5.92863,5.9733 1.19356,-1.1846 -5.92864,-5.9733 5.97333,-5.9286 z" />
        <path
           id="path1595"
           style="fill:#ffffff;fill-opacity:1;stroke:none;stroke-width:11.215"
           d="m 435.4536,1622.0112 -12.0024,11.9127 -11.9125,-12.0025 -2.3983,2.3802 11.9125,12.0025 -12.0023,11.9125 2.3831,2.4012 12.0023,-11.9127 11.9127,12.0023 2.3981,-2.3802 -11.9125,-12.0024 12.0023,-11.9125 z" />
        <path
           id="path1647"
           style="fill:#fece00;fill-opacity:1;stroke:none;stroke-width:3.21508"
           d="m 1196.3772,1504.0013 -3.4409,3.4152 -3.415,-3.4409 -0.6876,0.6825 3.415,3.4407 -3.4407,3.4153 0.6832,0.6881 3.4408,-3.415 3.4152,3.4407 0.6874,-0.6823 -3.415,-3.4408 3.4407,-3.415 z" />
        <path
           id="path2356"
           style="fill:#000000;stroke-width:0.821091"
           d="m -229.89477,1243.3596 c -5.38596,-0.012 -10.93324,0.8555 -16.52767,2.6333 -15.91774,5.0582 -29.88458,21.4963 -33.74654,39.6673 -3.52654,10.9402 -1.82754,42.295 -2.60921,83.2927 l -0.22772,81.3153 -8.10026,3.8986 c -16.27138,7.8315 -33.76611,21.0908 -44.41592,33.6631 -18.49689,21.836 -32.65189,50.3172 -38.64101,77.7488 l -1.70313,7.8003 3.36776,3.0037 3.36615,3.0054 -13.46622,25.7328 c -7.40657,14.1535 -17.02479,32.5057 -21.37403,40.782 -4.34916,8.2763 -8.32391,16.7024 -8.83315,18.7247 -2.23764,8.8864 1.01158,20.1293 7.7699,26.8876 6.45181,6.4518 4.01845,5.7288 58.44022,17.3728 11.29001,2.4156 24.40695,5.2443 29.14875,6.2865 l 8.62146,1.8955 -121.52154,0.4106 -121.52153,0.4105 v 14.7797 14.7796 l 22.78529,0.2181 22.78528,0.2181 v 2.4505 2.4504 h 59.93968 59.93968 v -2.4633 c 0,-2.0801 0.31932,-2.4632 2.05273,-2.4632 1.7334,0 2.05272,0.3831 2.05272,2.4632 v 2.4633 H -187.30385 7.7053603 v -2.4633 c 0,-2.0801 0.31932,-2.4632 2.05273,-2.4632 1.7334197,0 2.0527297,0.3831 2.0527297,2.4632 v 2.4633 h 59.88515 59.88515 l 0.2598,-2.258 0.2598,-2.258 14.3691,-0.4105 14.3691,-0.4106 v -14.7796 -14.7797 l -20.37975,-0.2197 -20.37975,-0.2197 1.85388,-3.0021 c 1.43085,-2.3152 1.93932,-4.6107 2.22432,-10.0407 l 0.37045,-7.0387 4.49997,-4.9297 c 7.13455,-7.8167 10.23535,-12.9509 10.69183,-17.7016 0.33596,-3.4963 0.1081,-4.4438 -1.4738,-6.1277 -3.23425,-3.4427 -7.66717,-4.2726 -12.63711,-2.3655 -1.01569,0.3898 -1.30861,-0.044 -1.30861,-1.9388 0,-1.3422 -1.28712,-3.1465 -1.70152,-4.6026 l -2.34942,-8.2574 -25.54845,3.241 c -24.86476,3.1548 -25.19555,2.8942 -26.72235,4.5818 -1.46653,1.6209 -1.56521,3.2996 -1.56521,26.8907 0,24.9268 0.0182,25.1908 1.91481,28.2411 l 1.91481,3.0791 H -3.0650497 c -44.9391093,0 -73.0068393,-0.2945 -72.5286693,-0.7602 0.90765,-0.884 9.73436,-3.0445 27.05432,-6.62 30.71299,-6.3404 54.4300893,-11.8124 57.0658493,-13.168 5.3209397,-2.7365 9.7041497,-7.2742 12.4879697,-12.9289 2.4654,-5.008 2.69909,-6.1427 2.66534,-12.8986 -0.0413,-8.2797 -0.19634,-8.6924 -10.43684,-27.9331 -2.88426,-5.4192 -7.9480297,-15.026 -11.2531197,-21.3484 -3.30509,-6.3224 -7.38228,-14.0817 -9.06088,-17.2429 -1.67858,-3.1612 -5.3571493,-10.0992 -8.1756293,-15.4179 l -5.1254,-9.6703 3.35011,-3.0566 3.35173,-3.0567 -1.21722,-5.7476 c -2.04804,-12.8515 -2.30293,-23.5155 -11.66045,-49.9359 -4.84946,-13.6921 -19.30919,-31.9716 -50.4859,-59.7905 -28.720811,-23.7889 -45.717011,-29.0888 -66.920561,-35.092 -18.81952,-3.4253 -29.73669,-1.1612 -31.45646,-2.0816 -0.99606,-0.5331 -0.89807,-2.0319 -0.89807,-2.853 -0.0337,-3.7345 0.2021,0.7517 -0.0577,-2.97 l 6.32176,-5.3371 c 7.31764,-6.1772 11.48612,-9.7304 17.01039,-17.4466 18.08834,-25.2655 29.19055,-57.327 24.71453,-89.5134 -1.56841,-6.9977 -4.59688,-14.7437 -13.46141,-22.4742 -4.00213,-3.3168 -9.19577,-5.0981 -14.90473,-6.6104 -5.61536,-1.4876 -18.69212,-1.923 -24.05541,-0.8003 l -3.29239,0.6896 -4.79344,-7.0562 c -10.20036,-15.0166 -24.9095,-22.9647 -41.06741,-23.0002 z m -77.69898,355.0627 v 32.8437 c 0,18.064 -0.27712,32.8013 -0.61582,32.7506 -0.55678,-0.083 -19.92978,-5.1431 -32.84366,-8.5781 -2.8225,-0.7508 -5.13182,-1.6343 -5.13182,-1.963 0,-0.3286 4.58666,-8.6421 10.19308,-18.4745 5.60633,-9.8324 12.53429,-22.0703 15.39546,-27.1955 l 5.20239,-9.3174 3.90018,-0.034 z m 233.294211,0.9302 c 0.11113,0 0.23471,0.1166 0.37526,0.3015 1.08491,1.4266 27.13444,46.8041 29.85277,52.0029 0.55149,1.0548 0.83668,2.0853 0.63346,2.2885 -0.20322,0.2032 -7.43906,2.1677 -16.07864,4.3669 l -15.70818,3.9996 0.0256,-32.1509 c 0.0206,-25.3312 0.12175,-30.8221 0.89966,-30.8085 z m 203.319559,78.3308 c 0.12245,-0.01 0.18747,0.031 0.18443,0.1235 -0.0122,0.3694 -1.11032,1.9651 -2.44083,3.5457 -2.16443,2.5713 -2.42103,2.6839 -2.44082,1.0809 -0.0132,-1.0699 0.96975,-2.4966 2.44082,-3.5441 1.0161,-0.7236 1.88906,-1.1797 2.2564,-1.206 z" />
        <path
           style="fill:#fece00;fill-opacity:1;stroke-width:0.821091"
           d="m -180.84449,1412.0916 c 9.46726,-4.9801 16.99932,-11.811 25.88714,-22.8441 9.67934,-13.8413 17.34382,-29.2856 20.63961,-45.561 4.08872,-20.839 9.24155,-49.9759 -15.21559,-64.1989 -19.04279,-8.9831 -49.55895,-2.0479 -57.24019,13.0086 -1.64991,3.2341 -1.68603,4.1897 -1.28591,34.0126 0.33479,24.9531 0.62466,30.8199 1.55179,31.407 0.62704,0.3971 5.94347,0.7333 11.81428,0.7471 7.19928,0.017 10.27324,0.2843 9.44255,0.8211 -1.44824,0.9359 -23.53408,1.1134 -24.1025,0.1937 -0.21326,-0.3451 -0.62513,-5.0561 -0.91525,-10.4689 -0.29011,-5.4129 -0.68907,-10.6345 -0.88655,-11.6036 l -0.35906,-1.7621 -6.36925,2.0477 c -5.24746,1.6871 -7.45384,1.9755 -12.52742,1.6379 -7.98445,-0.5313 -19.75497,-5.069 -18.48381,-7.1257 0.24948,-0.4037 2.94007,0.4438 5.97907,1.8833 7.37986,3.4956 17.80125,4.1051 24.87023,1.4545 7.22732,-2.71 7.11856,-2.5053 6.57949,-12.3848 l -0.47042,-8.6215 -3.69492,-0.9603 c -10.35097,-2.6901 -24.23161,-0.4418 -31.49039,5.1007 -7.37342,5.63 -8.68892,12.4419 -5.46136,28.2798 3.9981,19.619 13.59933,37.0299 28.24071,51.2118 12.18876,11.8062 20.63143,16.0804 31.8235,16.1111 6.28538,0.017 7.62653,-0.2568 11.67425,-2.386 z"
           id="path2399" />
        <path
           style="fill:#fece00;fill-opacity:1;stroke-width:0.821091"
           d="m -187.86835,1459.9139 c 4.51964,-2.7942 7.94476,-7.4596 9.3023,-12.6705 1.42601,-5.4738 -1.39922,-30.6073 -3.35273,-29.8262 -0.70362,0.2814 -4.05049,0.7089 -7.43749,0.9502 -6.80385,0.4846 -13.95602,-0.9367 -19.85365,-3.9455 -3.07647,-1.5695 -3.53203,-1.6182 -4.37347,-0.4675 -0.51659,0.7065 -1.81004,7.6193 -2.87432,15.3618 -1.64452,11.9637 -1.78559,14.6361 -0.93956,17.7993 1.82984,6.8416 7.50767,12.9972 13.8887,15.0573 4.18109,1.3499 11.51684,0.2904 15.64022,-2.2589 z"
           id="path2397" />
        <path
           style="fill:#69d4dc;fill-opacity:1;stroke-width:0.821091"
           d="m -185.66127,1476.8295 c 9.84288,-3.6827 15.49686,-10.9378 17.99474,-23.0906 1.31678,-6.4066 2.73142,-23.824 1.87899,-27 -0.37813,-1.4088 -6.60083,-0.8049 -8.94217,-0.7947 -0.1734,8e-4 0.56363,11.0427 0.56363,15.4451 0,6.9081 -0.27973,8.5519 -2.04264,12.0038 -7.20882,14.1152 -25.74547,17.9668 -37.34208,7.7591 -3.53,-3.1073 -7.82804,-10.3016 -7.82804,-13.1031 0,-4.3512 -5.05637,-0.3385 -7.07849,5.6175 -1.24216,3.6587 -1.22195,3.803 1.22625,8.7555 5.91689,11.9693 16.2822,17.4343 31.18092,16.4398 3.31817,-0.2214 7.99317,-1.136 10.38889,-2.0324 z"
           id="path2393" />
        <path
           style="fill:#69d4dc;fill-opacity:1;stroke-width:0.821091"
           d="m -307.45755,1576.4574 c 0.2731,-17.7559 0.49323,-28.7764 2.72668,-32.5757 1.55999,-2.6537 2.29076,-2.7828 4.75965,-3.978 3.5524,-1.7196 5.03163,-0.3828 108.85417,3.2413 100.824561,3.5194 104.566941,4.4222 107.509021,5.9238 7.51963,3.8378 8.38347,6.6906 8.38347,27.6854 v 16.9767 l 5.54237,-0.5291 c 8.3904,-0.8011 20.45595,-4.1615 29.77156,-8.2918 10.11378,-4.4842 21.34138,-11.6882 21.34138,-13.6934 0,-2.5878 -2.90701,-22.9469 -4.85844,-32.0657 -7.43401,-34.7383 -30.16483,-53.0708 -53.6095,-76.3614 -22.55852,-21.0342 -53.121241,-33.528 -70.491041,-36.7134 l -13.96713,-1.0148 -0.88172,20.1541 c -0.45811,10.4716 -1.77589,15.1941 -4.96597,21.1793 -6.65667,12.4892 -20.86816,18.7085 -37.6787,16.4891 -11.67639,-1.5416 -20.93808,-7.8794 -25.68094,-17.5734 l -2.24542,-4.5895 -3.45264,1.7261 c -2.57513,1.2875 -4.83996,1.6978 -8.91111,1.6146 -5.35767,-0.1095 -5.46698,-0.069 -5.91894,2.1907 -0.55085,2.7543 -4.81376,7.8108 -7.95394,9.4346 -5.91698,3.0598 -13.51157,2.1449 -18.49158,-2.2276 -4.14074,-3.6356 -5.28438,-6.3473 -5.28438,-12.5297 0,-3.1532 -0.35095,-5.3779 -0.84838,-5.3779 -1.08918,0 -7.834,3.3941 -15.1629,7.6302 -26.80042,15.4908 -49.89321,43.697 -63.10909,77.0834 -2.66091,6.7219 -7.55815,23.5777 -8.30862,28.597 l -0.55235,3.6949 6.55428,4.3237 c 14.86947,9.8089 36.30095,16.7328 53.64585,17.3314 l 3.00962,0.1039 z"
           id="path2391" />
        <path
           style="fill:#69d4dc;fill-opacity:1;stroke-width:0.821091"
           d="m 135.79594,1673.9003 c 0,-1.9676 -0.54628,-2.6886 -2.88056,-3.8018 -2.75276,-1.3127 -2.97813,-1.3007 -5.08004,0.2686 -2.73401,2.0412 -3.64782,4.1532 -1.38871,3.2096 4.64664,-1.9408 7.70713,-1.0765 7.70713,2.1765 0,0.8746 0.36949,1.3618 0.82109,1.0826 0.4516,-0.2791 0.82109,-1.6001 0.82109,-2.9355 z"
           id="path2385" />
        <path
           style="fill:#ffffff;stroke-width:0.821091"
           d="m -80.608209,1695.9488 c 1.13127,-1.6151 1.27819,-9.4521 1.27819,-68.177 0,-71.8642 0.14837,-69.4218 -4.47622,-73.6891 l -2.2246,-2.0528 -104.235351,-3.5598 c -106.94131,-3.6523 -106.28364,-7.0009 -109.67666,-1.4362 -1.55565,2.5514 -2.71796,14.3924 -2.721,80.5775 0,51.9466 0.23171,68.4264 0.98227,69.177 0.7565,0.7565 26.3923,0.9853 110.39024,0.9853 h 109.404931 z"
           id="path2381" />
        <path
           style="fill:#fece00;fill-opacity:1;stroke-width:0.821091"
           d="m -55.317939,1707.1832 c 9.59918,-2.0503 26.32083,-5.589 37.15924,-7.8636 10.9721293,-2.3027 21.5257893,-4.9913 23.8116493,-6.0661 9.1618797,-4.3079 13.9843797,-12.11 13.9203297,-22.5211 -0.0365,-5.9322 -0.24523,-6.6025 -4.61934,-14.8344 -2.51961,-4.7418 -10.9590497,-20.8147 -18.7542797,-35.7175 -7.7952393,-14.9028 -14.2837693,-27.2265 -14.4189593,-27.386 -0.13518,-0.1596 -3.13278,0.6602 -6.66133,1.8215 -10.63057,3.499 -14.00531,4.0235 -29.21551,4.541 l -14.58907,0.4963 6.84474,11.9058 c 3.7646,6.5482 10.44183,18.2699 14.83829,26.0483 4.39646,7.7784 8.27515,14.3166 8.61932,14.5293 0.34417,0.2127 3.51329,-0.353 7.04249,-1.2571 3.52919,-0.9041 6.92273,-1.4496 7.54119,-1.2123 1.88504,0.7234 1.25596,2.937 -1.0879,3.8281 -2.04883,0.779 -48.99832,13.0768 -49.92335,13.0768 -0.22777,0 -0.41413,6.4845 -0.41413,14.4099 0,11.3106 -0.26943,14.9309 -1.25272,16.8324 -1.1229,2.1714 -1.1229,2.6735 0,4.845 0.68899,1.3323 1.25272,3.734 1.25272,5.337 0,2.0383 0.36887,2.9146 1.22679,2.9146 0.67474,0 9.08067,-1.6775 18.67983,-3.7279 z"
           id="path2379" />
        <path
           style="fill:#fece00;fill-opacity:1;stroke-width:0.821091"
           d="m -307.35926,1708.0587 c 0.25511,-2.472 1.03827,-5.3148 1.74038,-6.3172 1.16406,-1.6619 1.15142,-1.9607 -0.14369,-3.3901 -1.20585,-1.3308 -1.4613,-3.706 -1.69153,-15.729 l -0.27121,-14.1615 -3.4237,-0.8365 c -10.54651,-2.5769 -51.47652,-13.4164 -53.35067,-14.129 -2.37065,-0.9013 -2.96619,-3.1073 -1.03851,-3.847 0.64562,-0.2477 3.99674,0.324 7.44697,1.2706 3.45014,0.9465 6.59057,1.5247 6.97862,1.2849 0.38805,-0.2398 5.77769,-9.3906 11.97693,-20.3352 6.19933,-10.9445 12.86207,-22.6703 14.80609,-26.0573 l 3.53471,-6.1581 -14.54243,-0.48 c -15.091,-0.498 -18.41265,-1.017 -29.16878,-4.5573 -3.52856,-1.1613 -6.51503,-1.9811 -6.63664,-1.8215 -0.1216,0.1595 -2.45531,4.5392 -5.18601,9.7326 -2.7307,5.1934 -6.4376,12.2137 -8.23752,15.6007 -22.96773,43.219 -24.84253,47.2542 -24.84253,53.4706 0,4.515 3.02794,11.9282 6.394,15.654 6.18767,6.849 3.70887,6.1291 67.50423,19.6049 10.61261,2.2418 20.58887,4.4023 22.16947,4.8011 5.3582,1.3521 5.47816,1.2799 5.98182,-3.5997 z"
           id="path2377" />
        <path
           style="fill:#69d4dc;fill-opacity:1;stroke-width:0.821091"
           d="m 115.00574,1715.3688 c 4.91382,-3.6086 5.18679,-5.1464 5.18819,-29.2285 7e-4,-12.0434 -1.55345,-29.2077 -1.82757,-29.9221 -0.43882,-1.1435 -1.66202,-0.8081 -22.89768,1.9267 l -24.50768,3.5008 -0.46494,1.8525 c -0.25572,1.0188 -0.35514,11.8926 -0.22092,24.1638 0.23041,21.0657 0.33898,22.4407 1.94458,24.6277 3.54411,4.8275 5.61455,5.2614 23.90092,5.0086 15.26402,-0.2109 16.75191,-0.3629 18.8851,-1.9295 z"
           id="path2375" />
        <path
           style="fill:#ffffff;stroke-width:0.821091"
           d="m -80.608209,1716.4761 c 0.76822,-1.0968 1.27819,-3.5687 1.27819,-6.1955 0,-3.5386 -0.38141,-4.7521 -2.00348,-6.3741 l -2.00349,-2.0035 -107.831731,-0.018 c -96.49592,-0.016 -108.02445,0.1173 -109.66495,1.2663 -1.59445,1.1168 -1.83322,2.0189 -1.83322,6.9265 0,4.0347 0.36768,6.0101 1.29029,6.9327 1.16003,1.16 12.30325,1.2903 110.39023,1.2903 h 109.099961 l 1.2782,-1.8249 z"
           id="path2373" />
        <path
           style="fill:#ffffff;stroke-width:0.821091"
           d="m 157.14432,1732.8022 v -10.9526 l -352.4535,0.073 -352.45351,0.073 -0.2327,9.8053 c -0.128,5.3929 -0.0468,10.2887 0.17949,10.8794 0.3387,0.8826 63.2637,1.0742 352.68622,1.0742 h 352.274 z"
           id="path2371" />
        <path
           style="fill:#000000;fill-opacity:1;stroke-width:5.58342"
           d="m 81.73577,1601.9009 c -0.90761,-1.1967 3.32281,-0.9253 4.50589,0 6.54214,5.1167 7.80746,16.0753 6.00293,24.1823 -2.29662,10.3178 -8.65781,12.3064 -6.00293,24.0306 0.33171,1.4649 -3.56995,1.1747 -4.50589,0 -5.16827,-6.4867 3.7875,-16.1502 5.55827,-24.2529 1.00352,-4.5919 4.00065,-11.3565 -5.55827,-23.96 z"
           id="rect2358" />
        <path
           style="fill:#000000;fill-opacity:1;stroke-width:5.58342"
           d="m 98.1576,1585.479 c -0.90761,-1.1967 3.3228,-0.9253 4.50589,0 6.54214,5.1167 7.80746,16.0754 6.00293,24.1824 -2.29662,10.3178 -8.65781,12.3064 -6.00293,24.0306 0.33171,1.4649 -3.56995,1.1747 -4.50589,0 -5.16827,-6.4867 3.7875,-16.1503 5.55827,-24.2529 1.00352,-4.5919 4.00065,-11.3565 -5.55827,-23.9601 z"
           id="path2361" />
        <path
           style="fill:#000000;stroke-width:0.821091"
           d="m -196.27044,1388.4079 c -5.16967,-1.8941 -7.71447,-5.0412 -6.40329,-7.9189 1.93418,-4.2451 4.29032,-4.9219 17.04715,-4.8971 9.55376,0.019 12.10272,0.2769 13.81684,1.4 4.94625,3.2409 4.41421,7.5616 -1.29689,10.5322 -4.9039,2.5507 -17.32086,3.0245 -23.16381,0.8838 z"
           id="path2401" />
        <path
           style="fill:#ec5ea0;fill-opacity:1;stroke-width:0.821091"
           d="m -173.37243,1380.0557 c 0.84764,-1.3715 -4.65081,-2.1549 -14.20715,-2.0243 -7.38366,0.101 -9.58442,0.4037 -10.64486,1.4642 -1.23504,1.235 -0.35807,1.3368 11.51759,1.3368 7.19403,0 13.06578,-0.342 13.33442,-0.7767 z"
           id="path2405" />
        <path
           style="fill:#ec5ea0;fill-opacity:1;stroke-width:0.821091"
           d="m -176.23543,1386.0803 c 1.81554,-0.7264 3.30099,-1.6501 3.30099,-2.0527 0,-0.8261 -14.46515,-0.8498 -21.34838,-0.035 l -4.516,0.5346 2.87382,1.4182 c 3.83568,1.8929 15.10292,1.9701 19.68957,0.1348 z"
           id="path2403" />
        <path
           style="fill:#4747ff;fill-opacity:1;stroke-width:0.821091"
           d="m -260.98899,1473.6201 c 3.0048,-1.832 5.51362,-5.4838 6.90597,-10.0522 0.89366,-2.9322 1.0664,-3.0495 3.88751,-2.6405 6.68217,0.9686 8.19083,0.5253 10.95793,-0.1595 5.34996,-2.1492 7.68077,-6.1207 8.48453,-10.361 0.5842,-3.0811 2.14264,-4.3325 4.44014,-5.6238 4.33928,-2.4388 6.28678,-6.9969 7.37996,-17.2725 0.4972,-4.6736 1.27834,-10.6404 1.73585,-13.2595 l 0.83184,-4.762 -4.30606,-3.8594 c -12.70345,-11.386 -23.152,-24.234 -26.72234,-32.8592 -0.68821,-1.6626 -1.97289,-4.6188 -2.85483,-6.5693 -0.88194,-1.9505 -2.77329,-7.8624 -4.20301,-13.1375 -2.19271,-8.0902 -2.22766,-11.0265 -2.58924,-18.7102 -0.1416,-3.0089 0.11648,-9.2517 2.24302,-11.9058 5.86053,-7.3143 9.43167,-9.6426 18.13874,-11.8263 4.64405,-1.1647 6.53569,-1.2276 13.02516,-0.4332 4.17565,0.5112 8.60818,1.1259 9.85008,1.3662 l 2.258,0.4368 v -8.714 c 0,-7.5707 0.25858,-9.2243 1.97078,-12.6032 2.66062,-5.2504 9.25139,-11.2312 15.70459,-14.251 2.92335,-1.368 5.05646,-2.0516 5.05646,-2.4677 0,-1.7125 -7.45359,-11.9545 -12.49527,-16.4299 -10.01274,-8.1475 -18.64936,-12.1537 -31.35011,-10.9952 -23.93702,2.3133 -39.73349,18.9162 -44.73348,43.144 -1.46127,7.0806 -1.55097,12.1308 -1.55604,91.8275 -0.005,82.0373 -0.21686,83.6091 1.31306,85.9299 4.14927,6.2942 11.09769,9.5597 16.62676,6.1885 z"
           id="path2395" />
        <g
           id="g2582"
           transform="matrix(0.52385399,0,0,0.52385399,-766.17486,1272.0898)">
          <rect
             style="fill:#69d4dc;fill-opacity:1;stroke:none;stroke-width:6.80586"
             id="rect2518"
             width="179"
             height="284.94138"
             x="-50.514774"
             y="589.15405"
             rx="20.034468"
             ry="20" />
          <rect
             style="fill:#ffffff;fill-opacity:1;stroke:none;stroke-width:9.32386"
             id="rect2520"
             width="180"
             height="222.17854"
             x="-51.014774"
             y="619.21362" />
          <rect
             style="fill:#4747ff;fill-opacity:1;stroke:none;stroke-width:6.8"
             id="rect2562"
             width="49.806862"
             height="65.201714"
             x="-34.23587"
             y="646.25964" />
          <rect
             style="fill:#000000;fill-opacity:1;stroke:none;stroke-width:5.90127"
             id="rect2564"
             width="70"
             height="5.3703952"
             x="41.570992"
             y="646.25964" />
          <rect
             style="fill:#000000;fill-opacity:1;stroke:none;stroke-width:5.90127"
             id="rect2566"
             width="70"
             height="5.3703952"
             x="41.570992"
             y="680.25964" />
          <rect
             style="fill:#000000;fill-opacity:1;stroke:none;stroke-width:5.90127"
             id="rect2568"
             width="70"
             height="5.3703952"
             x="41.570992"
             y="714.25964" />
          <rect
             style="fill:#000000;fill-opacity:1;stroke:none;stroke-width:8.54814"
             id="rect2570"
             width="146.8755"
             height="5.3703952"
             x="-34.783504"
             y="748.25964" />
          <rect
             style="fill:#000000;fill-opacity:1;stroke:none;stroke-width:8.54814"
             id="rect2572"
             width="146.8755"
             height="5.3703952"
             x="-34.783504"
             y="782.25964" />
        </g>
        <g
           id="g2654"
           transform="matrix(0.53442181,0,0,0.53442181,484.74696,643.2177)">
          <path
             id="path2584"
             style="fill:#ffffff;fill-opacity:1;stroke:none;stroke-width:3.81397"
             d="m 526.15256,1238.3583 a 47.688447,45.417571 0 0 0 -47.63394,45.4185 47.688447,45.417571 0 0 0 0.95067,9.0197 31.792301,31.792301 0 0 0 -31.72966,31.7931 31.792301,31.792301 0 0 0 31.79168,31.7916 31.792301,31.792301 0 0 0 1.25209,-0.024 v 0.024 h 148.17082 v -0.021 a 32.92774,31.792301 0 0 0 1.19152,0.021 32.92774,31.792301 0 0 0 32.92832,-31.7916 32.92774,31.792301 0 0 0 -32.92832,-31.7931 32.92774,31.792301 0 0 0 -11.53806,2.017 37.469497,34.063177 0 0 0 -36.58034,-26.6875 37.469497,34.063177 0 0 0 -10.54794,1.3775 47.688447,45.417571 0 0 0 -45.27196,-31.1452 47.688447,45.417571 0 0 0 -0.0549,0 z" />
          <g
             id="g2624"
             transform="translate(4,12)">
            <rect
               style="fill:#000000;fill-opacity:1;stroke:none;stroke-width:6.8"
               id="rect2606"
               width="5.3695564"
               height="45.641232"
               x="531.73248"
               y="1172.7556" />
            <circle
               style="fill:#fece00;fill-opacity:1;stroke:none;stroke-width:1.28649"
               id="path2604"
               cx="533.75403"
               cy="1168.2329"
               r="18.793447" />
          </g>
          <g
             id="g2614"
             transform="rotate(57.163902,534.79124,1309.5243)">
            <rect
               style="fill:#000000;fill-opacity:1;stroke:none;stroke-width:6.8"
               id="rect2608"
               width="5.3695564"
               height="45.641232"
               x="531.73248"
               y="1172.7556" />
            <circle
               style="fill:#fece00;fill-opacity:1;stroke:none;stroke-width:1.28649"
               id="circle2610"
               cx="533.75403"
               cy="1168.2329"
               r="18.793447" />
          </g>
          <g
             id="g2620"
             transform="rotate(-69.068347,532.06189,1289.3902)">
            <rect
               style="fill:#000000;fill-opacity:1;stroke:none;stroke-width:6.8"
               id="rect2616"
               width="5.3695564"
               height="45.641232"
               x="531.73248"
               y="1172.7556" />
            <circle
               style="fill:#fece00;fill-opacity:1;stroke:none;stroke-width:1.28649"
               id="circle2618"
               cx="533.75403"
               cy="1168.2329"
               r="18.793447" />
          </g>
          <g
             id="g2630"
             transform="rotate(138.74431,537.22887,1305.1046)">
            <rect
               style="fill:#000000;fill-opacity:1;stroke:none;stroke-width:6.8"
               id="rect2626"
               width="5.3695564"
               height="45.641232"
               x="531.73248"
               y="1172.7556" />
            <circle
               style="fill:#fece00;fill-opacity:1;stroke:none;stroke-width:1.28649"
               id="circle2628"
               cx="533.75403"
               cy="1168.2329"
               r="18.793447" />
          </g>
          <g
             id="g2636"
             transform="rotate(-136.94961,546.78631,1299.8632)">
            <rect
               style="fill:#000000;fill-opacity:1;stroke:none;stroke-width:6.8"
               id="rect2632"
               width="5.3695564"
               height="45.641232"
               x="531.73248"
               y="1172.7556" />
            <circle
               style="fill:#fece00;fill-opacity:1;stroke:none;stroke-width:1.28649"
               id="circle2634"
               cx="533.75403"
               cy="1168.2329"
               r="18.793447" />
          </g>
        </g>
        <g
           id="g2900"
           transform="translate(320,380)">
          <rect
             style="fill:#ffffff;fill-opacity:1;stroke-width:4.75928"
             id="rect2516"
             width="194.53741"
             height="139.36899"
             x="271.43768"
             y="1217.0122" />
          <rect
             style="fill:#000000;fill-opacity:1;stroke:none;stroke-width:2.61012"
             id="rect2656"
             width="194.48741"
             height="3.5752978"
             x="271.35672"
             y="1236.0763" />
          <circle
             style="fill:#ec5ea0;fill-opacity:1;stroke:none;stroke-width:3.47315"
             id="path2658"
             cx="281.14764"
             cy="1226.6835"
             r="3.8469121" />
          <circle
             style="fill:#fece00;fill-opacity:1;stroke:none;stroke-width:3.47315"
             id="circle2660"
             cx="291.36279"
             cy="1226.6835"
             r="3.8469121" />
          <circle
             style="fill:#69d4dc;fill-opacity:1;stroke:none;stroke-width:3.47315"
             id="circle2662"
             cx="301.57791"
             cy="1226.6835"
             r="3.8469121" />
          <rect
             style="fill:#4747ff;fill-opacity:1;stroke:none;stroke-width:5.20829"
             id="rect2668"
             width="54.811405"
             height="34.757397"
             x="287.32043"
             y="1260.0624" />
          <rect
             style="fill:#000000;fill-opacity:1;stroke:none;stroke-width:4.82557"
             id="rect2670"
             width="87.804298"
             height="2.8628228"
             x="359.97354"
             y="1260.0624" />
          <rect
             style="fill:#000000;fill-opacity:1;stroke:none;stroke-width:4.82557"
             id="rect2672"
             width="87.804298"
             height="2.8628228"
             x="359.97354"
             y="1278.1869" />
          <rect
             style="fill:#000000;fill-opacity:1;stroke:none;stroke-width:4.82557"
             id="rect2674"
             width="87.804298"
             height="2.8628228"
             x="359.97354"
             y="1296.3114" />
          <rect
             style="fill:#000000;fill-opacity:1;stroke:none;stroke-width:6.54724"
             id="rect2676"
             width="161.63339"
             height="2.8628228"
             x="286.71777"
             y="1314.436" />
          <rect
             style="fill:#000000;fill-opacity:1;stroke:none;stroke-width:6.54724"
             id="rect2678"
             width="161.63339"
             height="2.8628228"
             x="286.71777"
             y="1332.5605" />
        </g>
        <g
           id="g2750"
           transform="matrix(0.37009225,-0.17698426,0.17698426,0.37009225,-891.44883,1808.6847)">
          <rect
             style="fill:#ffffff;fill-opacity:1;stroke:none;stroke-width:13.3136"
             id="rect2717"
             width="265.84033"
             height="151.04564"
             x="-168.80165"
             y="-357.10077"
             rx="9.7893934"
             ry="9.7893934" />
          <path
             id="rect2719"
             style="fill:#000000;fill-opacity:1;stroke:none;stroke-width:5.03028"
             d="m 1633.3398,-318.25586 c -0.7058,0.0186 -1.3648,0.49631 -1.6406,1.26953 l -0.084,0.23633 c -0.3676,1.03097 0.088,2.18783 1.0215,2.59375 l 67.6177,43.77667 c 0.259,0.11258 0.7007,0.49154 0.9606,0.47239 0.2596,0.0192 0.5715,-0.30768 0.8305,-0.42026 l 65.8903,-43.8288 c 0.9338,-0.40592 1.3892,-1.56278 1.0215,-2.59375 l -0.084,-0.23633 c -0.3676,-1.03097 -1.4158,-1.53482 -2.3496,-1.1289 l -65.3106,42.37104 -67.164,-42.37104 c -0.2334,-0.10148 -0.4737,-0.14683 -0.709,-0.14063 z"
             transform="matrix(1.9578787,0,0,1.9578787,-3364.9275,265.20727)"
             sodipodi:nodetypes="ssscccccsscccss" />
          <rect
             style="fill:#000000;fill-opacity:1;stroke:none;stroke-width:9.85991"
             id="rect2727"
             width="149.94351"
             height="8.2301216"
             x="-326.556"
             y="-332.24377"
             rx="3.9157574"
             ry="3.9157574"
             transform="matrix(0.99999989,-4.7308866e-4,0.0679419,0.99768928,0,0)" />
          <rect
             style="fill:#000000;fill-opacity:1;stroke:none;stroke-width:8.53045"
             id="rect2729"
             width="112.34811"
             height="8.2217865"
             x="-296.53998"
             y="-292.73151"
             rx="3.9157574"
             ry="3.9157574"
             transform="matrix(0.9999998,-6.3139977e-4,0.05095841,0.99870078,0,0)" />
          <rect
             style="fill:#000000;fill-opacity:1;stroke:none;stroke-width:6.72396"
             id="rect2731"
             width="69.858315"
             height="8.2152357"
             x="-260.845"
             y="-253.39871"
             rx="3.9157574"
             ry="3.9157574"
             transform="matrix(0.99999948,-0.00101544,0.03171131,0.99949707,0,0)" />
        </g>
        <g
           id="g2762"
           transform="matrix(0.27401349,-0.1310378,0.1310378,0.27401349,1305.4824,1477.3693)">
          <rect
             style="fill:#ffffff;fill-opacity:1;stroke:none;stroke-width:13.3136"
             id="rect2752"
             width="265.84033"
             height="151.04564"
             x="-168.80165"
             y="-357.10077"
             rx="9.7893934"
             ry="9.7893934" />
          <path
             id="path2754"
             style="fill:#000000;fill-opacity:1;stroke:none;stroke-width:5.03028"
             d="m 1633.3398,-318.25586 c -0.7058,0.0186 -1.3648,0.49631 -1.6406,1.26953 l -0.084,0.23633 c -0.3676,1.03097 0.088,2.18783 1.0215,2.59375 l 67.6177,43.77667 c 0.259,0.11258 0.7007,0.49154 0.9606,0.47239 0.2596,0.0192 0.5715,-0.30768 0.8305,-0.42026 l 65.8903,-43.8288 c 0.9338,-0.40592 1.3892,-1.56278 1.0215,-2.59375 l -0.084,-0.23633 c -0.3676,-1.03097 -1.4158,-1.53482 -2.3496,-1.1289 l -65.3106,42.37104 -67.164,-42.37104 c -0.2334,-0.10148 -0.4737,-0.14683 -0.709,-0.14063 z"
             transform="matrix(1.9578787,0,0,1.9578787,-3364.9275,265.20727)"
             sodipodi:nodetypes="ssscccccsscccss" />
          <rect
             style="fill:#000000;fill-opacity:1;stroke:none;stroke-width:9.85991"
             id="rect2756"
             width="149.94351"
             height="8.2301216"
             x="-326.556"
             y="-332.24377"
             rx="3.9157574"
             ry="3.9157574"
             transform="matrix(0.99999989,-4.7308866e-4,0.0679419,0.99768928,0,0)" />
          <rect
             style="fill:#000000;fill-opacity:1;stroke:none;stroke-width:8.53045"
             id="rect2758"
             width="112.34811"
             height="8.2217865"
             x="-296.53998"
             y="-292.73151"
             rx="3.9157574"
             ry="3.9157574"
             transform="matrix(0.9999998,-6.3139977e-4,0.05095841,0.99870078,0,0)" />
          <rect
             style="fill:#000000;fill-opacity:1;stroke:none;stroke-width:6.72396"
             id="rect2760"
             width="69.858315"
             height="8.2152357"
             x="-260.845"
             y="-253.39871"
             rx="3.9157574"
             ry="3.9157574"
             transform="matrix(0.99999948,-0.00101544,0.03171131,0.99949707,0,0)" />
        </g>
        <text
           xml:space="preserve"
           style="font-style:normal;font-weight:normal;font-size:40px;line-height:1.25;font-family:sans-serif;fill:#000000;fill-opacity:1;stroke:none;stroke-width:1"
           x="291.36761"
           y="714.10229"
           id="text2793"><tspan
             sodipodi:role="line"
             id="tspan2791"
             x="291.36761"
             y="714.10229"
             style="stroke-width:1"></tspan></text>
        <g
           id="g2887"
           transform="matrix(0.57539345,0,0,0.57539345,28.62884,922.90851)">
          <g
             id="g2828"
             transform="matrix(0.99227073,0,0,0.98705585,699.34852,1165.6828)">
            <rect
               style="fill:#000000;fill-opacity:1;stroke:none;stroke-width:12.3588"
               id="rect2786"
               width="395.49152"
               height="289.76605"
               x="-422.32883"
               y="-521.41992"
               rx="9.1333914"
               ry="9.0414772" />
            <rect
               style="fill:#ffffff;fill-opacity:1;stroke-width:9.6313"
               id="rect2764"
               width="380.88068"
               height="291.51956"
               x="-414.49728"
               y="-513.58844"
               rx="9.7893934"
               ry="10.458551" />
            <rect
               style="fill:#000000;fill-opacity:1;stroke:none;stroke-width:4.88055"
               id="rect2766"
               width="347.31454"
               height="7"
               x="-397.93542"
               y="-476.26331" />
            <circle
               style="fill:#de5896;fill-opacity:1;stroke:none;stroke-width:6.8"
               id="circle2768"
               cx="-379.82343"
               cy="-494.65326"
               r="7.5317879" />
            <circle
               style="fill:#fece00;fill-opacity:1;stroke:none;stroke-width:6.8"
               id="circle2770"
               cx="-359.82343"
               cy="-494.65326"
               r="7.5317879" />
            <circle
               style="fill:#69d4dc;fill-opacity:1;stroke:none;stroke-width:6.8"
               id="circle2772"
               cx="-339.82343"
               cy="-494.65326"
               r="7.5317879" />
            <rect
               style="fill:#000000;fill-opacity:1;stroke:none;stroke-width:9.44788"
               id="rect2776"
               width="171.91017"
               height="5.6050601"
               x="-241.15483"
               y="-429.30145" />
            <rect
               style="fill:#000000;fill-opacity:1;stroke:none;stroke-width:9.44788"
               id="rect2778"
               width="171.91017"
               height="5.6050601"
               x="-241.15483"
               y="-393.8158" />
            <rect
               style="fill:#000000;fill-opacity:1;stroke:none;stroke-width:9.44788"
               id="rect2780"
               width="171.91017"
               height="5.6050601"
               x="-241.15483"
               y="-358.33023" />
            <rect
               style="fill:#000000;fill-opacity:1;stroke:none;stroke-width:12.8187"
               id="rect2782"
               width="316.45859"
               height="5.6050601"
               x="-384.58072"
               y="-322.84454" />
            <path
               id="rect2788"
               style="fill:#000000;fill-opacity:1;stroke:none;stroke-width:10.4806"
               d="m -438.53264,-266.89568 h 195.828 l 12.93277,8.92052 h 23.51772 l 11.56686,-8.79252 183.369255,-0.128 c 5.8032596,-0.004 10.47520053,2.5285 10.47520053,5.66929 v 33.28029 c 0,3.14078 -4.67193953,5.66929 -10.47520053,5.66929 H -438.53264 c -5.80326,0 -10.4752,-2.52851 -10.4752,-5.66929 v -33.28029 c 0,-3.14079 4.67194,-5.66929 10.4752,-5.66929 z"
               sodipodi:nodetypes="sccccssssssss" />
            <g
               aria-label="&lt;/&gt;"
               transform="scale(0.88684076,1.1275981)"
               id="text2804"
               style="font-style:normal;font-variant:normal;font-weight:bold;font-stretch:normal;font-size:80.1212px;line-height:1.25;font-family:Courier;-inkscape-font-specification:'Courier Bold';fill:#4747ff;fill-opacity:1;stroke:none;stroke-width:2.00303">
              <path
                 d="m -418.31151,-344.95629 25.46821,12.0886 q 2.15169,1.01716 3.01237,2.03433 0.86068,0.97804 0.86068,2.38642 0,1.64311 -1.01717,2.66028 -1.01716,1.01716 -2.69939,1.01716 -0.70419,0 -1.56487,-0.23473 -0.82155,-0.23473 -2.03433,-0.78243 l -30.82788,-14.20117 q -0.23473,-0.11737 -0.74331,-0.31298 -4.1469,-1.91696 -4.1469,-4.49899 0,-2.62115 4.34251,-4.61636 l 0.31297,-0.19561 31.06261,-14.47502 q 1.56487,-0.70419 2.30818,-0.8998 0.74331,-0.23473 1.29102,-0.23473 1.68223,0 2.69939,1.01717 1.01717,1.01716 1.01717,2.66027 0,1.40838 -0.8998,2.46467 -0.86068,1.01716 -2.97325,2.03432 z"
                 style="font-style:normal;font-variant:normal;font-weight:bold;font-stretch:normal;font-family:Courier;-inkscape-font-specification:'Courier Bold';fill:#4747ff;fill-opacity:1;stroke-width:2.00303"
                 id="path2806" />
              <path
                 d="m -345.66255,-368.89876 -22.92531,49.09771 q -1.05628,2.30818 -1.95608,3.20798 -0.8998,0.8998 -2.11257,0.8998 -1.7996,0 -3.20798,-1.13453 -1.36926,-1.13453 -1.36926,-2.81676 0,-1.13453 1.05629,-3.52095 l 0.0782,-0.15649 22.88618,-49.01946 q 1.09541,-2.38643 1.99521,-3.28622 0.8998,-0.8998 2.11257,-0.8998 1.76048,0 3.16886,1.13453 1.40838,1.13452 1.40838,2.81676 0,0.70419 -0.23473,1.48662 -0.23473,0.78243 -0.8998,2.19081 z"
                 style="font-style:normal;font-variant:normal;font-weight:bold;font-stretch:normal;font-family:Courier;-inkscape-font-specification:'Courier Bold';fill:#4747ff;fill-opacity:1;stroke-width:2.00303"
                 id="path2808" />
              <path
                 d="m -304.50654,-344.95629 -25.50734,-12.0886 q -2.07345,-1.01716 -2.97325,-2.03432 -0.86067,-1.05629 -0.86067,-2.46467 0,-1.64311 0.97804,-2.66027 0.97804,-1.01717 2.62115,-1.01717 0.62595,0 1.40838,0.23473 0.82156,0.23473 2.30818,0.8998 l 30.98437,14.47502 0.31297,0.19561 q 4.34251,1.99521 4.34251,4.61636 0,2.62115 -4.18602,4.49899 -0.39122,0.23473 -0.62595,0.31298 l -30.94524,14.20117 q -1.17366,0.5477 -2.03433,0.78243 -0.82156,0.23473 -1.56487,0.23473 -1.64311,0 -2.62115,-0.97804 -0.97804,-1.01717 -0.97804,-2.6994 0,-1.40838 0.82155,-2.38642 0.86068,-1.01717 3.01237,-2.03433 z"
                 style="font-style:normal;font-variant:normal;font-weight:bold;font-stretch:normal;font-family:Courier;-inkscape-font-specification:'Courier Bold';fill:#4747ff;fill-opacity:1;stroke-width:2.00303"
                 id="path2810" />
            </g>
          </g>
        </g>
        <g
           id="g2934"
           transform="matrix(0.27957738,0,0,0.27957738,-1333.134,859.20408)">
          <path
             id="path2902"
             style="fill:#ffffff;fill-opacity:1;stroke:none;stroke-width:3.81397"
             d="m 526.15256,1238.3583 a 47.688447,45.417571 0 0 0 -47.63394,45.4185 47.688447,45.417571 0 0 0 0.95067,9.0197 31.792301,31.792301 0 0 0 -31.72966,31.7931 31.792301,31.792301 0 0 0 31.79168,31.7916 31.792301,31.792301 0 0 0 1.25209,-0.024 v 0.024 h 148.17082 v -0.021 a 32.92774,31.792301 0 0 0 1.19152,0.021 32.92774,31.792301 0 0 0 32.92832,-31.7916 32.92774,31.792301 0 0 0 -32.92832,-31.7931 32.92774,31.792301 0 0 0 -11.53806,2.017 37.469497,34.063177 0 0 0 -36.58034,-26.6875 37.469497,34.063177 0 0 0 -10.54794,1.3775 47.688447,45.417571 0 0 0 -45.27196,-31.1452 47.688447,45.417571 0 0 0 -0.0549,0 z" />
          <g
             id="g2908"
             transform="translate(4,12)">
            <rect
               style="fill:#000000;fill-opacity:1;stroke:none;stroke-width:6.8"
               id="rect2904"
               width="5.3695564"
               height="45.641232"
               x="531.73248"
               y="1172.7556" />
            <circle
               style="fill:#fece00;fill-opacity:1;stroke:none;stroke-width:1.28649"
               id="circle2906"
               cx="533.75403"
               cy="1168.2329"
               r="18.793447" />
          </g>
          <g
             id="g2914"
             transform="rotate(57.163902,534.79124,1309.5243)">
            <rect
               style="fill:#000000;fill-opacity:1;stroke:none;stroke-width:6.8"
               id="rect2910"
               width="5.3695564"
               height="45.641232"
               x="531.73248"
               y="1172.7556" />
            <circle
               style="fill:#fece00;fill-opacity:1;stroke:none;stroke-width:1.28649"
               id="circle2912"
               cx="533.75403"
               cy="1168.2329"
               r="18.793447" />
          </g>
          <g
             id="g2920"
             transform="rotate(-69.068347,532.06189,1289.3902)">
            <rect
               style="fill:#000000;fill-opacity:1;stroke:none;stroke-width:6.8"
               id="rect2916"
               width="5.3695564"
               height="45.641232"
               x="531.73248"
               y="1172.7556" />
            <circle
               style="fill:#fece00;fill-opacity:1;stroke:none;stroke-width:1.28649"
               id="circle2918"
               cx="533.75403"
               cy="1168.2329"
               r="18.793447" />
          </g>
          <g
             id="g2926"
             transform="rotate(138.74431,537.22887,1305.1046)">
            <rect
               style="fill:#000000;fill-opacity:1;stroke:none;stroke-width:6.8"
               id="rect2922"
               width="5.3695564"
               height="45.641232"
               x="531.73248"
               y="1172.7556" />
            <circle
               style="fill:#fece00;fill-opacity:1;stroke:none;stroke-width:1.28649"
               id="circle2924"
               cx="533.75403"
               cy="1168.2329"
               r="18.793447" />
          </g>
          <g
             id="g2932"
             transform="rotate(-136.94961,546.78631,1299.8632)">
            <rect
               style="fill:#000000;fill-opacity:1;stroke:none;stroke-width:6.8"
               id="rect2928"
               width="5.3695564"
               height="45.641232"
               x="531.73248"
               y="1172.7556" />
            <circle
               style="fill:#fece00;fill-opacity:1;stroke:none;stroke-width:1.28649"
               id="circle2930"
               cx="533.75403"
               cy="1168.2329"
               r="18.793447" />
          </g>
        </g>
        <rect
           style="fill:#fece00;fill-opacity:1;stroke:none;stroke-width:5.22297"
           id="rect2936"
           width="137.36871"
           height="218.67056"
           x="1027.4845"
           y="1471.3176"
           rx="15.374911"
           ry="15.348459" />
        <rect
           style="fill:#ffffff;fill-opacity:1;stroke:none;stroke-width:7.15535"
           id="rect2938"
           width="138.13614"
           height="170.50493"
           x="1027.1008"
           y="1494.3861" />
        <rect
           style="fill:#4747ff;fill-opacity:1;stroke:none;stroke-width:5.21848"
           id="rect2940"
           width="38.222931"
           height="50.037292"
           x="1039.9773"
           y="1515.1418" />
        <rect
           style="fill:#000000;fill-opacity:1;stroke:none;stroke-width:4.52877"
           id="rect2942"
           width="53.719608"
           height="4.1213646"
           x="1098.1533"
           y="1515.1418" />
        <rect
           style="fill:#000000;fill-opacity:1;stroke:none;stroke-width:4.52877"
           id="rect2944"
           width="53.719608"
           height="4.1213646"
           x="1098.1533"
           y="1541.2341" />
        <rect
           style="fill:#000000;fill-opacity:1;stroke:none;stroke-width:4.52877"
           id="rect2946"
           width="53.719608"
           height="4.1213646"
           x="1098.1533"
           y="1567.3265" />
        <rect
           style="fill:#000000;fill-opacity:1;stroke:none;stroke-width:6.56004"
           id="rect2948"
           width="112.71564"
           height="4.1213646"
           x="1039.557"
           y="1593.4188" />
        <rect
           style="fill:#000000;fill-opacity:1;stroke:none;stroke-width:6.56004"
           id="rect2950"
           width="112.71564"
           height="4.1213646"
           x="1039.557"
           y="1619.5112" />
        <path
           id="path2962"
           style="fill:#ffffff;fill-opacity:1;stroke:none;stroke-width:11.215"
           d="m -1180.5464,1462.0112 -12.0024,11.9127 -11.9125,-12.0025 -2.3983,2.3802 11.9125,12.0025 -12.0023,11.9125 2.3831,2.4012 12.0023,-11.9127 11.9127,12.0023 2.3981,-2.3802 -11.9125,-12.0024 12.0023,-11.9125 z" />
        <path
           id="path2964"
           style="fill:#000000;fill-opacity:1;stroke:none;stroke-width:5.58145"
           d="m 222.1908,1576.4259 -5.9733,5.9287 -5.9286,-5.9734 -1.1936,1.1846 5.9286,5.9734 -5.9733,5.9286 1.186,1.195 5.9733,-5.9287 5.9287,5.9733 1.1935,-1.1846 -5.9286,-5.9733 5.9733,-5.9286 z" />
        <path
           id="path2966"
           style="fill:#fece00;fill-opacity:1;stroke:none;stroke-width:5.58145"
           d="m 482.19082,1436.4259 -5.97333,5.9287 -5.92863,-5.9734 -1.19356,1.1846 5.92864,5.9734 -5.97333,5.9286 1.186,1.195 5.97333,-5.9287 5.92863,5.9733 1.19356,-1.1846 -5.92864,-5.9733 5.97333,-5.9286 z" />
        <g
           id="g3000"
           transform="matrix(0.33149579,0,0,0.33149579,228.34705,1312.8323)">
          <path
             id="path2968"
             style="fill:#ffffff;fill-opacity:1;stroke:none;stroke-width:3.81397"
             d="m 526.15256,1238.3583 a 47.688447,45.417571 0 0 0 -47.63394,45.4185 47.688447,45.417571 0 0 0 0.95067,9.0197 31.792301,31.792301 0 0 0 -31.72966,31.7931 31.792301,31.792301 0 0 0 31.79168,31.7916 31.792301,31.792301 0 0 0 1.25209,-0.024 v 0.024 h 148.17082 v -0.021 a 32.92774,31.792301 0 0 0 1.19152,0.021 32.92774,31.792301 0 0 0 32.92832,-31.7916 32.92774,31.792301 0 0 0 -32.92832,-31.7931 32.92774,31.792301 0 0 0 -11.53806,2.017 37.469497,34.063177 0 0 0 -36.58034,-26.6875 37.469497,34.063177 0 0 0 -10.54794,1.3775 47.688447,45.417571 0 0 0 -45.27196,-31.1452 47.688447,45.417571 0 0 0 -0.0549,0 z" />
          <g
             id="g2974"
             transform="translate(4,12)">
            <rect
               style="fill:#000000;fill-opacity:1;stroke:none;stroke-width:6.8"
               id="rect2970"
               width="5.3695564"
               height="45.641232"
               x="531.73248"
               y="1172.7556" />
            <circle
               style="fill:#fece00;fill-opacity:1;stroke:none;stroke-width:1.28649"
               id="circle2972"
               cx="533.75403"
               cy="1168.2329"
               r="18.793447" />
          </g>
          <g
             id="g2980"
             transform="rotate(57.163902,534.79124,1309.5243)">
            <rect
               style="fill:#000000;fill-opacity:1;stroke:none;stroke-width:6.8"
               id="rect2976"
               width="5.3695564"
               height="45.641232"
               x="531.73248"
               y="1172.7556" />
            <circle
               style="fill:#fece00;fill-opacity:1;stroke:none;stroke-width:1.28649"
               id="circle2978"
               cx="533.75403"
               cy="1168.2329"
               r="18.793447" />
          </g>
          <g
             id="g2986"
             transform="rotate(-69.068347,532.06189,1289.3902)">
            <rect
               style="fill:#000000;fill-opacity:1;stroke:none;stroke-width:6.8"
               id="rect2982"
               width="5.3695564"
               height="45.641232"
               x="531.73248"
               y="1172.7556" />
            <circle
               style="fill:#fece00;fill-opacity:1;stroke:none;stroke-width:1.28649"
               id="circle2984"
               cx="533.75403"
               cy="1168.2329"
               r="18.793447" />
          </g>
          <g
             id="g2992"
             transform="rotate(138.74431,537.22887,1305.1046)">
            <rect
               style="fill:#000000;fill-opacity:1;stroke:none;stroke-width:6.8"
               id="rect2988"
               width="5.3695564"
               height="45.641232"
               x="531.73248"
               y="1172.7556" />
            <circle
               style="fill:#fece00;fill-opacity:1;stroke:none;stroke-width:1.28649"
               id="circle2990"
               cx="533.75403"
               cy="1168.2329"
               r="18.793447" />
          </g>
          <g
             id="g2998"
             transform="rotate(-136.94961,546.78631,1299.8632)">
            <rect
               style="fill:#000000;fill-opacity:1;stroke:none;stroke-width:6.8"
               id="rect2994"
               width="5.3695564"
               height="45.641232"
               x="531.73248"
               y="1172.7556" />
            <circle
               style="fill:#fece00;fill-opacity:1;stroke:none;stroke-width:1.28649"
               id="circle2996"
               cx="533.75403"
               cy="1168.2329"
               r="18.793447" />
          </g>
        </g>
        <g
           id="g4865"
           transform="matrix(0.26493983,0,0,0.26493983,-206.00171,1201.9475)"
           style="stroke:#000000;stroke-opacity:1;stroke-width:11.32332556;stroke-miterlimit:4;stroke-dasharray:none">
          <path
             sodipodi:nodetypes="cccc"
             inkscape:connector-curvature="0"
             id="path1099"
             d="m -53.036938,1478.0506 84.974008,175.6675 40.035827,-87.4252 z"
             style="fill:#fece00;fill-opacity:1;stroke:#000000;stroke-width:11.32332556;stroke-opacity:1;stroke-miterlimit:4;stroke-dasharray:none"
             inkscape:export-xdpi="13.755924"
             inkscape:export-ydpi="13.755924" />
          <path
             sodipodi:nodetypes="cccc"
             inkscape:connector-curvature="0"
             id="path1101"
             d="M 4.1570954,1753.3991 138.15458,1453.5389 138.97162,1624.304 Z"
             style="fill:#4747ff;fill-opacity:1;stroke:#000000;stroke-width:11.32332556;stroke-opacity:1;stroke-miterlimit:4;stroke-dasharray:none"
             inkscape:export-xdpi="13.755924"
             inkscape:export-ydpi="13.755924" />
        </g>
      </g>
    </g>
  </g>
</svg>
