<?xml version="1.0" encoding="UTF-8" standalone="no"?>
<svg
   xmlns:dc="http://purl.org/dc/elements/1.1/"
   xmlns:cc="http://creativecommons.org/ns#"
   xmlns:rdf="http://www.w3.org/1999/02/22-rdf-syntax-ns#"
   xmlns:svg="http://www.w3.org/2000/svg"
   xmlns="http://www.w3.org/2000/svg"
   xmlns:sodipodi="http://sodipodi.sourceforge.net/DTD/sodipodi-0.dtd"
   xmlns:inkscape="http://www.inkscape.org/namespaces/inkscape"
   width="2560"
   height="700"
   viewBox="0 0 677.33332 185.20834"
   version="1.1"
   id="svg1231"
   inkscape:export-filename="/Users/mehmet/Downloads/img-4.png"
   inkscape:export-xdpi="95.987198"
   inkscape:export-ydpi="95.987198"
   sodipodi:docname="rocket-science.svg"
   inkscape:version="1.0.2 (e86c8708, 2021-01-15)">
  <defs
     id="defs1225" />
  <sodipodi:namedview
     id="base"
     pagecolor="#ffffff"
     bordercolor="#666666"
     borderopacity="1.0"
     inkscape:pageopacity="0.0"
     inkscape:pageshadow="2"
     inkscape:zoom="0.24217663"
     inkscape:cx="228.10783"
     inkscape:cy="802.85783"
     inkscape:document-units="px"
     inkscape:current-layer="g3431"
     inkscape:document-rotation="0"
     showgrid="false"
     units="px"
     inkscape:window-width="1680"
     inkscape:window-height="923"
     inkscape:window-x="0"
     inkscape:window-y="23"
     inkscape:window-maximized="0" />
  <metadata
     id="metadata1228">
    <rdf:RDF>
      <cc:Work
         rdf:about="">
        <dc:format>image/svg+xml</dc:format>
        <dc:type
           rdf:resource="http://purl.org/dc/dcmitype/StillImage" />
        <dc:title></dc:title>
      </cc:Work>
    </rdf:RDF>
  </metadata>
  <g
     inkscape:label="Layer 1"
     inkscape:groupmode="layer"
     id="layer1">
    <g
       id="g3454">
      <g
         id="g3431"
         transform="matrix(0.26458334,0,0,0.26458334,326.89662,-278.55003)">
        <rect
           style="opacity:1;fill:#69d4dc;fill-opacity:1;stroke:none;stroke-width:3.18327;stroke-opacity:1"
           id="rect3427"
           width="2560"
           height="700"
           x="-1235.5148"
           y="1052.7875" />
        <g
           id="g4000"
           style="fill:#4747ff;fill-opacity:1"
           transform="translate(676.39006,-710.0858)">
          <path
             id="path3988"
             style="fill:#4747ff;stroke-width:0.896043;fill-opacity:1"
             d="m -430.85156,974.50977 c -11.19506,0.0992 -23.83008,2.56142 -23.83008,5.19335 0,0.60995 2.31864,1.83014 5.15234,2.71094 16.2477,5.0494 29.52043,17.89244 32.57813,31.52344 1.4893,6.6401 0.19154,9.7029 -6.35156,14.9883 -2.9471,2.3804 -6.64385,6.3122 -8.21485,8.7363 -1.5709,2.4245 -2.97634,4.4082 -3.12304,4.4082 -0.14685,0 -2.80154,-1.6447 -5.89844,-3.6562 -7.0179,-4.5584 -19.90493,-10.8394 -27.58203,-13.4414 -12.8431,-4.3531 -30.5986,-3.166 -50.1211,3.3535 -13.1373,4.387 -14.6175,5.9766 -6.5332,7.0156 11.2568,1.4469 16.04871,3.6889 30.50391,14.2676 l 7.45117,5.4531 -5.03516,0.6465 c -2.7691,0.3549 -8.54172,2.0577 -12.82812,3.7832 -20.606,8.2939 -22.12891,9.0396 -22.12891,10.8418 0,1.6391 0.87921,1.7901 13.44141,2.2949 7.3923,0.2966 15.30192,0.992 17.57812,1.5449 7.1315,1.7334 19.01498,5.6648 22.55078,7.461 3.2225,1.6371 3.78306,3.4453 1.06836,3.4453 -0.6916,0 -3.59116,0.8696 -6.44336,1.9316 -4.5413,1.6907 -6.94043,3.6916 -19.29883,16.0938 -7.762,7.7895 -14.11132,14.5935 -14.11132,15.1211 0,1.8665 2.55521,1.8916 8.63281,0.082 9.0225,-2.6867 41.06381,-9.0352 45.59961,-9.0352 2.147,0 4.21224,0.5006 4.58984,1.1114 1.1558,1.8701 0.51192,16.8401 -1.05078,24.4257 -1.7218,8.3583 -6.2839,19.847 -11.2793,28.4004 -3.091,5.2927 -6.17706,8.5536 -14.00586,14.7989 -1.3444,1.0723 -1.75664,1.9997 -1.24414,2.7988 1.6271,2.5384 18.9591,-8.4265 25.7168,-16.2695 1.7733,-2.058 4.84035,-6.4968 6.81445,-9.8614 1.974,-3.3646 3.8009,-5.9059 4.0586,-5.6484 0.7616,0.7615 -1.42955,11.8135 -3.90235,19.6895 -2.706,8.6187 -12.02948,27.3626 -15.67578,31.5156 -2.4434,2.7829 -3.16025,4.91 -2.03515,6.0351 0.7262,0.7261 5.25737,-1.2444 18.57617,-8.0742 9.7294,-4.9895 12.28266,-6.7596 16.72656,-11.6094 5.9069,-6.4463 11.83254,-17.0979 13.90234,-24.9863 1.7559,-6.6924 4.92832,-31.3512 4.94532,-38.4375 0.007,-2.9572 0.25217,-6.2744 0.54687,-7.373 0.493,-1.839 0.68564,-1.8919 2.42774,-0.6719 3.1926,2.2363 19.26588,1.1108 30.61328,-2.1426 2.2127,-0.6343 3.24272,-0.3615 5.82422,1.5371 4.1408,3.0451 5.07572,4.2176 7.66797,9.6231 5.6309,11.7431 2.878,29.352 -6.8086,43.5429 -2.2172,3.2482 -3.37422,5.747 -2.88672,6.2344 1.247,1.247 11.59939,-2.2938 17.96289,-6.1426 6.5902,-3.9861 14.35686,-11.4207 18.22266,-17.4453 6.1256,-9.5459 9.74805,-25.6389 9.74805,-43.3027 v -10.9785 l 15.45703,-7.6328 c 23.6853,-11.6969 38.47952,-21.6301 56.94922,-38.2364 22.9703,-20.6529 44.97656,-50.48864 44.97656,-60.98044 0,-2.7323 -0.59109,-3.90681 -3.05469,-6.07031 -6.4981,-5.7055 -17.83303,-7.76643 -42.64453,-7.73243 -19.1112,0.0222 -26.32232,0.6448 -47.04102,4.0586 -21.1102,3.4778 -52.12878,12.3931 -67.95898,19.5332 -3.3726,1.52078 -6.60941,2.76558 -7.19141,2.76558 -0.582,0 -2.81805,-2.41559 -4.96875,-5.36909 -9.2167,-12.6565 -21.8511,-19.51271 -39.6875,-21.53321 -2.25723,-0.25573 -4.76418,-0.35883 -7.34765,-0.33593 z m -0.19141,3.22461 c 14.90189,-0.15834 26.15878,3.39096 36.14063,11.32812 4.4756,3.5586 11.90429,12.3793 11.90429,14.1348 0,0.4613 -3.43937,2.5443 -7.64257,4.6289 -4.20324,2.0847 -10.88817,5.8049 -14.85547,8.2656 -3.9674,2.4604 -7.32635,4.4727 -7.46485,4.4727 -0.1384,0 -0.47826,-2.2006 -0.75586,-4.8907 -0.648,-6.2781 -5.8497,-16.29823 -11.4414,-22.03903 -4.7898,-4.9176 -12.27979,-9.94496 -18.39649,-12.34766 -5.6631,-2.2245 -3.78358,-2.9116 9.48242,-3.4707 1.02658,-0.0433 2.03584,-0.0715 3.0293,-0.082 z m 174.1875,0.46679 c 18.07565,0.0301 29.91793,1.64278 37.32813,5.03516 5.9059,2.7039 6.85096,4.96309 4.57226,10.92969 -2.805,7.34478 -13.55545,22.66638 -24.96875,35.58398 -3.5661,4.0363 -5.97217,6.0218 -7.23047,5.9668 -7.8939,-0.3381 -15.87461,-7.3782 -21.60351,-19.0586 -2.2091,-4.504 -4.62304,-10.5939 -5.36524,-13.5312 -1.7169,-6.7954 -1.74198,-17.52081 -0.0508,-21.56841 l 1.29883,-3.10742 7.88477,-0.16601 c 2.84188,-0.0597 5.55253,-0.0883 8.13476,-0.084 z m -20.2793,0.88672 -0.73632,3.49023 c -1.1408,5.40193 -0.68516,15.43133 0.99414,21.85738 4.044,15.4753 13.45915,28.7216 23.18945,32.627 l 5.20703,2.0898 -7.89648,7.2364 c -4.3424,3.9798 -10.71827,9.5061 -14.16797,12.2812 -29.139,23.4403 -83.57356,47.814 -120.06836,53.7617 -8.8465,1.4419 -13.8271,1.65 -15.2832,0.6368 -0.5204,-0.3621 -0.97668,-2.8772 -1.01368,-5.5879 -0.0919,-6.779 -2.58248,-13.577 -12.80468,-34.9453 -10.759,-22.4901 -11.66993,-24.6594 -11.66993,-27.8067 0,-7.7221 23.80431,-25.9854 49.28321,-37.8125 30.1588,-13.99954 67.98703,-24.50195 97.95703,-27.19725 z m -210.29882,46.10551 c 13.81164,-0.022 26.77876,4.8336 44.61132,15.3828 6.5398,3.8689 7.99378,5.1454 8.83008,7.7656 0.5506,1.7249 5.1887,11.8893 10.3086,22.5859 12.3474,25.7967 16.45542,38.3457 12.54882,38.3457 -1.7593,0 -3.22461,4.7604 -3.22461,10.4805 0,5.9452 -2.38918,27.0926 -4.05078,35.8535 -1.5565,8.2083 -4.46711,15.4103 -8.97461,22.211 -5.3538,8.0774 -9.41506,11.501 -20.41406,17.207 v 0 c -5.5105,2.8586 -10.51339,5.3268 -11.11719,5.4825 -0.6039,0.1573 0.49646,-2.4397 2.44336,-5.7715 8.7834,-15.0306 15.69369,-35.7503 14.99219,-44.9473 -0.3738,-4.8994 -1.56959,-7.1131 -3.27539,-6.0586 -0.5413,0.3344 -2.84032,3.8237 -5.10742,7.7539 -4.1705,7.2305 -11.61619,16.1877 -14.92969,17.961 l -1.80664,0.9687 1.81445,-2.5683 c 11.6284,-16.4568 19.29829,-50.7957 13.36719,-59.8477 -1.2835,-1.9579 -1.81421,-2.0749 -7.47461,-1.6484 -4.944,0.3722 -35.98751,6.455 -45.07031,8.832 -1.5707,0.4109 1.37307,-3.0696 9.85547,-11.6524 l 12.09765,-12.2402 8.73633,-2.7266 c 5.3343,-1.6638 8.73633,-3.1907 8.73633,-3.9218 0,-1.8932 -8.42485,-6.5812 -16.96875,-9.4434 -11.9047,-3.9885 -20.18184,-5.4951 -30.46094,-5.5351 l -9.34961,-0.037 10.5,-4.3886 c 14.3394,-5.9915 19.41061,-7.2406 24.65821,-6.0703 2.281,0.5091 5.06208,1.5209 6.17968,2.25 1.8104,1.1817 2.09168,1.173 2.57618,-0.09 0.6279,-1.6358 -2.76765,-4.786 -15.62305,-14.4941 -10.2706,-7.7561 -21.44568,-13.6847 -26.01758,-13.8067 -2.8401,-0.075 -2.20853,-0.4458 4.60547,-2.6992 10.12631,-3.3487 18.71692,-5.1174 27.00391,-5.1308 z m 155.87109,72.4355 c 0.4687,0 0.58238,5.3677 0.27148,12.7637 -0.6277,14.9321 -3.33533,27.1047 -7.96093,35.7832 -3.7358,7.0093 -12.29256,15.6067 -19.19336,19.2851 -6.161,3.2837 -10.52334,5.0579 -10.02344,4.0782 8.3933,-16.4542 10.1718,-23.0097 9.4375,-34.7793 -0.562,-9.0088 -3.33956,-15.5797 -8.59766,-20.3301 l -3.39648,-3.0664 10.4043,-3.3516 c 5.722,-1.8437 14.41847,-4.9325 19.32617,-6.8652 4.9078,-1.9328 9.28742,-3.5176 9.73242,-3.5176 z"
             transform="translate(-1235.5148,1052.7875)" />
          <path
             style="fill:#4747ff;stroke-width:0.896043;fill-opacity:1"
             d="m -1829.5678,2162.8974 c -0.3247,-0.5257 -0.4205,-1.1259 -0.2127,-1.3339 0.208,-0.2065 14.4171,-5.8504 31.5761,-12.5392 18.5707,-7.2393 31.5256,-11.8342 32.0073,-11.3524 0.4818,0.4821 0.3407,1.1941 -0.3487,1.76 -1.0886,0.8938 -60.7085,24.421 -61.8847,24.421 -0.3007,0 -0.8124,-0.4301 -1.1373,-0.9555 z"
             id="path3990" />
          <path
             style="fill:#4747ff;stroke-width:0.896043;fill-opacity:1"
             d="m -1805.7857,2190.3822 c 0,-0.7553 4.5015,-3.0855 11.4245,-5.9142 6.2835,-2.567 14.2396,-5.8368 17.68,-7.2658 6.998,-2.9068 8.5294,-3.1538 8.5294,-1.3751 0,1.075 -34.2659,15.8017 -36.7669,15.8017 -0.4768,0 -0.867,-0.5612 -0.867,-1.2466 z"
             id="path3992" />
          <path
             style="fill:#4747ff;stroke-width:0.896043;fill-opacity:1"
             d="m -1803.9937,2223.6308 c 0,-1.5637 59.0552,-25.2746 60.1708,-24.1589 0.5177,0.5176 0.3952,1.1987 -0.3217,1.7884 -1.4598,1.2003 -57.1787,23.5234 -58.7149,23.5234 -0.6238,0 -1.1342,-0.5187 -1.1342,-1.1529 z"
             id="path3994" />
          <path
             id="path3996"
             style="fill:#4747ff;stroke-width:0.896043;fill-opacity:1"
             d="m -371.26562,1029.1289 c -3.68946,-0.01 -7.41104,0.7495 -10.92188,2.3633 -6.991,3.2132 -10.22692,6.3275 -13.51172,13 -2.4209,4.9175 -2.89266,6.8821 -2.84766,11.8398 0.0967,10.5585 5.4964,18.972 15.0918,23.5118 4.3198,2.0436 6.6261,2.5468 11.6582,2.5468 10.78101,0 19.51076,-5.4395 24.84766,-15.4804 1.6257,-3.0586 2.01344,-5.2432 2.02344,-11.4004 0.01,-6.8697 -0.26328,-8.0979 -2.76758,-12.543 -4.92854,-8.7476 -14.14366,-13.8118 -23.57226,-13.8379 z m -0.19141,3.209 c 0.81742,0.01 1.66212,0.048 2.53711,0.1172 14.8428,1.1786 24.65707,15.3353 20.51367,29.5879 -1.991,6.8491 -7.97635,13.3768 -14.50195,15.8183 -9.122,3.4129 -18.93182,1.5019 -25.57032,-4.9804 -10.3566,-10.1131 -9.1262,-26.9451 2.625,-35.9082 4.27587,-3.2615 8.67451,-4.6987 14.39649,-4.6348 z"
             transform="translate(-1235.5148,1052.7875)" />
          <path
             id="path3998"
             style="fill:#4747ff;stroke-width:0.896043;fill-opacity:1"
             d="m -304.56445,1008.9785 c -8.53455,-0.229 -17.42785,5.0381 -19.81641,14.2461 -0.653,2.518 -1.03797,5.0674 -0.85547,5.6641 0.1824,0.597 0.57259,2.1869 0.86719,3.5332 0.6968,3.1827 5.56586,8.6925 9.00586,10.1914 1.4877,0.6483 5.16136,1.1789 8.16406,1.2129 7.2734,0.047 12.33927,-2.5938 16.35547,-8.5274 2.7848,-4.1142 2.97462,-4.8515 2.66602,-10.3535 -0.2709,-4.833 -0.80404,-6.5404 -2.89454,-9.2812 -3.38051,-4.4321 -8.37145,-6.5481 -13.49218,-6.6856 z m -1.39258,2.9492 c 2.4084,-0.059 4.84929,0.4439 7.13476,1.6348 5.7781,3.0108 7.66993,6.042 7.66993,12.291 0,4.3024 -0.42974,5.7161 -2.58594,8.543 -1.4212,1.8634 -4.24299,4.1413 -6.27149,5.0625 v 0 c -4.8155,2.1887 -9.9906,2.1532 -14.4414,-0.098 -4.7332,-2.3933 -6.91808,-5.5806 -7.42188,-10.8242 -0.86414,-8.9936 7.31459,-16.3953 15.91602,-16.6075 z"
             transform="translate(-1235.5148,1052.7875)" />
        </g>
        <g
           id="g4010"
           transform="matrix(0.61553336,0,0,0.61553336,-559.92753,-145.41293)"
           style="fill:#ffffff;fill-opacity:1">
          <path
             style="fill:#ffffff;stroke-width:0.896043;fill-opacity:1"
             d="m -858.23661,2252.056 c 0.57196,-1.7607 49.25736,-23.2423 50.30377,-22.1961 0.48665,0.4868 0.71007,1.0517 0.49651,1.2556 -0.84276,0.8042 -49.12863,22.0603 -50.11307,22.0603 -0.57813,0 -0.88736,-0.5038 -0.68721,-1.1198 z"
             id="path4002" />
          <path
             style="fill:#ffffff;stroke-width:0.896043;fill-opacity:1"
             d="m -829.74781,2253.8479 c 0.0305,-1.1209 25.34641,-13.2585 27.59814,-13.2313 3.31774,0.04 -0.76028,2.7249 -12.45111,8.1963 -13.50676,6.3215 -15.19639,6.8831 -15.14703,5.035 z"
             id="path4004" />
          <path
             id="path4006"
             style="fill:#ffffff;stroke-width:0.896043;fill-opacity:1"
             d="m 462.16406,1116.832 c -0.0608,-0.013 -0.10731,0 -0.13867,0.027 -0.4534,0.4536 -3.00238,7.9899 -5.66601,16.748 -2.66363,8.7583 -4.96214,16.0102 -5.10743,16.1153 -0.14533,0.1044 -3.94674,1.457 -8.44726,3.0058 -17.89283,6.157 -23.62769,8.4488 -23.61719,9.4395 0.006,0.5692 6.45709,5.2684 14.33594,10.4433 l 14.32617,9.4082 v 17.0996 c 4.4e-4,9.4045 0.27111,17.3688 0.59961,17.6973 v 0.01 c 0.32856,0.3298 0.76818,0.5976 0.97851,0.5976 0.2104,0 5.80794,-4.1339 12.4375,-9.1855 6.62959,-5.0513 12.77817,-9.6955 13.66407,-10.3203 1.35394,-0.9549 3.81194,-0.4852 15.41601,2.9433 7.59273,2.2437 14.93102,4.4543 16.3086,4.9121 1.864,0.6198 2.62223,0.5287 2.96289,-0.3593 0.25176,-0.656 -2.18498,-8.0968 -5.41602,-16.5332 -3.23105,-8.436 -5.875,-15.6735 -5.875,-16.084 0,-0.4108 4.43634,-6.7588 9.85742,-14.1055 5.4211,-7.3465 9.85547,-13.8953 9.85547,-14.5527 0,-0.9743 -2.43997,-1.062 -13.21679,-0.4785 -7.26919,0.3939 -15.2068,0.7246 -17.63868,0.7246 h -4.42187 l -10.25586,-14.1739 c -5.85273,-8.0895 -10.02875,-13.187 -10.94141,-13.3789 z m 0.99414,5.211 c 0.28752,-0.2784 4.7131,5.3729 9.83399,12.5586 l 9.31054,13.0644 9.43165,-0.5449 c 5.18733,-0.2995 12.57932,-0.7786 16.42773,-1.0664 l 6.99805,-0.5215 -9.81641,13.2754 c -8.87553,12.0033 -9.73325,13.4943 -8.93555,15.5547 5.74954,14.8517 10.61808,28.0671 10.40235,28.2363 -0.14794,0.1163 -6.72027,-1.7381 -14.60547,-4.123 -7.88518,-2.3848 -14.75628,-4.3477 -15.26953,-4.3477 -0.51326,-0.01 -6.47848,4.2221 -13.25586,9.3965 -6.77741,5.1747 -12.50561,9.4082 -12.73047,9.4082 -0.22508,0 -0.41016,-7.2525 -0.41016,-16.1152 v -16.1133 l -13.62695,-9.1153 -13.62695,-9.1132 8.47461,-3.0118 c 4.66135,-1.6565 11.49914,-4.1282 15.19531,-5.4921 l 6.7207,-2.4805 4.48047,-14.4727 c 2.46414,-7.9596 4.71443,-14.6987 5.00195,-14.9765 z"
             transform="translate(-1235.5148,1052.7875)" />
          <path
             style="fill:#ffffff;stroke-width:0.896043;fill-opacity:1"
             d="m -827.98561,2269.309 c 0,-1.0303 31.56053,-17.0297 33.59227,-17.0297 3.78728,0 -0.13411,2.5955 -14.9456,9.8915 -16.05415,7.9086 -18.64667,8.9011 -18.64667,7.1382 z"
             id="path4008" />
        </g>
        <g
           id="g4020"
           transform="matrix(0.61553336,0,0,0.61553336,-566.94178,289.84733)"
           style="fill:#ffffff;fill-opacity:1">
          <path
             style="fill:#ffffff;stroke-width:0.896043;fill-opacity:1"
             d="m -858.23661,2252.056 c 0.57196,-1.7607 49.25736,-23.2423 50.30377,-22.1961 0.48665,0.4868 0.71007,1.0517 0.49651,1.2556 -0.84276,0.8042 -49.12863,22.0603 -50.11307,22.0603 -0.57813,0 -0.88736,-0.5038 -0.68721,-1.1198 z"
             id="path4012" />
          <path
             style="fill:#ffffff;stroke-width:0.896043;fill-opacity:1"
             d="m -829.74781,2253.8479 c 0.0305,-1.1209 25.34641,-13.2585 27.59814,-13.2313 3.31774,0.04 -0.76028,2.7249 -12.45111,8.1963 -13.50676,6.3215 -15.19639,6.8831 -15.14703,5.035 z"
             id="path4014" />
          <path
             id="path4016"
             style="fill:#ffffff;stroke-width:0.896043;fill-opacity:1"
             d="m 462.16406,1116.832 c -0.0608,-0.013 -0.10731,0 -0.13867,0.027 -0.4534,0.4536 -3.00238,7.9899 -5.66601,16.748 -2.66363,8.7583 -4.96214,16.0102 -5.10743,16.1153 -0.14533,0.1044 -3.94674,1.457 -8.44726,3.0058 -17.89283,6.157 -23.62769,8.4488 -23.61719,9.4395 0.006,0.5692 6.45709,5.2684 14.33594,10.4433 l 14.32617,9.4082 v 17.0996 c 4.4e-4,9.4045 0.27111,17.3688 0.59961,17.6973 v 0.01 c 0.32856,0.3298 0.76818,0.5976 0.97851,0.5976 0.2104,0 5.80794,-4.1339 12.4375,-9.1855 6.62959,-5.0513 12.77817,-9.6955 13.66407,-10.3203 1.35394,-0.9549 3.81194,-0.4852 15.41601,2.9433 7.59273,2.2437 14.93102,4.4543 16.3086,4.9121 1.864,0.6198 2.62223,0.5287 2.96289,-0.3593 0.25176,-0.656 -2.18498,-8.0968 -5.41602,-16.5332 -3.23105,-8.436 -5.875,-15.6735 -5.875,-16.084 0,-0.4108 4.43634,-6.7588 9.85742,-14.1055 5.4211,-7.3465 9.85547,-13.8953 9.85547,-14.5527 0,-0.9743 -2.43997,-1.062 -13.21679,-0.4785 -7.26919,0.3939 -15.2068,0.7246 -17.63868,0.7246 h -4.42187 l -10.25586,-14.1739 c -5.85273,-8.0895 -10.02875,-13.187 -10.94141,-13.3789 z m 0.99414,5.211 c 0.28752,-0.2784 4.7131,5.3729 9.83399,12.5586 l 9.31054,13.0644 9.43165,-0.5449 c 5.18733,-0.2995 12.57932,-0.7786 16.42773,-1.0664 l 6.99805,-0.5215 -9.81641,13.2754 c -8.87553,12.0033 -9.73325,13.4943 -8.93555,15.5547 5.74954,14.8517 10.61808,28.0671 10.40235,28.2363 -0.14794,0.1163 -6.72027,-1.7381 -14.60547,-4.123 -7.88518,-2.3848 -14.75628,-4.3477 -15.26953,-4.3477 -0.51326,-0.01 -6.47848,4.2221 -13.25586,9.3965 -6.77741,5.1747 -12.50561,9.4082 -12.73047,9.4082 -0.22508,0 -0.41016,-7.2525 -0.41016,-16.1152 v -16.1133 l -13.62695,-9.1153 -13.62695,-9.1132 8.47461,-3.0118 c 4.66135,-1.6565 11.49914,-4.1282 15.19531,-5.4921 l 6.7207,-2.4805 4.48047,-14.4727 c 2.46414,-7.9596 4.71443,-14.6987 5.00195,-14.9765 z"
             transform="translate(-1235.5148,1052.7875)" />
          <path
             style="fill:#ffffff;stroke-width:0.896043;fill-opacity:1"
             d="m -827.98561,2269.309 c 0,-1.0303 31.56053,-17.0297 33.59227,-17.0297 3.78728,0 -0.13411,2.5955 -14.9456,9.8915 -16.05415,7.9086 -18.64667,8.9011 -18.64667,7.1382 z"
             id="path4018" />
        </g>
        <g
           id="g4030"
           transform="matrix(0.61553336,0,0,0.61553336,-356.94178,365.84733)"
           style="fill:#000000">
          <path
             style="fill:#000000;stroke-width:0.896043"
             d="m -858.23661,2252.056 c 0.57196,-1.7607 49.25736,-23.2423 50.30377,-22.1961 0.48665,0.4868 0.71007,1.0517 0.49651,1.2556 -0.84276,0.8042 -49.12863,22.0603 -50.11307,22.0603 -0.57813,0 -0.88736,-0.5038 -0.68721,-1.1198 z"
             id="path4022" />
          <path
             style="fill:#000000;stroke-width:0.896043"
             d="m -829.74781,2253.8479 c 0.0305,-1.1209 25.34641,-13.2585 27.59814,-13.2313 3.31774,0.04 -0.76028,2.7249 -12.45111,8.1963 -13.50676,6.3215 -15.19639,6.8831 -15.14703,5.035 z"
             id="path4024" />
          <path
             id="path4026"
             style="fill:#000000;stroke-width:0.896043"
             d="m 462.16406,1116.832 c -0.0608,-0.013 -0.10731,0 -0.13867,0.027 -0.4534,0.4536 -3.00238,7.9899 -5.66601,16.748 -2.66363,8.7583 -4.96214,16.0102 -5.10743,16.1153 -0.14533,0.1044 -3.94674,1.457 -8.44726,3.0058 -17.89283,6.157 -23.62769,8.4488 -23.61719,9.4395 0.006,0.5692 6.45709,5.2684 14.33594,10.4433 l 14.32617,9.4082 v 17.0996 c 4.4e-4,9.4045 0.27111,17.3688 0.59961,17.6973 v 0.01 c 0.32856,0.3298 0.76818,0.5976 0.97851,0.5976 0.2104,0 5.80794,-4.1339 12.4375,-9.1855 6.62959,-5.0513 12.77817,-9.6955 13.66407,-10.3203 1.35394,-0.9549 3.81194,-0.4852 15.41601,2.9433 7.59273,2.2437 14.93102,4.4543 16.3086,4.9121 1.864,0.6198 2.62223,0.5287 2.96289,-0.3593 0.25176,-0.656 -2.18498,-8.0968 -5.41602,-16.5332 -3.23105,-8.436 -5.875,-15.6735 -5.875,-16.084 0,-0.4108 4.43634,-6.7588 9.85742,-14.1055 5.4211,-7.3465 9.85547,-13.8953 9.85547,-14.5527 0,-0.9743 -2.43997,-1.062 -13.21679,-0.4785 -7.26919,0.3939 -15.2068,0.7246 -17.63868,0.7246 h -4.42187 l -10.25586,-14.1739 c -5.85273,-8.0895 -10.02875,-13.187 -10.94141,-13.3789 z m 0.99414,5.211 c 0.28752,-0.2784 4.7131,5.3729 9.83399,12.5586 l 9.31054,13.0644 9.43165,-0.5449 c 5.18733,-0.2995 12.57932,-0.7786 16.42773,-1.0664 l 6.99805,-0.5215 -9.81641,13.2754 c -8.87553,12.0033 -9.73325,13.4943 -8.93555,15.5547 5.74954,14.8517 10.61808,28.0671 10.40235,28.2363 -0.14794,0.1163 -6.72027,-1.7381 -14.60547,-4.123 -7.88518,-2.3848 -14.75628,-4.3477 -15.26953,-4.3477 -0.51326,-0.01 -6.47848,4.2221 -13.25586,9.3965 -6.77741,5.1747 -12.50561,9.4082 -12.73047,9.4082 -0.22508,0 -0.41016,-7.2525 -0.41016,-16.1152 v -16.1133 l -13.62695,-9.1153 -13.62695,-9.1132 8.47461,-3.0118 c 4.66135,-1.6565 11.49914,-4.1282 15.19531,-5.4921 l 6.7207,-2.4805 4.48047,-14.4727 c 2.46414,-7.9596 4.71443,-14.6987 5.00195,-14.9765 z"
             transform="translate(-1235.5148,1052.7875)" />
          <path
             style="fill:#000000;stroke-width:0.896043"
             d="m -827.98561,2269.309 c 0,-1.0303 31.56053,-17.0297 33.59227,-17.0297 3.78728,0 -0.13411,2.5955 -14.9456,9.8915 -16.05415,7.9086 -18.64667,8.9011 -18.64667,7.1382 z"
             id="path4028" />
        </g>
        <g
           id="g4040"
           transform="translate(-1e-5,-659.9994)"
           style="fill:#fece00;fill-opacity:1">
          <path
             style="fill:#fece00;stroke-width:0.896043;fill-opacity:1"
             d="m -858.23661,2252.056 c 0.57196,-1.7607 49.25736,-23.2423 50.30377,-22.1961 0.48665,0.4868 0.71007,1.0517 0.49651,1.2556 -0.84276,0.8042 -49.12863,22.0603 -50.11307,22.0603 -0.57813,0 -0.88736,-0.5038 -0.68721,-1.1198 z"
             id="path4032" />
          <path
             style="fill:#fece00;stroke-width:0.896043;fill-opacity:1"
             d="m -829.74781,2253.8479 c 0.0305,-1.1209 25.34641,-13.2585 27.59814,-13.2313 3.31774,0.04 -0.76028,2.7249 -12.45111,8.1963 -13.50676,6.3215 -15.19639,6.8831 -15.14703,5.035 z"
             id="path4034" />
          <path
             id="path4036"
             style="fill:#fece00;stroke-width:0.896043;fill-opacity:1"
             d="m 462.16406,1116.832 c -0.0608,-0.013 -0.10731,0 -0.13867,0.027 -0.4534,0.4536 -3.00238,7.9899 -5.66601,16.748 -2.66363,8.7583 -4.96214,16.0102 -5.10743,16.1153 -0.14533,0.1044 -3.94674,1.457 -8.44726,3.0058 -17.89283,6.157 -23.62769,8.4488 -23.61719,9.4395 0.006,0.5692 6.45709,5.2684 14.33594,10.4433 l 14.32617,9.4082 v 17.0996 c 4.4e-4,9.4045 0.27111,17.3688 0.59961,17.6973 v 0.01 c 0.32856,0.3298 0.76818,0.5976 0.97851,0.5976 0.2104,0 5.80794,-4.1339 12.4375,-9.1855 6.62959,-5.0513 12.77817,-9.6955 13.66407,-10.3203 1.35394,-0.9549 3.81194,-0.4852 15.41601,2.9433 7.59273,2.2437 14.93102,4.4543 16.3086,4.9121 1.864,0.6198 2.62223,0.5287 2.96289,-0.3593 0.25176,-0.656 -2.18498,-8.0968 -5.41602,-16.5332 -3.23105,-8.436 -5.875,-15.6735 -5.875,-16.084 0,-0.4108 4.43634,-6.7588 9.85742,-14.1055 5.4211,-7.3465 9.85547,-13.8953 9.85547,-14.5527 0,-0.9743 -2.43997,-1.062 -13.21679,-0.4785 -7.26919,0.3939 -15.2068,0.7246 -17.63868,0.7246 h -4.42187 l -10.25586,-14.1739 c -5.85273,-8.0895 -10.02875,-13.187 -10.94141,-13.3789 z m 0.99414,5.211 c 0.28752,-0.2784 4.7131,5.3729 9.83399,12.5586 l 9.31054,13.0644 9.43165,-0.5449 c 5.18733,-0.2995 12.57932,-0.7786 16.42773,-1.0664 l 6.99805,-0.5215 -9.81641,13.2754 c -8.87553,12.0033 -9.73325,13.4943 -8.93555,15.5547 5.74954,14.8517 10.61808,28.0671 10.40235,28.2363 -0.14794,0.1163 -6.72027,-1.7381 -14.60547,-4.123 -7.88518,-2.3848 -14.75628,-4.3477 -15.26953,-4.3477 -0.51326,-0.01 -6.47848,4.2221 -13.25586,9.3965 -6.77741,5.1747 -12.50561,9.4082 -12.73047,9.4082 -0.22508,0 -0.41016,-7.2525 -0.41016,-16.1152 v -16.1133 l -13.62695,-9.1153 -13.62695,-9.1132 8.47461,-3.0118 c 4.66135,-1.6565 11.49914,-4.1282 15.19531,-5.4921 l 6.7207,-2.4805 4.48047,-14.4727 c 2.46414,-7.9596 4.71443,-14.6987 5.00195,-14.9765 z"
             transform="translate(-1235.5148,1052.7875)" />
          <path
             style="fill:#fece00;stroke-width:0.896043;fill-opacity:1"
             d="m -827.98561,2269.309 c 0,-1.0303 31.56053,-17.0297 33.59227,-17.0297 3.78728,0 -0.13411,2.5955 -14.9456,9.8915 -16.05415,7.9086 -18.64667,8.9011 -18.64667,7.1382 z"
             id="path4038" />
        </g>
        <g
           id="g4046"
           transform="translate(0,-660)"
           style="fill:#ffffff">
          <path
             id="path4042"
             style="fill:#ffffff;stroke-width:0.896043"
             d="m 810.58398,916.61914 c -16.28627,0.12735 -32.80586,6.44255 -44.68359,17.41797 l -6.07617,5.61523 -70.63867,16.84571 c -52.94971,12.6261 -70.63672,17.1651 -70.63672,18.1289 0,0.7844 0.69588,1.17374 1.79101,0.99414 2.13265,-0.3471 132.79188,-31.3565 135.11328,-32.0664 1.24138,-0.3796 0.90681,0.59743 -1.48242,4.33203 -5.68514,8.8877 -9.70153,21.30337 -10.6289,32.85547 -0.23932,2.9816 -0.74384,3.33033 -27.55469,18.98633 -15.02091,8.77128 -27.44012,16.33828 -27.59961,16.81638 -0.15946,0.4784 0.0543,1.0851 0.47656,1.3457 0.42222,0.2608 12.84063,-6.5609 27.59571,-15.1582 l 26.82617,-15.63084 1.52344,7.73047 c 1.90068,9.65657 5.1164,17.77517 10.05078,25.37307 4.50588,6.9377 12.41168,15.0502 18.53125,19.0156 l 4.36523,2.8281 -4.20508,5.9102 c -2.31286,3.2509 -8.35326,11.7161 -13.42187,18.8125 -8.65005,12.1106 -10.72412,15.9773 -8.10938,15.1055 0.60763,-0.2026 6.68877,-8.2 13.51563,-17.7715 6.82692,-9.572 12.94264,-18.1421 13.58984,-19.043 1.09115,-1.5182 1.37244,-1.5345 3.8711,-0.2422 1.48217,0.7663 6.26075,2.446 10.61914,3.7324 18.2519,5.3879 41.14211,1.8075 56.13867,-8.7812 1.3836,-0.9772 2.65489,-1.6312 2.82422,-1.4551 0.16923,0.1769 -12.09091,25.3197 -27.24414,55.875 -15.14851,30.5454 -27.37944,55.8435 -27.1875,56.2285 0.20058,0.37 0.77134,0.6699 1.26757,0.6699 0.49683,0 14.05047,-26.5106 30.1211,-58.914 20.44594,-41.2251 30.35033,-60.2594 32.98437,-63.3946 11.71781,-13.9461 16.89341,-28.1006 16.71289,-45.69917 -0.19206,-18.7166 -7.66101,-35.23559 -21.90039,-48.42969 -10.35408,-9.594 -22.91986,-15.43323 -37.55664,-17.45703 -2.96906,-0.41062 -5.97621,-0.59975 -8.99219,-0.57617 z m -0.69336,2.82031 c 27.77132,-0.41326 54.31077,17.33734 63.3418,45.02539 1.67284,5.1288 2.3892,9.60919 2.71094,16.96289 0.55645,12.7222 -1.13868,20.76337 -6.73438,31.95317 -7.91696,15.8315 -23.67402,28.4438 -41.09765,32.9003 -13.56253,3.4688 -31.13556,1.8522 -44.03321,-4.0527 -20.36588,-9.3238 -36.004,-31.3699 -37.13476,-52.34959 l -0.26172,-4.85157 11.20117,-6.53515 c 6.1603,-3.5943 11.33073,-7.15827 11.49024,-7.91797 0.44466,-2.1201 -1.10486,-1.683 -7.21875,2.0332 -3.08884,1.8772 -7.97981,4.75629 -10.86914,6.39649 l -5.25391,2.98242 0.625,-4.82813 c 3.37628,-26.1116 19.65463,-46.24248 44.01172,-54.42968 6.33997,-2.13117 12.81389,-3.1937 19.22265,-3.28907 z"
             transform="translate(-1235.5148,1052.7875)" />
          <path
             style="fill:#ffffff;stroke-width:0.896043"
             d="m -369.53173,2064.9175 c -6.66479,-22.2599 -12.87492,-35.8934 -21.71538,-47.6726 -7.21041,-9.6071 -14.1664,-15.5896 -30.62542,-26.3391 -14.21087,-9.281 -16.42801,-11.8242 -12.84162,-14.7282 4.79684,-3.8839 19.85804,-1.6827 32.7982,4.7942 25.65749,12.8421 40.36295,36.2944 38.58187,61.5307 -0.80675,11.4314 -4.97385,26.5024 -6.19765,22.415 z"
             id="path4044" />
        </g>
        <g
           id="g4060"
           style="fill:#000000;fill-opacity:1"
           transform="translate(1112.3901,-352.0858)">
          <path
             id="path4048"
             style="fill:#000000;stroke-width:0.896043;fill-opacity:1"
             d="m -430.85156,974.50977 c -11.19506,0.0992 -23.83008,2.56142 -23.83008,5.19335 0,0.60995 2.31864,1.83014 5.15234,2.71094 16.2477,5.0494 29.52043,17.89244 32.57813,31.52344 1.4893,6.6401 0.19154,9.7029 -6.35156,14.9883 -2.9471,2.3804 -6.64385,6.3122 -8.21485,8.7363 -1.5709,2.4245 -2.97634,4.4082 -3.12304,4.4082 -0.14685,0 -2.80154,-1.6447 -5.89844,-3.6562 -7.0179,-4.5584 -19.90493,-10.8394 -27.58203,-13.4414 -12.8431,-4.3531 -30.5986,-3.166 -50.1211,3.3535 -13.1373,4.387 -14.6175,5.9766 -6.5332,7.0156 11.2568,1.4469 16.04871,3.6889 30.50391,14.2676 l 7.45117,5.4531 -5.03516,0.6465 c -2.7691,0.3549 -8.54172,2.0577 -12.82812,3.7832 -20.606,8.2939 -22.12891,9.0396 -22.12891,10.8418 0,1.6391 0.87921,1.7901 13.44141,2.2949 7.3923,0.2966 15.30192,0.992 17.57812,1.5449 7.1315,1.7334 19.01498,5.6648 22.55078,7.461 3.2225,1.6371 3.78306,3.4453 1.06836,3.4453 -0.6916,0 -3.59116,0.8696 -6.44336,1.9316 -4.5413,1.6907 -6.94043,3.6916 -19.29883,16.0938 -7.762,7.7895 -14.11132,14.5935 -14.11132,15.1211 0,1.8665 2.55521,1.8916 8.63281,0.082 9.0225,-2.6867 41.06381,-9.0352 45.59961,-9.0352 2.147,0 4.21224,0.5006 4.58984,1.1114 1.1558,1.8701 0.51192,16.8401 -1.05078,24.4257 -1.7218,8.3583 -6.2839,19.847 -11.2793,28.4004 -3.091,5.2927 -6.17706,8.5536 -14.00586,14.7989 -1.3444,1.0723 -1.75664,1.9997 -1.24414,2.7988 1.6271,2.5384 18.9591,-8.4265 25.7168,-16.2695 1.7733,-2.058 4.84035,-6.4968 6.81445,-9.8614 1.974,-3.3646 3.8009,-5.9059 4.0586,-5.6484 0.7616,0.7615 -1.42955,11.8135 -3.90235,19.6895 -2.706,8.6187 -12.02948,27.3626 -15.67578,31.5156 -2.4434,2.7829 -3.16025,4.91 -2.03515,6.0351 0.7262,0.7261 5.25737,-1.2444 18.57617,-8.0742 9.7294,-4.9895 12.28266,-6.7596 16.72656,-11.6094 5.9069,-6.4463 11.83254,-17.0979 13.90234,-24.9863 1.7559,-6.6924 4.92832,-31.3512 4.94532,-38.4375 0.007,-2.9572 0.25217,-6.2744 0.54687,-7.373 0.493,-1.839 0.68564,-1.8919 2.42774,-0.6719 3.1926,2.2363 19.26588,1.1108 30.61328,-2.1426 2.2127,-0.6343 3.24272,-0.3615 5.82422,1.5371 4.1408,3.0451 5.07572,4.2176 7.66797,9.6231 5.6309,11.7431 2.878,29.352 -6.8086,43.5429 -2.2172,3.2482 -3.37422,5.747 -2.88672,6.2344 1.247,1.247 11.59939,-2.2938 17.96289,-6.1426 6.5902,-3.9861 14.35686,-11.4207 18.22266,-17.4453 6.1256,-9.5459 9.74805,-25.6389 9.74805,-43.3027 v -10.9785 l 15.45703,-7.6328 c 23.6853,-11.6969 38.47952,-21.6301 56.94922,-38.2364 22.9703,-20.6529 44.97656,-50.48864 44.97656,-60.98044 0,-2.7323 -0.59109,-3.90681 -3.05469,-6.07031 -6.4981,-5.7055 -17.83303,-7.76643 -42.64453,-7.73243 -19.1112,0.0222 -26.32232,0.6448 -47.04102,4.0586 -21.1102,3.4778 -52.12878,12.3931 -67.95898,19.5332 -3.3726,1.52078 -6.60941,2.76558 -7.19141,2.76558 -0.582,0 -2.81805,-2.41559 -4.96875,-5.36909 -9.2167,-12.6565 -21.8511,-19.51271 -39.6875,-21.53321 -2.25723,-0.25573 -4.76418,-0.35883 -7.34765,-0.33593 z m -0.19141,3.22461 c 14.90189,-0.15834 26.15878,3.39096 36.14063,11.32812 4.4756,3.5586 11.90429,12.3793 11.90429,14.1348 0,0.4613 -3.43937,2.5443 -7.64257,4.6289 -4.20324,2.0847 -10.88817,5.8049 -14.85547,8.2656 -3.9674,2.4604 -7.32635,4.4727 -7.46485,4.4727 -0.1384,0 -0.47826,-2.2006 -0.75586,-4.8907 -0.648,-6.2781 -5.8497,-16.29823 -11.4414,-22.03903 -4.7898,-4.9176 -12.27979,-9.94496 -18.39649,-12.34766 -5.6631,-2.2245 -3.78358,-2.9116 9.48242,-3.4707 1.02658,-0.0433 2.03584,-0.0715 3.0293,-0.082 z m 174.1875,0.46679 c 18.07565,0.0301 29.91793,1.64278 37.32813,5.03516 5.9059,2.7039 6.85096,4.96309 4.57226,10.92969 -2.805,7.34478 -13.55545,22.66638 -24.96875,35.58398 -3.5661,4.0363 -5.97217,6.0218 -7.23047,5.9668 -7.8939,-0.3381 -15.87461,-7.3782 -21.60351,-19.0586 -2.2091,-4.504 -4.62304,-10.5939 -5.36524,-13.5312 -1.7169,-6.7954 -1.74198,-17.52081 -0.0508,-21.56841 l 1.29883,-3.10742 7.88477,-0.16601 c 2.84188,-0.0597 5.55253,-0.0883 8.13476,-0.084 z m -20.2793,0.88672 -0.73632,3.49023 c -1.1408,5.40193 -0.68516,15.43133 0.99414,21.85738 4.044,15.4753 13.45915,28.7216 23.18945,32.627 l 5.20703,2.0898 -7.89648,7.2364 c -4.3424,3.9798 -10.71827,9.5061 -14.16797,12.2812 -29.139,23.4403 -83.57356,47.814 -120.06836,53.7617 -8.8465,1.4419 -13.8271,1.65 -15.2832,0.6368 -0.5204,-0.3621 -0.97668,-2.8772 -1.01368,-5.5879 -0.0919,-6.779 -2.58248,-13.577 -12.80468,-34.9453 -10.759,-22.4901 -11.66993,-24.6594 -11.66993,-27.8067 0,-7.7221 23.80431,-25.9854 49.28321,-37.8125 30.1588,-13.99954 67.98703,-24.50195 97.95703,-27.19725 z m -210.29882,46.10551 c 13.81164,-0.022 26.77876,4.8336 44.61132,15.3828 6.5398,3.8689 7.99378,5.1454 8.83008,7.7656 0.5506,1.7249 5.1887,11.8893 10.3086,22.5859 12.3474,25.7967 16.45542,38.3457 12.54882,38.3457 -1.7593,0 -3.22461,4.7604 -3.22461,10.4805 0,5.9452 -2.38918,27.0926 -4.05078,35.8535 -1.5565,8.2083 -4.46711,15.4103 -8.97461,22.211 -5.3538,8.0774 -9.41506,11.501 -20.41406,17.207 v 0 c -5.5105,2.8586 -10.51339,5.3268 -11.11719,5.4825 -0.6039,0.1573 0.49646,-2.4397 2.44336,-5.7715 8.7834,-15.0306 15.69369,-35.7503 14.99219,-44.9473 -0.3738,-4.8994 -1.56959,-7.1131 -3.27539,-6.0586 -0.5413,0.3344 -2.84032,3.8237 -5.10742,7.7539 -4.1705,7.2305 -11.61619,16.1877 -14.92969,17.961 l -1.80664,0.9687 1.81445,-2.5683 c 11.6284,-16.4568 19.29829,-50.7957 13.36719,-59.8477 -1.2835,-1.9579 -1.81421,-2.0749 -7.47461,-1.6484 -4.944,0.3722 -35.98751,6.455 -45.07031,8.832 -1.5707,0.4109 1.37307,-3.0696 9.85547,-11.6524 l 12.09765,-12.2402 8.73633,-2.7266 c 5.3343,-1.6638 8.73633,-3.1907 8.73633,-3.9218 0,-1.8932 -8.42485,-6.5812 -16.96875,-9.4434 -11.9047,-3.9885 -20.18184,-5.4951 -30.46094,-5.5351 l -9.34961,-0.037 10.5,-4.3886 c 14.3394,-5.9915 19.41061,-7.2406 24.65821,-6.0703 2.281,0.5091 5.06208,1.5209 6.17968,2.25 1.8104,1.1817 2.09168,1.173 2.57618,-0.09 0.6279,-1.6358 -2.76765,-4.786 -15.62305,-14.4941 -10.2706,-7.7561 -21.44568,-13.6847 -26.01758,-13.8067 -2.8401,-0.075 -2.20853,-0.4458 4.60547,-2.6992 10.12631,-3.3487 18.71692,-5.1174 27.00391,-5.1308 z m 155.87109,72.4355 c 0.4687,0 0.58238,5.3677 0.27148,12.7637 -0.6277,14.9321 -3.33533,27.1047 -7.96093,35.7832 -3.7358,7.0093 -12.29256,15.6067 -19.19336,19.2851 -6.161,3.2837 -10.52334,5.0579 -10.02344,4.0782 8.3933,-16.4542 10.1718,-23.0097 9.4375,-34.7793 -0.562,-9.0088 -3.33956,-15.5797 -8.59766,-20.3301 l -3.39648,-3.0664 10.4043,-3.3516 c 5.722,-1.8437 14.41847,-4.9325 19.32617,-6.8652 4.9078,-1.9328 9.28742,-3.5176 9.73242,-3.5176 z"
             transform="translate(-1235.5148,1052.7875)" />
          <path
             style="fill:#000000;stroke-width:0.896043;fill-opacity:1"
             d="m -1829.5678,2162.8974 c -0.3247,-0.5257 -0.4205,-1.1259 -0.2127,-1.3339 0.208,-0.2065 14.4171,-5.8504 31.5761,-12.5392 18.5707,-7.2393 31.5256,-11.8342 32.0073,-11.3524 0.4818,0.4821 0.3407,1.1941 -0.3487,1.76 -1.0886,0.8938 -60.7085,24.421 -61.8847,24.421 -0.3007,0 -0.8124,-0.4301 -1.1373,-0.9555 z"
             id="path4050" />
          <path
             style="fill:#000000;stroke-width:0.896043;fill-opacity:1"
             d="m -1805.7857,2190.3822 c 0,-0.7553 4.5015,-3.0855 11.4245,-5.9142 6.2835,-2.567 14.2396,-5.8368 17.68,-7.2658 6.998,-2.9068 8.5294,-3.1538 8.5294,-1.3751 0,1.075 -34.2659,15.8017 -36.7669,15.8017 -0.4768,0 -0.867,-0.5612 -0.867,-1.2466 z"
             id="path4052" />
          <path
             style="fill:#000000;stroke-width:0.896043;fill-opacity:1"
             d="m -1803.9937,2223.6308 c 0,-1.5637 59.0552,-25.2746 60.1708,-24.1589 0.5177,0.5176 0.3952,1.1987 -0.3217,1.7884 -1.4598,1.2003 -57.1787,23.5234 -58.7149,23.5234 -0.6238,0 -1.1342,-0.5187 -1.1342,-1.1529 z"
             id="path4054" />
          <path
             id="path4056"
             style="fill:#000000;stroke-width:0.896043;fill-opacity:1"
             d="m -371.26562,1029.1289 c -3.68946,-0.01 -7.41104,0.7495 -10.92188,2.3633 -6.991,3.2132 -10.22692,6.3275 -13.51172,13 -2.4209,4.9175 -2.89266,6.8821 -2.84766,11.8398 0.0967,10.5585 5.4964,18.972 15.0918,23.5118 4.3198,2.0436 6.6261,2.5468 11.6582,2.5468 10.78101,0 19.51076,-5.4395 24.84766,-15.4804 1.6257,-3.0586 2.01344,-5.2432 2.02344,-11.4004 0.01,-6.8697 -0.26328,-8.0979 -2.76758,-12.543 -4.92854,-8.7476 -14.14366,-13.8118 -23.57226,-13.8379 z m -0.19141,3.209 c 0.81742,0.01 1.66212,0.048 2.53711,0.1172 14.8428,1.1786 24.65707,15.3353 20.51367,29.5879 -1.991,6.8491 -7.97635,13.3768 -14.50195,15.8183 -9.122,3.4129 -18.93182,1.5019 -25.57032,-4.9804 -10.3566,-10.1131 -9.1262,-26.9451 2.625,-35.9082 4.27587,-3.2615 8.67451,-4.6987 14.39649,-4.6348 z"
             transform="translate(-1235.5148,1052.7875)" />
          <path
             id="path4058"
             style="fill:#000000;stroke-width:0.896043;fill-opacity:1"
             d="m -304.56445,1008.9785 c -8.53455,-0.229 -17.42785,5.0381 -19.81641,14.2461 -0.653,2.518 -1.03797,5.0674 -0.85547,5.6641 0.1824,0.597 0.57259,2.1869 0.86719,3.5332 0.6968,3.1827 5.56586,8.6925 9.00586,10.1914 1.4877,0.6483 5.16136,1.1789 8.16406,1.2129 7.2734,0.047 12.33927,-2.5938 16.35547,-8.5274 2.7848,-4.1142 2.97462,-4.8515 2.66602,-10.3535 -0.2709,-4.833 -0.80404,-6.5404 -2.89454,-9.2812 -3.38051,-4.4321 -8.37145,-6.5481 -13.49218,-6.6856 z m -1.39258,2.9492 c 2.4084,-0.059 4.84929,0.4439 7.13476,1.6348 5.7781,3.0108 7.66993,6.042 7.66993,12.291 0,4.3024 -0.42974,5.7161 -2.58594,8.543 -1.4212,1.8634 -4.24299,4.1413 -6.27149,5.0625 v 0 c -4.8155,2.1887 -9.9906,2.1532 -14.4414,-0.098 -4.7332,-2.3933 -6.91808,-5.5806 -7.42188,-10.8242 -0.86414,-8.9936 7.31459,-16.3953 15.91602,-16.6075 z"
             transform="translate(-1235.5148,1052.7875)" />
        </g>
        <g
           id="g4070"
           transform="matrix(0.61553336,0,0,0.61553336,-74.94178,207.84733)"
           style="fill:#000000">
          <path
             style="fill:#000000;stroke-width:0.896043"
             d="m -858.23661,2252.056 c 0.57196,-1.7607 49.25736,-23.2423 50.30377,-22.1961 0.48665,0.4868 0.71007,1.0517 0.49651,1.2556 -0.84276,0.8042 -49.12863,22.0603 -50.11307,22.0603 -0.57813,0 -0.88736,-0.5038 -0.68721,-1.1198 z"
             id="path4062" />
          <path
             style="fill:#000000;stroke-width:0.896043"
             d="m -829.74781,2253.8479 c 0.0305,-1.1209 25.34641,-13.2585 27.59814,-13.2313 3.31774,0.04 -0.76028,2.7249 -12.45111,8.1963 -13.50676,6.3215 -15.19639,6.8831 -15.14703,5.035 z"
             id="path4064" />
          <path
             id="path4066"
             style="fill:#000000;stroke-width:0.896043"
             d="m 462.16406,1116.832 c -0.0608,-0.013 -0.10731,0 -0.13867,0.027 -0.4534,0.4536 -3.00238,7.9899 -5.66601,16.748 -2.66363,8.7583 -4.96214,16.0102 -5.10743,16.1153 -0.14533,0.1044 -3.94674,1.457 -8.44726,3.0058 -17.89283,6.157 -23.62769,8.4488 -23.61719,9.4395 0.006,0.5692 6.45709,5.2684 14.33594,10.4433 l 14.32617,9.4082 v 17.0996 c 4.4e-4,9.4045 0.27111,17.3688 0.59961,17.6973 v 0.01 c 0.32856,0.3298 0.76818,0.5976 0.97851,0.5976 0.2104,0 5.80794,-4.1339 12.4375,-9.1855 6.62959,-5.0513 12.77817,-9.6955 13.66407,-10.3203 1.35394,-0.9549 3.81194,-0.4852 15.41601,2.9433 7.59273,2.2437 14.93102,4.4543 16.3086,4.9121 1.864,0.6198 2.62223,0.5287 2.96289,-0.3593 0.25176,-0.656 -2.18498,-8.0968 -5.41602,-16.5332 -3.23105,-8.436 -5.875,-15.6735 -5.875,-16.084 0,-0.4108 4.43634,-6.7588 9.85742,-14.1055 5.4211,-7.3465 9.85547,-13.8953 9.85547,-14.5527 0,-0.9743 -2.43997,-1.062 -13.21679,-0.4785 -7.26919,0.3939 -15.2068,0.7246 -17.63868,0.7246 h -4.42187 l -10.25586,-14.1739 c -5.85273,-8.0895 -10.02875,-13.187 -10.94141,-13.3789 z m 0.99414,5.211 c 0.28752,-0.2784 4.7131,5.3729 9.83399,12.5586 l 9.31054,13.0644 9.43165,-0.5449 c 5.18733,-0.2995 12.57932,-0.7786 16.42773,-1.0664 l 6.99805,-0.5215 -9.81641,13.2754 c -8.87553,12.0033 -9.73325,13.4943 -8.93555,15.5547 5.74954,14.8517 10.61808,28.0671 10.40235,28.2363 -0.14794,0.1163 -6.72027,-1.7381 -14.60547,-4.123 -7.88518,-2.3848 -14.75628,-4.3477 -15.26953,-4.3477 -0.51326,-0.01 -6.47848,4.2221 -13.25586,9.3965 -6.77741,5.1747 -12.50561,9.4082 -12.73047,9.4082 -0.22508,0 -0.41016,-7.2525 -0.41016,-16.1152 v -16.1133 l -13.62695,-9.1153 -13.62695,-9.1132 8.47461,-3.0118 c 4.66135,-1.6565 11.49914,-4.1282 15.19531,-5.4921 l 6.7207,-2.4805 4.48047,-14.4727 c 2.46414,-7.9596 4.71443,-14.6987 5.00195,-14.9765 z"
             transform="translate(-1235.5148,1052.7875)" />
          <path
             style="fill:#000000;stroke-width:0.896043"
             d="m -827.98561,2269.309 c 0,-1.0303 31.56053,-17.0297 33.59227,-17.0297 3.78728,0 -0.13411,2.5955 -14.9456,9.8915 -16.05415,7.9086 -18.64667,8.9011 -18.64667,7.1382 z"
             id="path4068" />
        </g>
        <g
           id="g4080"
           transform="translate(607.99999,-593.9994)"
           style="fill:#fece00;fill-opacity:1;stroke:#fece00;stroke-opacity:1">
          <path
             style="fill:#fece00;stroke-width:0.896043;fill-opacity:1;stroke:#fece00;stroke-opacity:1"
             d="m -858.23661,2252.056 c 0.57196,-1.7607 49.25736,-23.2423 50.30377,-22.1961 0.48665,0.4868 0.71007,1.0517 0.49651,1.2556 -0.84276,0.8042 -49.12863,22.0603 -50.11307,22.0603 -0.57813,0 -0.88736,-0.5038 -0.68721,-1.1198 z"
             id="path4072" />
          <path
             style="fill:#fece00;stroke-width:0.896043;fill-opacity:1;stroke:#fece00;stroke-opacity:1"
             d="m -829.74781,2253.8479 c 0.0305,-1.1209 25.34641,-13.2585 27.59814,-13.2313 3.31774,0.04 -0.76028,2.7249 -12.45111,8.1963 -13.50676,6.3215 -15.19639,6.8831 -15.14703,5.035 z"
             id="path4074" />
          <path
             id="path4076"
             style="fill:#fece00;stroke-width:0.896043;fill-opacity:1;stroke:#fece00;stroke-opacity:1"
             d="m 462.16406,1116.832 c -0.0608,-0.013 -0.10731,0 -0.13867,0.027 -0.4534,0.4536 -3.00238,7.9899 -5.66601,16.748 -2.66363,8.7583 -4.96214,16.0102 -5.10743,16.1153 -0.14533,0.1044 -3.94674,1.457 -8.44726,3.0058 -17.89283,6.157 -23.62769,8.4488 -23.61719,9.4395 0.006,0.5692 6.45709,5.2684 14.33594,10.4433 l 14.32617,9.4082 v 17.0996 c 4.4e-4,9.4045 0.27111,17.3688 0.59961,17.6973 v 0.01 c 0.32856,0.3298 0.76818,0.5976 0.97851,0.5976 0.2104,0 5.80794,-4.1339 12.4375,-9.1855 6.62959,-5.0513 12.77817,-9.6955 13.66407,-10.3203 1.35394,-0.9549 3.81194,-0.4852 15.41601,2.9433 7.59273,2.2437 14.93102,4.4543 16.3086,4.9121 1.864,0.6198 2.62223,0.5287 2.96289,-0.3593 0.25176,-0.656 -2.18498,-8.0968 -5.41602,-16.5332 -3.23105,-8.436 -5.875,-15.6735 -5.875,-16.084 0,-0.4108 4.43634,-6.7588 9.85742,-14.1055 5.4211,-7.3465 9.85547,-13.8953 9.85547,-14.5527 0,-0.9743 -2.43997,-1.062 -13.21679,-0.4785 -7.26919,0.3939 -15.2068,0.7246 -17.63868,0.7246 h -4.42187 l -10.25586,-14.1739 c -5.85273,-8.0895 -10.02875,-13.187 -10.94141,-13.3789 z m 0.99414,5.211 c 0.28752,-0.2784 4.7131,5.3729 9.83399,12.5586 l 9.31054,13.0644 9.43165,-0.5449 c 5.18733,-0.2995 12.57932,-0.7786 16.42773,-1.0664 l 6.99805,-0.5215 -9.81641,13.2754 c -8.87553,12.0033 -9.73325,13.4943 -8.93555,15.5547 5.74954,14.8517 10.61808,28.0671 10.40235,28.2363 -0.14794,0.1163 -6.72027,-1.7381 -14.60547,-4.123 -7.88518,-2.3848 -14.75628,-4.3477 -15.26953,-4.3477 -0.51326,-0.01 -6.47848,4.2221 -13.25586,9.3965 -6.77741,5.1747 -12.50561,9.4082 -12.73047,9.4082 -0.22508,0 -0.41016,-7.2525 -0.41016,-16.1152 v -16.1133 l -13.62695,-9.1153 -13.62695,-9.1132 8.47461,-3.0118 c 4.66135,-1.6565 11.49914,-4.1282 15.19531,-5.4921 l 6.7207,-2.4805 4.48047,-14.4727 c 2.46414,-7.9596 4.71443,-14.6987 5.00195,-14.9765 z"
             transform="translate(-1235.5148,1052.7875)" />
          <path
             style="fill:#fece00;stroke-width:0.896043;fill-opacity:1;stroke:#fece00;stroke-opacity:1"
             d="m -827.98561,2269.309 c 0,-1.0303 31.56053,-17.0297 33.59227,-17.0297 3.78728,0 -0.13411,2.5955 -14.9456,9.8915 -16.05415,7.9086 -18.64667,8.9011 -18.64667,7.1382 z"
             id="path4078" />
        </g>
        <g
           id="g4090"
           transform="matrix(0.61553336,0,0,0.61553336,303.05822,59.84733)"
           style="fill:#ffffff;fill-opacity:1;stroke:#ffffff;stroke-opacity:1">
          <path
             style="fill:#ffffff;stroke-width:0.896043;fill-opacity:1;stroke:#ffffff;stroke-opacity:1"
             d="m -858.23661,2252.056 c 0.57196,-1.7607 49.25736,-23.2423 50.30377,-22.1961 0.48665,0.4868 0.71007,1.0517 0.49651,1.2556 -0.84276,0.8042 -49.12863,22.0603 -50.11307,22.0603 -0.57813,0 -0.88736,-0.5038 -0.68721,-1.1198 z"
             id="path4082" />
          <path
             style="fill:#ffffff;stroke-width:0.896043;fill-opacity:1;stroke:#ffffff;stroke-opacity:1"
             d="m -829.74781,2253.8479 c 0.0305,-1.1209 25.34641,-13.2585 27.59814,-13.2313 3.31774,0.04 -0.76028,2.7249 -12.45111,8.1963 -13.50676,6.3215 -15.19639,6.8831 -15.14703,5.035 z"
             id="path4084" />
          <path
             id="path4086"
             style="fill:#ffffff;stroke-width:0.896043;fill-opacity:1;stroke:#ffffff;stroke-opacity:1"
             d="m 462.16406,1116.832 c -0.0608,-0.013 -0.10731,0 -0.13867,0.027 -0.4534,0.4536 -3.00238,7.9899 -5.66601,16.748 -2.66363,8.7583 -4.96214,16.0102 -5.10743,16.1153 -0.14533,0.1044 -3.94674,1.457 -8.44726,3.0058 -17.89283,6.157 -23.62769,8.4488 -23.61719,9.4395 0.006,0.5692 6.45709,5.2684 14.33594,10.4433 l 14.32617,9.4082 v 17.0996 c 4.4e-4,9.4045 0.27111,17.3688 0.59961,17.6973 v 0.01 c 0.32856,0.3298 0.76818,0.5976 0.97851,0.5976 0.2104,0 5.80794,-4.1339 12.4375,-9.1855 6.62959,-5.0513 12.77817,-9.6955 13.66407,-10.3203 1.35394,-0.9549 3.81194,-0.4852 15.41601,2.9433 7.59273,2.2437 14.93102,4.4543 16.3086,4.9121 1.864,0.6198 2.62223,0.5287 2.96289,-0.3593 0.25176,-0.656 -2.18498,-8.0968 -5.41602,-16.5332 -3.23105,-8.436 -5.875,-15.6735 -5.875,-16.084 0,-0.4108 4.43634,-6.7588 9.85742,-14.1055 5.4211,-7.3465 9.85547,-13.8953 9.85547,-14.5527 0,-0.9743 -2.43997,-1.062 -13.21679,-0.4785 -7.26919,0.3939 -15.2068,0.7246 -17.63868,0.7246 h -4.42187 l -10.25586,-14.1739 c -5.85273,-8.0895 -10.02875,-13.187 -10.94141,-13.3789 z m 0.99414,5.211 c 0.28752,-0.2784 4.7131,5.3729 9.83399,12.5586 l 9.31054,13.0644 9.43165,-0.5449 c 5.18733,-0.2995 12.57932,-0.7786 16.42773,-1.0664 l 6.99805,-0.5215 -9.81641,13.2754 c -8.87553,12.0033 -9.73325,13.4943 -8.93555,15.5547 5.74954,14.8517 10.61808,28.0671 10.40235,28.2363 -0.14794,0.1163 -6.72027,-1.7381 -14.60547,-4.123 -7.88518,-2.3848 -14.75628,-4.3477 -15.26953,-4.3477 -0.51326,-0.01 -6.47848,4.2221 -13.25586,9.3965 -6.77741,5.1747 -12.50561,9.4082 -12.73047,9.4082 -0.22508,0 -0.41016,-7.2525 -0.41016,-16.1152 v -16.1133 l -13.62695,-9.1153 -13.62695,-9.1132 8.47461,-3.0118 c 4.66135,-1.6565 11.49914,-4.1282 15.19531,-5.4921 l 6.7207,-2.4805 4.48047,-14.4727 c 2.46414,-7.9596 4.71443,-14.6987 5.00195,-14.9765 z"
             transform="translate(-1235.5148,1052.7875)" />
          <path
             style="fill:#ffffff;stroke-width:0.896043;fill-opacity:1;stroke:#ffffff;stroke-opacity:1"
             d="m -827.98561,2269.309 c 0,-1.0303 31.56053,-17.0297 33.59227,-17.0297 3.78728,0 -0.13411,2.5955 -14.9456,9.8915 -16.05415,7.9086 -18.64667,8.9011 -18.64667,7.1382 z"
             id="path4088" />
        </g>
        <g
           id="g4100"
           transform="matrix(0.61553336,0,0,0.61553336,721.05822,111.84733)"
           style="fill:#000000;stroke:#000000;stroke-opacity:1">
          <path
             style="fill:#000000;stroke-width:0.896043;stroke:#000000;stroke-opacity:1"
             d="m -858.23661,2252.056 c 0.57196,-1.7607 49.25736,-23.2423 50.30377,-22.1961 0.48665,0.4868 0.71007,1.0517 0.49651,1.2556 -0.84276,0.8042 -49.12863,22.0603 -50.11307,22.0603 -0.57813,0 -0.88736,-0.5038 -0.68721,-1.1198 z"
             id="path4092" />
          <path
             style="fill:#000000;stroke-width:0.896043;stroke:#000000;stroke-opacity:1"
             d="m -829.74781,2253.8479 c 0.0305,-1.1209 25.34641,-13.2585 27.59814,-13.2313 3.31774,0.04 -0.76028,2.7249 -12.45111,8.1963 -13.50676,6.3215 -15.19639,6.8831 -15.14703,5.035 z"
             id="path4094" />
          <path
             id="path4096"
             style="fill:#000000;stroke-width:0.896043;stroke:#000000;stroke-opacity:1"
             d="m 462.16406,1116.832 c -0.0608,-0.013 -0.10731,0 -0.13867,0.027 -0.4534,0.4536 -3.00238,7.9899 -5.66601,16.748 -2.66363,8.7583 -4.96214,16.0102 -5.10743,16.1153 -0.14533,0.1044 -3.94674,1.457 -8.44726,3.0058 -17.89283,6.157 -23.62769,8.4488 -23.61719,9.4395 0.006,0.5692 6.45709,5.2684 14.33594,10.4433 l 14.32617,9.4082 v 17.0996 c 4.4e-4,9.4045 0.27111,17.3688 0.59961,17.6973 v 0.01 c 0.32856,0.3298 0.76818,0.5976 0.97851,0.5976 0.2104,0 5.80794,-4.1339 12.4375,-9.1855 6.62959,-5.0513 12.77817,-9.6955 13.66407,-10.3203 1.35394,-0.9549 3.81194,-0.4852 15.41601,2.9433 7.59273,2.2437 14.93102,4.4543 16.3086,4.9121 1.864,0.6198 2.62223,0.5287 2.96289,-0.3593 0.25176,-0.656 -2.18498,-8.0968 -5.41602,-16.5332 -3.23105,-8.436 -5.875,-15.6735 -5.875,-16.084 0,-0.4108 4.43634,-6.7588 9.85742,-14.1055 5.4211,-7.3465 9.85547,-13.8953 9.85547,-14.5527 0,-0.9743 -2.43997,-1.062 -13.21679,-0.4785 -7.26919,0.3939 -15.2068,0.7246 -17.63868,0.7246 h -4.42187 l -10.25586,-14.1739 c -5.85273,-8.0895 -10.02875,-13.187 -10.94141,-13.3789 z m 0.99414,5.211 c 0.28752,-0.2784 4.7131,5.3729 9.83399,12.5586 l 9.31054,13.0644 9.43165,-0.5449 c 5.18733,-0.2995 12.57932,-0.7786 16.42773,-1.0664 l 6.99805,-0.5215 -9.81641,13.2754 c -8.87553,12.0033 -9.73325,13.4943 -8.93555,15.5547 5.74954,14.8517 10.61808,28.0671 10.40235,28.2363 -0.14794,0.1163 -6.72027,-1.7381 -14.60547,-4.123 -7.88518,-2.3848 -14.75628,-4.3477 -15.26953,-4.3477 -0.51326,-0.01 -6.47848,4.2221 -13.25586,9.3965 -6.77741,5.1747 -12.50561,9.4082 -12.73047,9.4082 -0.22508,0 -0.41016,-7.2525 -0.41016,-16.1152 v -16.1133 l -13.62695,-9.1153 -13.62695,-9.1132 8.47461,-3.0118 c 4.66135,-1.6565 11.49914,-4.1282 15.19531,-5.4921 l 6.7207,-2.4805 4.48047,-14.4727 c 2.46414,-7.9596 4.71443,-14.6987 5.00195,-14.9765 z"
             transform="translate(-1235.5148,1052.7875)" />
          <path
             style="fill:#000000;stroke-width:0.896043;stroke:#000000;stroke-opacity:1"
             d="m -827.98561,2269.309 c 0,-1.0303 31.56053,-17.0297 33.59227,-17.0297 3.78728,0 -0.13411,2.5955 -14.9456,9.8915 -16.05415,7.9086 -18.64667,8.9011 -18.64667,7.1382 z"
             id="path4098" />
        </g>
        <g
           id="g4110"
           transform="matrix(0.40593873,0,0,0.40593873,374.80483,642.58686)"
           style="fill:#4747ff;fill-opacity:1;stroke:#4747ff;stroke-opacity:1">
          <path
             style="fill:#4747ff;stroke-width:0.896043;fill-opacity:1;stroke:#4747ff;stroke-opacity:1"
             d="m -858.23661,2252.056 c 0.57196,-1.7607 49.25736,-23.2423 50.30377,-22.1961 0.48665,0.4868 0.71007,1.0517 0.49651,1.2556 -0.84276,0.8042 -49.12863,22.0603 -50.11307,22.0603 -0.57813,0 -0.88736,-0.5038 -0.68721,-1.1198 z"
             id="path4102" />
          <path
             style="fill:#4747ff;stroke-width:0.896043;fill-opacity:1;stroke:#4747ff;stroke-opacity:1"
             d="m -829.74781,2253.8479 c 0.0305,-1.1209 25.34641,-13.2585 27.59814,-13.2313 3.31774,0.04 -0.76028,2.7249 -12.45111,8.1963 -13.50676,6.3215 -15.19639,6.8831 -15.14703,5.035 z"
             id="path4104" />
          <path
             id="path4106"
             style="fill:#4747ff;stroke-width:0.896043;fill-opacity:1;stroke:#4747ff;stroke-opacity:1"
             d="m 462.16406,1116.832 c -0.0608,-0.013 -0.10731,0 -0.13867,0.027 -0.4534,0.4536 -3.00238,7.9899 -5.66601,16.748 -2.66363,8.7583 -4.96214,16.0102 -5.10743,16.1153 -0.14533,0.1044 -3.94674,1.457 -8.44726,3.0058 -17.89283,6.157 -23.62769,8.4488 -23.61719,9.4395 0.006,0.5692 6.45709,5.2684 14.33594,10.4433 l 14.32617,9.4082 v 17.0996 c 4.4e-4,9.4045 0.27111,17.3688 0.59961,17.6973 v 0.01 c 0.32856,0.3298 0.76818,0.5976 0.97851,0.5976 0.2104,0 5.80794,-4.1339 12.4375,-9.1855 6.62959,-5.0513 12.77817,-9.6955 13.66407,-10.3203 1.35394,-0.9549 3.81194,-0.4852 15.41601,2.9433 7.59273,2.2437 14.93102,4.4543 16.3086,4.9121 1.864,0.6198 2.62223,0.5287 2.96289,-0.3593 0.25176,-0.656 -2.18498,-8.0968 -5.41602,-16.5332 -3.23105,-8.436 -5.875,-15.6735 -5.875,-16.084 0,-0.4108 4.43634,-6.7588 9.85742,-14.1055 5.4211,-7.3465 9.85547,-13.8953 9.85547,-14.5527 0,-0.9743 -2.43997,-1.062 -13.21679,-0.4785 -7.26919,0.3939 -15.2068,0.7246 -17.63868,0.7246 h -4.42187 l -10.25586,-14.1739 c -5.85273,-8.0895 -10.02875,-13.187 -10.94141,-13.3789 z m 0.99414,5.211 c 0.28752,-0.2784 4.7131,5.3729 9.83399,12.5586 l 9.31054,13.0644 9.43165,-0.5449 c 5.18733,-0.2995 12.57932,-0.7786 16.42773,-1.0664 l 6.99805,-0.5215 -9.81641,13.2754 c -8.87553,12.0033 -9.73325,13.4943 -8.93555,15.5547 5.74954,14.8517 10.61808,28.0671 10.40235,28.2363 -0.14794,0.1163 -6.72027,-1.7381 -14.60547,-4.123 -7.88518,-2.3848 -14.75628,-4.3477 -15.26953,-4.3477 -0.51326,-0.01 -6.47848,4.2221 -13.25586,9.3965 -6.77741,5.1747 -12.50561,9.4082 -12.73047,9.4082 -0.22508,0 -0.41016,-7.2525 -0.41016,-16.1152 v -16.1133 l -13.62695,-9.1153 -13.62695,-9.1132 8.47461,-3.0118 c 4.66135,-1.6565 11.49914,-4.1282 15.19531,-5.4921 l 6.7207,-2.4805 4.48047,-14.4727 c 2.46414,-7.9596 4.71443,-14.6987 5.00195,-14.9765 z"
             transform="translate(-1235.5148,1052.7875)" />
          <path
             style="fill:#4747ff;stroke-width:0.896043;fill-opacity:1;stroke:#4747ff;stroke-opacity:1"
             d="m -827.98561,2269.309 c 0,-1.0303 31.56053,-17.0297 33.59227,-17.0297 3.78728,0 -0.13411,2.5955 -14.9456,9.8915 -16.05415,7.9086 -18.64667,8.9011 -18.64667,7.1382 z"
             id="path4108" />
        </g>
        <g
           id="g4124"
           style="fill:#ffffff;fill-opacity:1;stroke:#ffffff;stroke-opacity:1"
           transform="matrix(0.67825566,0,0,0.67825566,1221.5081,233.64891)">
          <path
             id="path4112"
             style="fill:#ffffff;stroke-width:0.896043;fill-opacity:1;stroke:#ffffff;stroke-opacity:1"
             d="m -430.85156,974.50977 c -11.19506,0.0992 -23.83008,2.56142 -23.83008,5.19335 0,0.60995 2.31864,1.83014 5.15234,2.71094 16.2477,5.0494 29.52043,17.89244 32.57813,31.52344 1.4893,6.6401 0.19154,9.7029 -6.35156,14.9883 -2.9471,2.3804 -6.64385,6.3122 -8.21485,8.7363 -1.5709,2.4245 -2.97634,4.4082 -3.12304,4.4082 -0.14685,0 -2.80154,-1.6447 -5.89844,-3.6562 -7.0179,-4.5584 -19.90493,-10.8394 -27.58203,-13.4414 -12.8431,-4.3531 -30.5986,-3.166 -50.1211,3.3535 -13.1373,4.387 -14.6175,5.9766 -6.5332,7.0156 11.2568,1.4469 16.04871,3.6889 30.50391,14.2676 l 7.45117,5.4531 -5.03516,0.6465 c -2.7691,0.3549 -8.54172,2.0577 -12.82812,3.7832 -20.606,8.2939 -22.12891,9.0396 -22.12891,10.8418 0,1.6391 0.87921,1.7901 13.44141,2.2949 7.3923,0.2966 15.30192,0.992 17.57812,1.5449 7.1315,1.7334 19.01498,5.6648 22.55078,7.461 3.2225,1.6371 3.78306,3.4453 1.06836,3.4453 -0.6916,0 -3.59116,0.8696 -6.44336,1.9316 -4.5413,1.6907 -6.94043,3.6916 -19.29883,16.0938 -7.762,7.7895 -14.11132,14.5935 -14.11132,15.1211 0,1.8665 2.55521,1.8916 8.63281,0.082 9.0225,-2.6867 41.06381,-9.0352 45.59961,-9.0352 2.147,0 4.21224,0.5006 4.58984,1.1114 1.1558,1.8701 0.51192,16.8401 -1.05078,24.4257 -1.7218,8.3583 -6.2839,19.847 -11.2793,28.4004 -3.091,5.2927 -6.17706,8.5536 -14.00586,14.7989 -1.3444,1.0723 -1.75664,1.9997 -1.24414,2.7988 1.6271,2.5384 18.9591,-8.4265 25.7168,-16.2695 1.7733,-2.058 4.84035,-6.4968 6.81445,-9.8614 1.974,-3.3646 3.8009,-5.9059 4.0586,-5.6484 0.7616,0.7615 -1.42955,11.8135 -3.90235,19.6895 -2.706,8.6187 -12.02948,27.3626 -15.67578,31.5156 -2.4434,2.7829 -3.16025,4.91 -2.03515,6.0351 0.7262,0.7261 5.25737,-1.2444 18.57617,-8.0742 9.7294,-4.9895 12.28266,-6.7596 16.72656,-11.6094 5.9069,-6.4463 11.83254,-17.0979 13.90234,-24.9863 1.7559,-6.6924 4.92832,-31.3512 4.94532,-38.4375 0.007,-2.9572 0.25217,-6.2744 0.54687,-7.373 0.493,-1.839 0.68564,-1.8919 2.42774,-0.6719 3.1926,2.2363 19.26588,1.1108 30.61328,-2.1426 2.2127,-0.6343 3.24272,-0.3615 5.82422,1.5371 4.1408,3.0451 5.07572,4.2176 7.66797,9.6231 5.6309,11.7431 2.878,29.352 -6.8086,43.5429 -2.2172,3.2482 -3.37422,5.747 -2.88672,6.2344 1.247,1.247 11.59939,-2.2938 17.96289,-6.1426 6.5902,-3.9861 14.35686,-11.4207 18.22266,-17.4453 6.1256,-9.5459 9.74805,-25.6389 9.74805,-43.3027 v -10.9785 l 15.45703,-7.6328 c 23.6853,-11.6969 38.47952,-21.6301 56.94922,-38.2364 22.9703,-20.6529 44.97656,-50.48864 44.97656,-60.98044 0,-2.7323 -0.59109,-3.90681 -3.05469,-6.07031 -6.4981,-5.7055 -17.83303,-7.76643 -42.64453,-7.73243 -19.1112,0.0222 -26.32232,0.6448 -47.04102,4.0586 -21.1102,3.4778 -52.12878,12.3931 -67.95898,19.5332 -3.3726,1.52078 -6.60941,2.76558 -7.19141,2.76558 -0.582,0 -2.81805,-2.41559 -4.96875,-5.36909 -9.2167,-12.6565 -21.8511,-19.51271 -39.6875,-21.53321 -2.25723,-0.25573 -4.76418,-0.35883 -7.34765,-0.33593 z m -0.19141,3.22461 c 14.90189,-0.15834 26.15878,3.39096 36.14063,11.32812 4.4756,3.5586 11.90429,12.3793 11.90429,14.1348 0,0.4613 -3.43937,2.5443 -7.64257,4.6289 -4.20324,2.0847 -10.88817,5.8049 -14.85547,8.2656 -3.9674,2.4604 -7.32635,4.4727 -7.46485,4.4727 -0.1384,0 -0.47826,-2.2006 -0.75586,-4.8907 -0.648,-6.2781 -5.8497,-16.29823 -11.4414,-22.03903 -4.7898,-4.9176 -12.27979,-9.94496 -18.39649,-12.34766 -5.6631,-2.2245 -3.78358,-2.9116 9.48242,-3.4707 1.02658,-0.0433 2.03584,-0.0715 3.0293,-0.082 z m 174.1875,0.46679 c 18.07565,0.0301 29.91793,1.64278 37.32813,5.03516 5.9059,2.7039 6.85096,4.96309 4.57226,10.92969 -2.805,7.34478 -13.55545,22.66638 -24.96875,35.58398 -3.5661,4.0363 -5.97217,6.0218 -7.23047,5.9668 -7.8939,-0.3381 -15.87461,-7.3782 -21.60351,-19.0586 -2.2091,-4.504 -4.62304,-10.5939 -5.36524,-13.5312 -1.7169,-6.7954 -1.74198,-17.52081 -0.0508,-21.56841 l 1.29883,-3.10742 7.88477,-0.16601 c 2.84188,-0.0597 5.55253,-0.0883 8.13476,-0.084 z m -20.2793,0.88672 -0.73632,3.49023 c -1.1408,5.40193 -0.68516,15.43133 0.99414,21.85738 4.044,15.4753 13.45915,28.7216 23.18945,32.627 l 5.20703,2.0898 -7.89648,7.2364 c -4.3424,3.9798 -10.71827,9.5061 -14.16797,12.2812 -29.139,23.4403 -83.57356,47.814 -120.06836,53.7617 -8.8465,1.4419 -13.8271,1.65 -15.2832,0.6368 -0.5204,-0.3621 -0.97668,-2.8772 -1.01368,-5.5879 -0.0919,-6.779 -2.58248,-13.577 -12.80468,-34.9453 -10.759,-22.4901 -11.66993,-24.6594 -11.66993,-27.8067 0,-7.7221 23.80431,-25.9854 49.28321,-37.8125 30.1588,-13.99954 67.98703,-24.50195 97.95703,-27.19725 z m -210.29882,46.10551 c 13.81164,-0.022 26.77876,4.8336 44.61132,15.3828 6.5398,3.8689 7.99378,5.1454 8.83008,7.7656 0.5506,1.7249 5.1887,11.8893 10.3086,22.5859 12.3474,25.7967 16.45542,38.3457 12.54882,38.3457 -1.7593,0 -3.22461,4.7604 -3.22461,10.4805 0,5.9452 -2.38918,27.0926 -4.05078,35.8535 -1.5565,8.2083 -4.46711,15.4103 -8.97461,22.211 -5.3538,8.0774 -9.41506,11.501 -20.41406,17.207 v 0 c -5.5105,2.8586 -10.51339,5.3268 -11.11719,5.4825 -0.6039,0.1573 0.49646,-2.4397 2.44336,-5.7715 8.7834,-15.0306 15.69369,-35.7503 14.99219,-44.9473 -0.3738,-4.8994 -1.56959,-7.1131 -3.27539,-6.0586 -0.5413,0.3344 -2.84032,3.8237 -5.10742,7.7539 -4.1705,7.2305 -11.61619,16.1877 -14.92969,17.961 l -1.80664,0.9687 1.81445,-2.5683 c 11.6284,-16.4568 19.29829,-50.7957 13.36719,-59.8477 -1.2835,-1.9579 -1.81421,-2.0749 -7.47461,-1.6484 -4.944,0.3722 -35.98751,6.455 -45.07031,8.832 -1.5707,0.4109 1.37307,-3.0696 9.85547,-11.6524 l 12.09765,-12.2402 8.73633,-2.7266 c 5.3343,-1.6638 8.73633,-3.1907 8.73633,-3.9218 0,-1.8932 -8.42485,-6.5812 -16.96875,-9.4434 -11.9047,-3.9885 -20.18184,-5.4951 -30.46094,-5.5351 l -9.34961,-0.037 10.5,-4.3886 c 14.3394,-5.9915 19.41061,-7.2406 24.65821,-6.0703 2.281,0.5091 5.06208,1.5209 6.17968,2.25 1.8104,1.1817 2.09168,1.173 2.57618,-0.09 0.6279,-1.6358 -2.76765,-4.786 -15.62305,-14.4941 -10.2706,-7.7561 -21.44568,-13.6847 -26.01758,-13.8067 -2.8401,-0.075 -2.20853,-0.4458 4.60547,-2.6992 10.12631,-3.3487 18.71692,-5.1174 27.00391,-5.1308 z m 155.87109,72.4355 c 0.4687,0 0.58238,5.3677 0.27148,12.7637 -0.6277,14.9321 -3.33533,27.1047 -7.96093,35.7832 -3.7358,7.0093 -12.29256,15.6067 -19.19336,19.2851 -6.161,3.2837 -10.52334,5.0579 -10.02344,4.0782 8.3933,-16.4542 10.1718,-23.0097 9.4375,-34.7793 -0.562,-9.0088 -3.33956,-15.5797 -8.59766,-20.3301 l -3.39648,-3.0664 10.4043,-3.3516 c 5.722,-1.8437 14.41847,-4.9325 19.32617,-6.8652 4.9078,-1.9328 9.28742,-3.5176 9.73242,-3.5176 z"
             transform="translate(-1235.5148,1052.7875)" />
          <path
             style="fill:#ffffff;stroke-width:0.896043;fill-opacity:1;stroke:#ffffff;stroke-opacity:1"
             d="m -1829.5678,2162.8974 c -0.3247,-0.5257 -0.4205,-1.1259 -0.2127,-1.3339 0.208,-0.2065 14.4171,-5.8504 31.5761,-12.5392 18.5707,-7.2393 31.5256,-11.8342 32.0073,-11.3524 0.4818,0.4821 0.3407,1.1941 -0.3487,1.76 -1.0886,0.8938 -60.7085,24.421 -61.8847,24.421 -0.3007,0 -0.8124,-0.4301 -1.1373,-0.9555 z"
             id="path4114" />
          <path
             style="fill:#ffffff;stroke-width:0.896043;fill-opacity:1;stroke:#ffffff;stroke-opacity:1"
             d="m -1805.7857,2190.3822 c 0,-0.7553 4.5015,-3.0855 11.4245,-5.9142 6.2835,-2.567 14.2396,-5.8368 17.68,-7.2658 6.998,-2.9068 8.5294,-3.1538 8.5294,-1.3751 0,1.075 -34.2659,15.8017 -36.7669,15.8017 -0.4768,0 -0.867,-0.5612 -0.867,-1.2466 z"
             id="path4116" />
          <path
             style="fill:#ffffff;stroke-width:0.896043;fill-opacity:1;stroke:#ffffff;stroke-opacity:1"
             d="m -1803.9937,2223.6308 c 0,-1.5637 59.0552,-25.2746 60.1708,-24.1589 0.5177,0.5176 0.3952,1.1987 -0.3217,1.7884 -1.4598,1.2003 -57.1787,23.5234 -58.7149,23.5234 -0.6238,0 -1.1342,-0.5187 -1.1342,-1.1529 z"
             id="path4118" />
          <path
             id="path4120"
             style="fill:#ffffff;stroke-width:0.896043;fill-opacity:1;stroke:#ffffff;stroke-opacity:1"
             d="m -371.26562,1029.1289 c -3.68946,-0.01 -7.41104,0.7495 -10.92188,2.3633 -6.991,3.2132 -10.22692,6.3275 -13.51172,13 -2.4209,4.9175 -2.89266,6.8821 -2.84766,11.8398 0.0967,10.5585 5.4964,18.972 15.0918,23.5118 4.3198,2.0436 6.6261,2.5468 11.6582,2.5468 10.78101,0 19.51076,-5.4395 24.84766,-15.4804 1.6257,-3.0586 2.01344,-5.2432 2.02344,-11.4004 0.01,-6.8697 -0.26328,-8.0979 -2.76758,-12.543 -4.92854,-8.7476 -14.14366,-13.8118 -23.57226,-13.8379 z m -0.19141,3.209 c 0.81742,0.01 1.66212,0.048 2.53711,0.1172 14.8428,1.1786 24.65707,15.3353 20.51367,29.5879 -1.991,6.8491 -7.97635,13.3768 -14.50195,15.8183 -9.122,3.4129 -18.93182,1.5019 -25.57032,-4.9804 -10.3566,-10.1131 -9.1262,-26.9451 2.625,-35.9082 4.27587,-3.2615 8.67451,-4.6987 14.39649,-4.6348 z"
             transform="translate(-1235.5148,1052.7875)" />
          <path
             id="path4122"
             style="fill:#ffffff;stroke-width:0.896043;fill-opacity:1;stroke:#ffffff;stroke-opacity:1"
             d="m -304.56445,1008.9785 c -8.53455,-0.229 -17.42785,5.0381 -19.81641,14.2461 -0.653,2.518 -1.03797,5.0674 -0.85547,5.6641 0.1824,0.597 0.57259,2.1869 0.86719,3.5332 0.6968,3.1827 5.56586,8.6925 9.00586,10.1914 1.4877,0.6483 5.16136,1.1789 8.16406,1.2129 7.2734,0.047 12.33927,-2.5938 16.35547,-8.5274 2.7848,-4.1142 2.97462,-4.8515 2.66602,-10.3535 -0.2709,-4.833 -0.80404,-6.5404 -2.89454,-9.2812 -3.38051,-4.4321 -8.37145,-6.5481 -13.49218,-6.6856 z m -1.39258,2.9492 c 2.4084,-0.059 4.84929,0.4439 7.13476,1.6348 5.7781,3.0108 7.66993,6.042 7.66993,12.291 0,4.3024 -0.42974,5.7161 -2.58594,8.543 -1.4212,1.8634 -4.24299,4.1413 -6.27149,5.0625 v 0 c -4.8155,2.1887 -9.9906,2.1532 -14.4414,-0.098 -4.7332,-2.3933 -6.91808,-5.5806 -7.42188,-10.8242 -0.86414,-8.9936 7.31459,-16.3953 15.91602,-16.6075 z"
             transform="translate(-1235.5148,1052.7875)" />
        </g>
        <g
           id="g4134"
           transform="matrix(0.40593873,0,0,0.40593873,628.80483,790.58686)"
           style="fill:#ffffff;fill-opacity:1;stroke:#ffffff;stroke-opacity:1">
          <path
             style="fill:#ffffff;stroke-width:0.896043;fill-opacity:1;stroke:#ffffff;stroke-opacity:1"
             d="m -858.23661,2252.056 c 0.57196,-1.7607 49.25736,-23.2423 50.30377,-22.1961 0.48665,0.4868 0.71007,1.0517 0.49651,1.2556 -0.84276,0.8042 -49.12863,22.0603 -50.11307,22.0603 -0.57813,0 -0.88736,-0.5038 -0.68721,-1.1198 z"
             id="path4126" />
          <path
             style="fill:#ffffff;stroke-width:0.896043;fill-opacity:1;stroke:#ffffff;stroke-opacity:1"
             d="m -829.74781,2253.8479 c 0.0305,-1.1209 25.34641,-13.2585 27.59814,-13.2313 3.31774,0.04 -0.76028,2.7249 -12.45111,8.1963 -13.50676,6.3215 -15.19639,6.8831 -15.14703,5.035 z"
             id="path4128" />
          <path
             id="path4130"
             style="fill:#ffffff;stroke-width:0.896043;fill-opacity:1;stroke:#ffffff;stroke-opacity:1"
             d="m 462.16406,1116.832 c -0.0608,-0.013 -0.10731,0 -0.13867,0.027 -0.4534,0.4536 -3.00238,7.9899 -5.66601,16.748 -2.66363,8.7583 -4.96214,16.0102 -5.10743,16.1153 -0.14533,0.1044 -3.94674,1.457 -8.44726,3.0058 -17.89283,6.157 -23.62769,8.4488 -23.61719,9.4395 0.006,0.5692 6.45709,5.2684 14.33594,10.4433 l 14.32617,9.4082 v 17.0996 c 4.4e-4,9.4045 0.27111,17.3688 0.59961,17.6973 v 0.01 c 0.32856,0.3298 0.76818,0.5976 0.97851,0.5976 0.2104,0 5.80794,-4.1339 12.4375,-9.1855 6.62959,-5.0513 12.77817,-9.6955 13.66407,-10.3203 1.35394,-0.9549 3.81194,-0.4852 15.41601,2.9433 7.59273,2.2437 14.93102,4.4543 16.3086,4.9121 1.864,0.6198 2.62223,0.5287 2.96289,-0.3593 0.25176,-0.656 -2.18498,-8.0968 -5.41602,-16.5332 -3.23105,-8.436 -5.875,-15.6735 -5.875,-16.084 0,-0.4108 4.43634,-6.7588 9.85742,-14.1055 5.4211,-7.3465 9.85547,-13.8953 9.85547,-14.5527 0,-0.9743 -2.43997,-1.062 -13.21679,-0.4785 -7.26919,0.3939 -15.2068,0.7246 -17.63868,0.7246 h -4.42187 l -10.25586,-14.1739 c -5.85273,-8.0895 -10.02875,-13.187 -10.94141,-13.3789 z m 0.99414,5.211 c 0.28752,-0.2784 4.7131,5.3729 9.83399,12.5586 l 9.31054,13.0644 9.43165,-0.5449 c 5.18733,-0.2995 12.57932,-0.7786 16.42773,-1.0664 l 6.99805,-0.5215 -9.81641,13.2754 c -8.87553,12.0033 -9.73325,13.4943 -8.93555,15.5547 5.74954,14.8517 10.61808,28.0671 10.40235,28.2363 -0.14794,0.1163 -6.72027,-1.7381 -14.60547,-4.123 -7.88518,-2.3848 -14.75628,-4.3477 -15.26953,-4.3477 -0.51326,-0.01 -6.47848,4.2221 -13.25586,9.3965 -6.77741,5.1747 -12.50561,9.4082 -12.73047,9.4082 -0.22508,0 -0.41016,-7.2525 -0.41016,-16.1152 v -16.1133 l -13.62695,-9.1153 -13.62695,-9.1132 8.47461,-3.0118 c 4.66135,-1.6565 11.49914,-4.1282 15.19531,-5.4921 l 6.7207,-2.4805 4.48047,-14.4727 c 2.46414,-7.9596 4.71443,-14.6987 5.00195,-14.9765 z"
             transform="translate(-1235.5148,1052.7875)" />
          <path
             style="fill:#ffffff;stroke-width:0.896043;fill-opacity:1;stroke:#ffffff;stroke-opacity:1"
             d="m -827.98561,2269.309 c 0,-1.0303 31.56053,-17.0297 33.59227,-17.0297 3.78728,0 -0.13411,2.5955 -14.9456,9.8915 -16.05415,7.9086 -18.64667,8.9011 -18.64667,7.1382 z"
             id="path4132" />
        </g>
        <g
           id="g4144"
           transform="matrix(0.40593873,0,0,0.40593873,768.80483,842.58686)"
           style="fill:#000000;stroke:#000000;stroke-opacity:1">
          <path
             style="fill:#000000;stroke-width:0.896043;stroke:#000000;stroke-opacity:1"
             d="m -858.23661,2252.056 c 0.57196,-1.7607 49.25736,-23.2423 50.30377,-22.1961 0.48665,0.4868 0.71007,1.0517 0.49651,1.2556 -0.84276,0.8042 -49.12863,22.0603 -50.11307,22.0603 -0.57813,0 -0.88736,-0.5038 -0.68721,-1.1198 z"
             id="path4136" />
          <path
             style="fill:#000000;stroke-width:0.896043;stroke:#000000;stroke-opacity:1"
             d="m -829.74781,2253.8479 c 0.0305,-1.1209 25.34641,-13.2585 27.59814,-13.2313 3.31774,0.04 -0.76028,2.7249 -12.45111,8.1963 -13.50676,6.3215 -15.19639,6.8831 -15.14703,5.035 z"
             id="path4138" />
          <path
             id="path4140"
             style="fill:#000000;stroke-width:0.896043;stroke:#000000;stroke-opacity:1"
             d="m 462.16406,1116.832 c -0.0608,-0.013 -0.10731,0 -0.13867,0.027 -0.4534,0.4536 -3.00238,7.9899 -5.66601,16.748 -2.66363,8.7583 -4.96214,16.0102 -5.10743,16.1153 -0.14533,0.1044 -3.94674,1.457 -8.44726,3.0058 -17.89283,6.157 -23.62769,8.4488 -23.61719,9.4395 0.006,0.5692 6.45709,5.2684 14.33594,10.4433 l 14.32617,9.4082 v 17.0996 c 4.4e-4,9.4045 0.27111,17.3688 0.59961,17.6973 v 0.01 c 0.32856,0.3298 0.76818,0.5976 0.97851,0.5976 0.2104,0 5.80794,-4.1339 12.4375,-9.1855 6.62959,-5.0513 12.77817,-9.6955 13.66407,-10.3203 1.35394,-0.9549 3.81194,-0.4852 15.41601,2.9433 7.59273,2.2437 14.93102,4.4543 16.3086,4.9121 1.864,0.6198 2.62223,0.5287 2.96289,-0.3593 0.25176,-0.656 -2.18498,-8.0968 -5.41602,-16.5332 -3.23105,-8.436 -5.875,-15.6735 -5.875,-16.084 0,-0.4108 4.43634,-6.7588 9.85742,-14.1055 5.4211,-7.3465 9.85547,-13.8953 9.85547,-14.5527 0,-0.9743 -2.43997,-1.062 -13.21679,-0.4785 -7.26919,0.3939 -15.2068,0.7246 -17.63868,0.7246 h -4.42187 l -10.25586,-14.1739 c -5.85273,-8.0895 -10.02875,-13.187 -10.94141,-13.3789 z m 0.99414,5.211 c 0.28752,-0.2784 4.7131,5.3729 9.83399,12.5586 l 9.31054,13.0644 9.43165,-0.5449 c 5.18733,-0.2995 12.57932,-0.7786 16.42773,-1.0664 l 6.99805,-0.5215 -9.81641,13.2754 c -8.87553,12.0033 -9.73325,13.4943 -8.93555,15.5547 5.74954,14.8517 10.61808,28.0671 10.40235,28.2363 -0.14794,0.1163 -6.72027,-1.7381 -14.60547,-4.123 -7.88518,-2.3848 -14.75628,-4.3477 -15.26953,-4.3477 -0.51326,-0.01 -6.47848,4.2221 -13.25586,9.3965 -6.77741,5.1747 -12.50561,9.4082 -12.73047,9.4082 -0.22508,0 -0.41016,-7.2525 -0.41016,-16.1152 v -16.1133 l -13.62695,-9.1153 -13.62695,-9.1132 8.47461,-3.0118 c 4.66135,-1.6565 11.49914,-4.1282 15.19531,-5.4921 l 6.7207,-2.4805 4.48047,-14.4727 c 2.46414,-7.9596 4.71443,-14.6987 5.00195,-14.9765 z"
             transform="translate(-1235.5148,1052.7875)" />
          <path
             style="fill:#000000;stroke-width:0.896043;stroke:#000000;stroke-opacity:1"
             d="m -827.98561,2269.309 c 0,-1.0303 31.56053,-17.0297 33.59227,-17.0297 3.78728,0 -0.13411,2.5955 -14.9456,9.8915 -16.05415,7.9086 -18.64667,8.9011 -18.64667,7.1382 z"
             id="path4142" />
        </g>
        <g
           id="g4154"
           transform="matrix(0.40593873,0,0,0.40593873,956.80483,738.58686)"
           style="fill:#000000;stroke:#000000;stroke-opacity:1">
          <path
             style="fill:#000000;stroke-width:0.896043;stroke:#000000;stroke-opacity:1"
             d="m -858.23661,2252.056 c 0.57196,-1.7607 49.25736,-23.2423 50.30377,-22.1961 0.48665,0.4868 0.71007,1.0517 0.49651,1.2556 -0.84276,0.8042 -49.12863,22.0603 -50.11307,22.0603 -0.57813,0 -0.88736,-0.5038 -0.68721,-1.1198 z"
             id="path4146" />
          <path
             style="fill:#000000;stroke-width:0.896043;stroke:#000000;stroke-opacity:1"
             d="m -829.74781,2253.8479 c 0.0305,-1.1209 25.34641,-13.2585 27.59814,-13.2313 3.31774,0.04 -0.76028,2.7249 -12.45111,8.1963 -13.50676,6.3215 -15.19639,6.8831 -15.14703,5.035 z"
             id="path4148" />
          <path
             id="path4150"
             style="fill:#000000;stroke-width:0.896043;stroke:#000000;stroke-opacity:1"
             d="m 462.16406,1116.832 c -0.0608,-0.013 -0.10731,0 -0.13867,0.027 -0.4534,0.4536 -3.00238,7.9899 -5.66601,16.748 -2.66363,8.7583 -4.96214,16.0102 -5.10743,16.1153 -0.14533,0.1044 -3.94674,1.457 -8.44726,3.0058 -17.89283,6.157 -23.62769,8.4488 -23.61719,9.4395 0.006,0.5692 6.45709,5.2684 14.33594,10.4433 l 14.32617,9.4082 v 17.0996 c 4.4e-4,9.4045 0.27111,17.3688 0.59961,17.6973 v 0.01 c 0.32856,0.3298 0.76818,0.5976 0.97851,0.5976 0.2104,0 5.80794,-4.1339 12.4375,-9.1855 6.62959,-5.0513 12.77817,-9.6955 13.66407,-10.3203 1.35394,-0.9549 3.81194,-0.4852 15.41601,2.9433 7.59273,2.2437 14.93102,4.4543 16.3086,4.9121 1.864,0.6198 2.62223,0.5287 2.96289,-0.3593 0.25176,-0.656 -2.18498,-8.0968 -5.41602,-16.5332 -3.23105,-8.436 -5.875,-15.6735 -5.875,-16.084 0,-0.4108 4.43634,-6.7588 9.85742,-14.1055 5.4211,-7.3465 9.85547,-13.8953 9.85547,-14.5527 0,-0.9743 -2.43997,-1.062 -13.21679,-0.4785 -7.26919,0.3939 -15.2068,0.7246 -17.63868,0.7246 h -4.42187 l -10.25586,-14.1739 c -5.85273,-8.0895 -10.02875,-13.187 -10.94141,-13.3789 z m 0.99414,5.211 c 0.28752,-0.2784 4.7131,5.3729 9.83399,12.5586 l 9.31054,13.0644 9.43165,-0.5449 c 5.18733,-0.2995 12.57932,-0.7786 16.42773,-1.0664 l 6.99805,-0.5215 -9.81641,13.2754 c -8.87553,12.0033 -9.73325,13.4943 -8.93555,15.5547 5.74954,14.8517 10.61808,28.0671 10.40235,28.2363 -0.14794,0.1163 -6.72027,-1.7381 -14.60547,-4.123 -7.88518,-2.3848 -14.75628,-4.3477 -15.26953,-4.3477 -0.51326,-0.01 -6.47848,4.2221 -13.25586,9.3965 -6.77741,5.1747 -12.50561,9.4082 -12.73047,9.4082 -0.22508,0 -0.41016,-7.2525 -0.41016,-16.1152 v -16.1133 l -13.62695,-9.1153 -13.62695,-9.1132 8.47461,-3.0118 c 4.66135,-1.6565 11.49914,-4.1282 15.19531,-5.4921 l 6.7207,-2.4805 4.48047,-14.4727 c 2.46414,-7.9596 4.71443,-14.6987 5.00195,-14.9765 z"
             transform="translate(-1235.5148,1052.7875)" />
          <path
             style="fill:#000000;stroke-width:0.896043;stroke:#000000;stroke-opacity:1"
             d="m -827.98561,2269.309 c 0,-1.0303 31.56053,-17.0297 33.59227,-17.0297 3.78728,0 -0.13411,2.5955 -14.9456,9.8915 -16.05415,7.9086 -18.64667,8.9011 -18.64667,7.1382 z"
             id="path4152" />
        </g>
        <g
           id="g4164"
           transform="matrix(0.40593873,0,0,0.40593873,1206.8048,638.58686)"
           style="fill:#ffffff;fill-opacity:1;stroke:#ffffff;stroke-opacity:1">
          <path
             style="fill:#ffffff;stroke-width:0.896043;fill-opacity:1;stroke:#ffffff;stroke-opacity:1"
             d="m -858.23661,2252.056 c 0.57196,-1.7607 49.25736,-23.2423 50.30377,-22.1961 0.48665,0.4868 0.71007,1.0517 0.49651,1.2556 -0.84276,0.8042 -49.12863,22.0603 -50.11307,22.0603 -0.57813,0 -0.88736,-0.5038 -0.68721,-1.1198 z"
             id="path4156" />
          <path
             style="fill:#ffffff;stroke-width:0.896043;fill-opacity:1;stroke:#ffffff;stroke-opacity:1"
             d="m -829.74781,2253.8479 c 0.0305,-1.1209 25.34641,-13.2585 27.59814,-13.2313 3.31774,0.04 -0.76028,2.7249 -12.45111,8.1963 -13.50676,6.3215 -15.19639,6.8831 -15.14703,5.035 z"
             id="path4158" />
          <path
             id="path4160"
             style="fill:#ffffff;stroke-width:0.896043;fill-opacity:1;stroke:#ffffff;stroke-opacity:1"
             d="m 462.16406,1116.832 c -0.0608,-0.013 -0.10731,0 -0.13867,0.027 -0.4534,0.4536 -3.00238,7.9899 -5.66601,16.748 -2.66363,8.7583 -4.96214,16.0102 -5.10743,16.1153 -0.14533,0.1044 -3.94674,1.457 -8.44726,3.0058 -17.89283,6.157 -23.62769,8.4488 -23.61719,9.4395 0.006,0.5692 6.45709,5.2684 14.33594,10.4433 l 14.32617,9.4082 v 17.0996 c 4.4e-4,9.4045 0.27111,17.3688 0.59961,17.6973 v 0.01 c 0.32856,0.3298 0.76818,0.5976 0.97851,0.5976 0.2104,0 5.80794,-4.1339 12.4375,-9.1855 6.62959,-5.0513 12.77817,-9.6955 13.66407,-10.3203 1.35394,-0.9549 3.81194,-0.4852 15.41601,2.9433 7.59273,2.2437 14.93102,4.4543 16.3086,4.9121 1.864,0.6198 2.62223,0.5287 2.96289,-0.3593 0.25176,-0.656 -2.18498,-8.0968 -5.41602,-16.5332 -3.23105,-8.436 -5.875,-15.6735 -5.875,-16.084 0,-0.4108 4.43634,-6.7588 9.85742,-14.1055 5.4211,-7.3465 9.85547,-13.8953 9.85547,-14.5527 0,-0.9743 -2.43997,-1.062 -13.21679,-0.4785 -7.26919,0.3939 -15.2068,0.7246 -17.63868,0.7246 h -4.42187 l -10.25586,-14.1739 c -5.85273,-8.0895 -10.02875,-13.187 -10.94141,-13.3789 z m 0.99414,5.211 c 0.28752,-0.2784 4.7131,5.3729 9.83399,12.5586 l 9.31054,13.0644 9.43165,-0.5449 c 5.18733,-0.2995 12.57932,-0.7786 16.42773,-1.0664 l 6.99805,-0.5215 -9.81641,13.2754 c -8.87553,12.0033 -9.73325,13.4943 -8.93555,15.5547 5.74954,14.8517 10.61808,28.0671 10.40235,28.2363 -0.14794,0.1163 -6.72027,-1.7381 -14.60547,-4.123 -7.88518,-2.3848 -14.75628,-4.3477 -15.26953,-4.3477 -0.51326,-0.01 -6.47848,4.2221 -13.25586,9.3965 -6.77741,5.1747 -12.50561,9.4082 -12.73047,9.4082 -0.22508,0 -0.41016,-7.2525 -0.41016,-16.1152 v -16.1133 l -13.62695,-9.1153 -13.62695,-9.1132 8.47461,-3.0118 c 4.66135,-1.6565 11.49914,-4.1282 15.19531,-5.4921 l 6.7207,-2.4805 4.48047,-14.4727 c 2.46414,-7.9596 4.71443,-14.6987 5.00195,-14.9765 z"
             transform="translate(-1235.5148,1052.7875)" />
          <path
             style="fill:#ffffff;stroke-width:0.896043;fill-opacity:1;stroke:#ffffff;stroke-opacity:1"
             d="m -827.98561,2269.309 c 0,-1.0303 31.56053,-17.0297 33.59227,-17.0297 3.78728,0 -0.13411,2.5955 -14.9456,9.8915 -16.05415,7.9086 -18.64667,8.9011 -18.64667,7.1382 z"
             id="path4162" />
        </g>
        <g
           id="g4174"
           transform="matrix(0.61553336,0,0,0.61553336,1375.0582,307.84733)"
           style="fill:#fece00;fill-opacity:1;stroke:#fece00;stroke-opacity:1">
          <path
             style="fill:#fece00;stroke-width:0.896043;fill-opacity:1;stroke:#fece00;stroke-opacity:1"
             d="m -858.23661,2252.056 c 0.57196,-1.7607 49.25736,-23.2423 50.30377,-22.1961 0.48665,0.4868 0.71007,1.0517 0.49651,1.2556 -0.84276,0.8042 -49.12863,22.0603 -50.11307,22.0603 -0.57813,0 -0.88736,-0.5038 -0.68721,-1.1198 z"
             id="path4166" />
          <path
             style="fill:#fece00;stroke-width:0.896043;fill-opacity:1;stroke:#fece00;stroke-opacity:1"
             d="m -829.74781,2253.8479 c 0.0305,-1.1209 25.34641,-13.2585 27.59814,-13.2313 3.31774,0.04 -0.76028,2.7249 -12.45111,8.1963 -13.50676,6.3215 -15.19639,6.8831 -15.14703,5.035 z"
             id="path4168" />
          <path
             id="path4170"
             style="fill:#fece00;stroke-width:0.896043;fill-opacity:1;stroke:#fece00;stroke-opacity:1"
             d="m 462.16406,1116.832 c -0.0608,-0.013 -0.10731,0 -0.13867,0.027 -0.4534,0.4536 -3.00238,7.9899 -5.66601,16.748 -2.66363,8.7583 -4.96214,16.0102 -5.10743,16.1153 -0.14533,0.1044 -3.94674,1.457 -8.44726,3.0058 -17.89283,6.157 -23.62769,8.4488 -23.61719,9.4395 0.006,0.5692 6.45709,5.2684 14.33594,10.4433 l 14.32617,9.4082 v 17.0996 c 4.4e-4,9.4045 0.27111,17.3688 0.59961,17.6973 v 0.01 c 0.32856,0.3298 0.76818,0.5976 0.97851,0.5976 0.2104,0 5.80794,-4.1339 12.4375,-9.1855 6.62959,-5.0513 12.77817,-9.6955 13.66407,-10.3203 1.35394,-0.9549 3.81194,-0.4852 15.41601,2.9433 7.59273,2.2437 14.93102,4.4543 16.3086,4.9121 1.864,0.6198 2.62223,0.5287 2.96289,-0.3593 0.25176,-0.656 -2.18498,-8.0968 -5.41602,-16.5332 -3.23105,-8.436 -5.875,-15.6735 -5.875,-16.084 0,-0.4108 4.43634,-6.7588 9.85742,-14.1055 5.4211,-7.3465 9.85547,-13.8953 9.85547,-14.5527 0,-0.9743 -2.43997,-1.062 -13.21679,-0.4785 -7.26919,0.3939 -15.2068,0.7246 -17.63868,0.7246 h -4.42187 l -10.25586,-14.1739 c -5.85273,-8.0895 -10.02875,-13.187 -10.94141,-13.3789 z m 0.99414,5.211 c 0.28752,-0.2784 4.7131,5.3729 9.83399,12.5586 l 9.31054,13.0644 9.43165,-0.5449 c 5.18733,-0.2995 12.57932,-0.7786 16.42773,-1.0664 l 6.99805,-0.5215 -9.81641,13.2754 c -8.87553,12.0033 -9.73325,13.4943 -8.93555,15.5547 5.74954,14.8517 10.61808,28.0671 10.40235,28.2363 -0.14794,0.1163 -6.72027,-1.7381 -14.60547,-4.123 -7.88518,-2.3848 -14.75628,-4.3477 -15.26953,-4.3477 -0.51326,-0.01 -6.47848,4.2221 -13.25586,9.3965 -6.77741,5.1747 -12.50561,9.4082 -12.73047,9.4082 -0.22508,0 -0.41016,-7.2525 -0.41016,-16.1152 v -16.1133 l -13.62695,-9.1153 -13.62695,-9.1132 8.47461,-3.0118 c 4.66135,-1.6565 11.49914,-4.1282 15.19531,-5.4921 l 6.7207,-2.4805 4.48047,-14.4727 c 2.46414,-7.9596 4.71443,-14.6987 5.00195,-14.9765 z"
             transform="translate(-1235.5148,1052.7875)" />
          <path
             style="fill:#fece00;stroke-width:0.896043;fill-opacity:1;stroke:#fece00;stroke-opacity:1"
             d="m -827.98561,2269.309 c 0,-1.0303 31.56053,-17.0297 33.59227,-17.0297 3.78728,0 -0.13411,2.5955 -14.9456,9.8915 -16.05415,7.9086 -18.64667,8.9011 -18.64667,7.1382 z"
             id="path4172" />
        </g>
        <g
           id="g4188"
           style="fill:#fece00;stroke:#fece00;stroke-opacity:1;fill-opacity:1"
           transform="matrix(0.67825566,0,0,0.67825566,1767.5081,329.64891)">
          <path
             id="path4176"
             style="fill:#fece00;stroke-width:0.896043;stroke:#fece00;stroke-opacity:1;fill-opacity:1"
             d="m -430.85156,974.50977 c -11.19506,0.0992 -23.83008,2.56142 -23.83008,5.19335 0,0.60995 2.31864,1.83014 5.15234,2.71094 16.2477,5.0494 29.52043,17.89244 32.57813,31.52344 1.4893,6.6401 0.19154,9.7029 -6.35156,14.9883 -2.9471,2.3804 -6.64385,6.3122 -8.21485,8.7363 -1.5709,2.4245 -2.97634,4.4082 -3.12304,4.4082 -0.14685,0 -2.80154,-1.6447 -5.89844,-3.6562 -7.0179,-4.5584 -19.90493,-10.8394 -27.58203,-13.4414 -12.8431,-4.3531 -30.5986,-3.166 -50.1211,3.3535 -13.1373,4.387 -14.6175,5.9766 -6.5332,7.0156 11.2568,1.4469 16.04871,3.6889 30.50391,14.2676 l 7.45117,5.4531 -5.03516,0.6465 c -2.7691,0.3549 -8.54172,2.0577 -12.82812,3.7832 -20.606,8.2939 -22.12891,9.0396 -22.12891,10.8418 0,1.6391 0.87921,1.7901 13.44141,2.2949 7.3923,0.2966 15.30192,0.992 17.57812,1.5449 7.1315,1.7334 19.01498,5.6648 22.55078,7.461 3.2225,1.6371 3.78306,3.4453 1.06836,3.4453 -0.6916,0 -3.59116,0.8696 -6.44336,1.9316 -4.5413,1.6907 -6.94043,3.6916 -19.29883,16.0938 -7.762,7.7895 -14.11132,14.5935 -14.11132,15.1211 0,1.8665 2.55521,1.8916 8.63281,0.082 9.0225,-2.6867 41.06381,-9.0352 45.59961,-9.0352 2.147,0 4.21224,0.5006 4.58984,1.1114 1.1558,1.8701 0.51192,16.8401 -1.05078,24.4257 -1.7218,8.3583 -6.2839,19.847 -11.2793,28.4004 -3.091,5.2927 -6.17706,8.5536 -14.00586,14.7989 -1.3444,1.0723 -1.75664,1.9997 -1.24414,2.7988 1.6271,2.5384 18.9591,-8.4265 25.7168,-16.2695 1.7733,-2.058 4.84035,-6.4968 6.81445,-9.8614 1.974,-3.3646 3.8009,-5.9059 4.0586,-5.6484 0.7616,0.7615 -1.42955,11.8135 -3.90235,19.6895 -2.706,8.6187 -12.02948,27.3626 -15.67578,31.5156 -2.4434,2.7829 -3.16025,4.91 -2.03515,6.0351 0.7262,0.7261 5.25737,-1.2444 18.57617,-8.0742 9.7294,-4.9895 12.28266,-6.7596 16.72656,-11.6094 5.9069,-6.4463 11.83254,-17.0979 13.90234,-24.9863 1.7559,-6.6924 4.92832,-31.3512 4.94532,-38.4375 0.007,-2.9572 0.25217,-6.2744 0.54687,-7.373 0.493,-1.839 0.68564,-1.8919 2.42774,-0.6719 3.1926,2.2363 19.26588,1.1108 30.61328,-2.1426 2.2127,-0.6343 3.24272,-0.3615 5.82422,1.5371 4.1408,3.0451 5.07572,4.2176 7.66797,9.6231 5.6309,11.7431 2.878,29.352 -6.8086,43.5429 -2.2172,3.2482 -3.37422,5.747 -2.88672,6.2344 1.247,1.247 11.59939,-2.2938 17.96289,-6.1426 6.5902,-3.9861 14.35686,-11.4207 18.22266,-17.4453 6.1256,-9.5459 9.74805,-25.6389 9.74805,-43.3027 v -10.9785 l 15.45703,-7.6328 c 23.6853,-11.6969 38.47952,-21.6301 56.94922,-38.2364 22.9703,-20.6529 44.97656,-50.48864 44.97656,-60.98044 0,-2.7323 -0.59109,-3.90681 -3.05469,-6.07031 -6.4981,-5.7055 -17.83303,-7.76643 -42.64453,-7.73243 -19.1112,0.0222 -26.32232,0.6448 -47.04102,4.0586 -21.1102,3.4778 -52.12878,12.3931 -67.95898,19.5332 -3.3726,1.52078 -6.60941,2.76558 -7.19141,2.76558 -0.582,0 -2.81805,-2.41559 -4.96875,-5.36909 -9.2167,-12.6565 -21.8511,-19.51271 -39.6875,-21.53321 -2.25723,-0.25573 -4.76418,-0.35883 -7.34765,-0.33593 z m -0.19141,3.22461 c 14.90189,-0.15834 26.15878,3.39096 36.14063,11.32812 4.4756,3.5586 11.90429,12.3793 11.90429,14.1348 0,0.4613 -3.43937,2.5443 -7.64257,4.6289 -4.20324,2.0847 -10.88817,5.8049 -14.85547,8.2656 -3.9674,2.4604 -7.32635,4.4727 -7.46485,4.4727 -0.1384,0 -0.47826,-2.2006 -0.75586,-4.8907 -0.648,-6.2781 -5.8497,-16.29823 -11.4414,-22.03903 -4.7898,-4.9176 -12.27979,-9.94496 -18.39649,-12.34766 -5.6631,-2.2245 -3.78358,-2.9116 9.48242,-3.4707 1.02658,-0.0433 2.03584,-0.0715 3.0293,-0.082 z m 174.1875,0.46679 c 18.07565,0.0301 29.91793,1.64278 37.32813,5.03516 5.9059,2.7039 6.85096,4.96309 4.57226,10.92969 -2.805,7.34478 -13.55545,22.66638 -24.96875,35.58398 -3.5661,4.0363 -5.97217,6.0218 -7.23047,5.9668 -7.8939,-0.3381 -15.87461,-7.3782 -21.60351,-19.0586 -2.2091,-4.504 -4.62304,-10.5939 -5.36524,-13.5312 -1.7169,-6.7954 -1.74198,-17.52081 -0.0508,-21.56841 l 1.29883,-3.10742 7.88477,-0.16601 c 2.84188,-0.0597 5.55253,-0.0883 8.13476,-0.084 z m -20.2793,0.88672 -0.73632,3.49023 c -1.1408,5.40193 -0.68516,15.43133 0.99414,21.85738 4.044,15.4753 13.45915,28.7216 23.18945,32.627 l 5.20703,2.0898 -7.89648,7.2364 c -4.3424,3.9798 -10.71827,9.5061 -14.16797,12.2812 -29.139,23.4403 -83.57356,47.814 -120.06836,53.7617 -8.8465,1.4419 -13.8271,1.65 -15.2832,0.6368 -0.5204,-0.3621 -0.97668,-2.8772 -1.01368,-5.5879 -0.0919,-6.779 -2.58248,-13.577 -12.80468,-34.9453 -10.759,-22.4901 -11.66993,-24.6594 -11.66993,-27.8067 0,-7.7221 23.80431,-25.9854 49.28321,-37.8125 30.1588,-13.99954 67.98703,-24.50195 97.95703,-27.19725 z m -210.29882,46.10551 c 13.81164,-0.022 26.77876,4.8336 44.61132,15.3828 6.5398,3.8689 7.99378,5.1454 8.83008,7.7656 0.5506,1.7249 5.1887,11.8893 10.3086,22.5859 12.3474,25.7967 16.45542,38.3457 12.54882,38.3457 -1.7593,0 -3.22461,4.7604 -3.22461,10.4805 0,5.9452 -2.38918,27.0926 -4.05078,35.8535 -1.5565,8.2083 -4.46711,15.4103 -8.97461,22.211 -5.3538,8.0774 -9.41506,11.501 -20.41406,17.207 v 0 c -5.5105,2.8586 -10.51339,5.3268 -11.11719,5.4825 -0.6039,0.1573 0.49646,-2.4397 2.44336,-5.7715 8.7834,-15.0306 15.69369,-35.7503 14.99219,-44.9473 -0.3738,-4.8994 -1.56959,-7.1131 -3.27539,-6.0586 -0.5413,0.3344 -2.84032,3.8237 -5.10742,7.7539 -4.1705,7.2305 -11.61619,16.1877 -14.92969,17.961 l -1.80664,0.9687 1.81445,-2.5683 c 11.6284,-16.4568 19.29829,-50.7957 13.36719,-59.8477 -1.2835,-1.9579 -1.81421,-2.0749 -7.47461,-1.6484 -4.944,0.3722 -35.98751,6.455 -45.07031,8.832 -1.5707,0.4109 1.37307,-3.0696 9.85547,-11.6524 l 12.09765,-12.2402 8.73633,-2.7266 c 5.3343,-1.6638 8.73633,-3.1907 8.73633,-3.9218 0,-1.8932 -8.42485,-6.5812 -16.96875,-9.4434 -11.9047,-3.9885 -20.18184,-5.4951 -30.46094,-5.5351 l -9.34961,-0.037 10.5,-4.3886 c 14.3394,-5.9915 19.41061,-7.2406 24.65821,-6.0703 2.281,0.5091 5.06208,1.5209 6.17968,2.25 1.8104,1.1817 2.09168,1.173 2.57618,-0.09 0.6279,-1.6358 -2.76765,-4.786 -15.62305,-14.4941 -10.2706,-7.7561 -21.44568,-13.6847 -26.01758,-13.8067 -2.8401,-0.075 -2.20853,-0.4458 4.60547,-2.6992 10.12631,-3.3487 18.71692,-5.1174 27.00391,-5.1308 z m 155.87109,72.4355 c 0.4687,0 0.58238,5.3677 0.27148,12.7637 -0.6277,14.9321 -3.33533,27.1047 -7.96093,35.7832 -3.7358,7.0093 -12.29256,15.6067 -19.19336,19.2851 -6.161,3.2837 -10.52334,5.0579 -10.02344,4.0782 8.3933,-16.4542 10.1718,-23.0097 9.4375,-34.7793 -0.562,-9.0088 -3.33956,-15.5797 -8.59766,-20.3301 l -3.39648,-3.0664 10.4043,-3.3516 c 5.722,-1.8437 14.41847,-4.9325 19.32617,-6.8652 4.9078,-1.9328 9.28742,-3.5176 9.73242,-3.5176 z"
             transform="translate(-1235.5148,1052.7875)" />
          <path
             style="fill:#fece00;stroke-width:0.896043;stroke:#fece00;stroke-opacity:1;fill-opacity:1"
             d="m -1829.5678,2162.8974 c -0.3247,-0.5257 -0.4205,-1.1259 -0.2127,-1.3339 0.208,-0.2065 14.4171,-5.8504 31.5761,-12.5392 18.5707,-7.2393 31.5256,-11.8342 32.0073,-11.3524 0.4818,0.4821 0.3407,1.1941 -0.3487,1.76 -1.0886,0.8938 -60.7085,24.421 -61.8847,24.421 -0.3007,0 -0.8124,-0.4301 -1.1373,-0.9555 z"
             id="path4178" />
          <path
             style="fill:#fece00;stroke-width:0.896043;stroke:#fece00;stroke-opacity:1;fill-opacity:1"
             d="m -1805.7857,2190.3822 c 0,-0.7553 4.5015,-3.0855 11.4245,-5.9142 6.2835,-2.567 14.2396,-5.8368 17.68,-7.2658 6.998,-2.9068 8.5294,-3.1538 8.5294,-1.3751 0,1.075 -34.2659,15.8017 -36.7669,15.8017 -0.4768,0 -0.867,-0.5612 -0.867,-1.2466 z"
             id="path4180" />
          <path
             style="fill:#fece00;stroke-width:0.896043;stroke:#fece00;stroke-opacity:1;fill-opacity:1"
             d="m -1803.9937,2223.6308 c 0,-1.5637 59.0552,-25.2746 60.1708,-24.1589 0.5177,0.5176 0.3952,1.1987 -0.3217,1.7884 -1.4598,1.2003 -57.1787,23.5234 -58.7149,23.5234 -0.6238,0 -1.1342,-0.5187 -1.1342,-1.1529 z"
             id="path4182" />
          <path
             id="path4184"
             style="fill:#fece00;stroke-width:0.896043;stroke:#fece00;stroke-opacity:1;fill-opacity:1"
             d="m -371.26562,1029.1289 c -3.68946,-0.01 -7.41104,0.7495 -10.92188,2.3633 -6.991,3.2132 -10.22692,6.3275 -13.51172,13 -2.4209,4.9175 -2.89266,6.8821 -2.84766,11.8398 0.0967,10.5585 5.4964,18.972 15.0918,23.5118 4.3198,2.0436 6.6261,2.5468 11.6582,2.5468 10.78101,0 19.51076,-5.4395 24.84766,-15.4804 1.6257,-3.0586 2.01344,-5.2432 2.02344,-11.4004 0.01,-6.8697 -0.26328,-8.0979 -2.76758,-12.543 -4.92854,-8.7476 -14.14366,-13.8118 -23.57226,-13.8379 z m -0.19141,3.209 c 0.81742,0.01 1.66212,0.048 2.53711,0.1172 14.8428,1.1786 24.65707,15.3353 20.51367,29.5879 -1.991,6.8491 -7.97635,13.3768 -14.50195,15.8183 -9.122,3.4129 -18.93182,1.5019 -25.57032,-4.9804 -10.3566,-10.1131 -9.1262,-26.9451 2.625,-35.9082 4.27587,-3.2615 8.67451,-4.6987 14.39649,-4.6348 z"
             transform="translate(-1235.5148,1052.7875)" />
          <path
             id="path4186"
             style="fill:#fece00;stroke-width:0.896043;stroke:#fece00;stroke-opacity:1;fill-opacity:1"
             d="m -304.56445,1008.9785 c -8.53455,-0.229 -17.42785,5.0381 -19.81641,14.2461 -0.653,2.518 -1.03797,5.0674 -0.85547,5.6641 0.1824,0.597 0.57259,2.1869 0.86719,3.5332 0.6968,3.1827 5.56586,8.6925 9.00586,10.1914 1.4877,0.6483 5.16136,1.1789 8.16406,1.2129 7.2734,0.047 12.33927,-2.5938 16.35547,-8.5274 2.7848,-4.1142 2.97462,-4.8515 2.66602,-10.3535 -0.2709,-4.833 -0.80404,-6.5404 -2.89454,-9.2812 -3.38051,-4.4321 -8.37145,-6.5481 -13.49218,-6.6856 z m -1.39258,2.9492 c 2.4084,-0.059 4.84929,0.4439 7.13476,1.6348 5.7781,3.0108 7.66993,6.042 7.66993,12.291 0,4.3024 -0.42974,5.7161 -2.58594,8.543 -1.4212,1.8634 -4.24299,4.1413 -6.27149,5.0625 v 0 c -4.8155,2.1887 -9.9906,2.1532 -14.4414,-0.098 -4.7332,-2.3933 -6.91808,-5.5806 -7.42188,-10.8242 -0.86414,-8.9936 7.31459,-16.3953 15.91602,-16.6075 z"
             transform="translate(-1235.5148,1052.7875)" />
        </g>
        <g
           id="g4194"
           transform="matrix(0.66128975,0,0,0.66128975,773.56576,214.47585)"
           style="fill:#4747ff;fill-opacity:1;stroke:#4747ff;stroke-opacity:1">
          <path
             id="path4190"
             style="fill:#4747ff;stroke-width:0.896043;fill-opacity:1;stroke:#4747ff;stroke-opacity:1"
             d="m 810.58398,916.61914 c -16.28627,0.12735 -32.80586,6.44255 -44.68359,17.41797 l -6.07617,5.61523 -70.63867,16.84571 c -52.94971,12.6261 -70.63672,17.1651 -70.63672,18.1289 0,0.7844 0.69588,1.17374 1.79101,0.99414 2.13265,-0.3471 132.79188,-31.3565 135.11328,-32.0664 1.24138,-0.3796 0.90681,0.59743 -1.48242,4.33203 -5.68514,8.8877 -9.70153,21.30337 -10.6289,32.85547 -0.23932,2.9816 -0.74384,3.33033 -27.55469,18.98633 -15.02091,8.77128 -27.44012,16.33828 -27.59961,16.81638 -0.15946,0.4784 0.0543,1.0851 0.47656,1.3457 0.42222,0.2608 12.84063,-6.5609 27.59571,-15.1582 l 26.82617,-15.63084 1.52344,7.73047 c 1.90068,9.65657 5.1164,17.77517 10.05078,25.37307 4.50588,6.9377 12.41168,15.0502 18.53125,19.0156 l 4.36523,2.8281 -4.20508,5.9102 c -2.31286,3.2509 -8.35326,11.7161 -13.42187,18.8125 -8.65005,12.1106 -10.72412,15.9773 -8.10938,15.1055 0.60763,-0.2026 6.68877,-8.2 13.51563,-17.7715 6.82692,-9.572 12.94264,-18.1421 13.58984,-19.043 1.09115,-1.5182 1.37244,-1.5345 3.8711,-0.2422 1.48217,0.7663 6.26075,2.446 10.61914,3.7324 18.2519,5.3879 41.14211,1.8075 56.13867,-8.7812 1.3836,-0.9772 2.65489,-1.6312 2.82422,-1.4551 0.16923,0.1769 -12.09091,25.3197 -27.24414,55.875 -15.14851,30.5454 -27.37944,55.8435 -27.1875,56.2285 0.20058,0.37 0.77134,0.6699 1.26757,0.6699 0.49683,0 14.05047,-26.5106 30.1211,-58.914 20.44594,-41.2251 30.35033,-60.2594 32.98437,-63.3946 11.71781,-13.9461 16.89341,-28.1006 16.71289,-45.69917 -0.19206,-18.7166 -7.66101,-35.23559 -21.90039,-48.42969 -10.35408,-9.594 -22.91986,-15.43323 -37.55664,-17.45703 -2.96906,-0.41062 -5.97621,-0.59975 -8.99219,-0.57617 z m -0.69336,2.82031 c 27.77132,-0.41326 54.31077,17.33734 63.3418,45.02539 1.67284,5.1288 2.3892,9.60919 2.71094,16.96289 0.55645,12.7222 -1.13868,20.76337 -6.73438,31.95317 -7.91696,15.8315 -23.67402,28.4438 -41.09765,32.9003 -13.56253,3.4688 -31.13556,1.8522 -44.03321,-4.0527 -20.36588,-9.3238 -36.004,-31.3699 -37.13476,-52.34959 l -0.26172,-4.85157 11.20117,-6.53515 c 6.1603,-3.5943 11.33073,-7.15827 11.49024,-7.91797 0.44466,-2.1201 -1.10486,-1.683 -7.21875,2.0332 -3.08884,1.8772 -7.97981,4.75629 -10.86914,6.39649 l -5.25391,2.98242 0.625,-4.82813 c 3.37628,-26.1116 19.65463,-46.24248 44.01172,-54.42968 6.33997,-2.13117 12.81389,-3.1937 19.22265,-3.28907 z"
             transform="translate(-1235.5148,1052.7875)" />
          <path
             style="fill:#4747ff;stroke-width:0.896043;fill-opacity:1;stroke:#4747ff;stroke-opacity:1"
             d="m -369.53173,2064.9175 c -6.66479,-22.2599 -12.87492,-35.8934 -21.71538,-47.6726 -7.21041,-9.6071 -14.1664,-15.5896 -30.62542,-26.3391 -14.21087,-9.281 -16.42801,-11.8242 -12.84162,-14.7282 4.79684,-3.8839 19.85804,-1.6827 32.7982,4.7942 25.65749,12.8421 40.36295,36.2944 38.58187,61.5307 -0.80675,11.4314 -4.97385,26.5024 -6.19765,22.415 z"
             id="path4192" />
        </g>
      </g>
    </g>
  </g>
</svg>
