<?xml version="1.0" encoding="UTF-8" standalone="no"?>
<svg
   xmlns:dc="http://purl.org/dc/elements/1.1/"
   xmlns:cc="http://creativecommons.org/ns#"
   xmlns:rdf="http://www.w3.org/1999/02/22-rdf-syntax-ns#"
   xmlns:svg="http://www.w3.org/2000/svg"
   xmlns="http://www.w3.org/2000/svg"
   xmlns:sodipodi="http://sodipodi.sourceforge.net/DTD/sodipodi-0.dtd"
   xmlns:inkscape="http://www.inkscape.org/namespaces/inkscape"
   width="2560"
   height="700"
   viewBox="0 0 677.33332 185.20834"
   version="1.1"
   id="svg1231"
   inkscape:export-filename="/Users/mehmet/Downloads/img-4.png"
   inkscape:export-xdpi="95.987198"
   inkscape:export-ydpi="95.987198"
   sodipodi:docname="team.svg"
   inkscape:version="1.0.2 (e86c8708, 2021-01-15)">
  <defs
     id="defs1225" />
  <sodipodi:namedview
     id="base"
     pagecolor="#ffffff"
     bordercolor="#666666"
     borderopacity="1.0"
     inkscape:pageopacity="0.0"
     inkscape:pageshadow="2"
     inkscape:zoom="0.4340067"
     inkscape:cx="1553.2253"
     inkscape:cy="186.24548"
     inkscape:document-units="px"
     inkscape:current-layer="g3431"
     inkscape:document-rotation="0"
     showgrid="false"
     units="px"
     inkscape:window-width="1680"
     inkscape:window-height="897"
     inkscape:window-x="0"
     inkscape:window-y="23"
     inkscape:window-maximized="0"
     showguides="false" />
  <metadata
     id="metadata1228">
    <rdf:RDF>
      <cc:Work
         rdf:about="">
        <dc:format>image/svg+xml</dc:format>
        <dc:type
           rdf:resource="http://purl.org/dc/dcmitype/StillImage" />
        <dc:title />
      </cc:Work>
    </rdf:RDF>
  </metadata>
  <g
     inkscape:label="Layer 1"
     inkscape:groupmode="layer"
     id="layer1">
    <g
       id="g3454">
      <g
         id="g3431"
         transform="matrix(0.26458334,0,0,0.26458334,326.89662,-278.55003)">
        <rect
           style="opacity:1;fill:#dc699e;fill-opacity:1;stroke:none;stroke-width:3.18327;stroke-opacity:1"
           id="rect3427"
           width="2560"
           height="700"
           x="-1235.5148"
           y="1052.7875" />
        <g
           id="g4619"
           transform="translate(0,500)" />
        <g
           id="g1548">
          <path
             style="fill:#000000;stroke-width:0.677355"
             d="m -666.5225,1576.8624 c 0.21508,-43.5581 5.51422,-49.5251 9.3799,-56.9012 8.4445,-16.1131 10.3262,-35.078 22.91054,-41.3306 12.94546,-6.4321 26.0597,-11.5781 40.98993,-10.4487 10.06415,0.7612 16.98395,-10.2183 25.79824,-4.8461 12.52264,7.6325 18.78261,-12.1169 25.14513,-1.1561 5.96016,10.2679 18.11344,67.2662 32.61726,131.4481 2.01186,8.9027 5.8641,27.2879 5.49273,27.6687 -0.33711,0.3455 -7.18514,0.9454 -10.63122,1.1325 l -4.59064,0.2491 -0.44414,22.157 13.54468,-0.363 -14.46562,40.0835 -1.85745,3.2395 c -2.1262,3.7086 -5.52129,6.0053 -11.52156,7.7941 -7.15002,2.1315 -25.44995,1.0843 -38.14708,-2.1831 -15.72957,-4.5981 -41.16238,-10.846 -45.66278,-13.7733 0,0 -0.57574,22.5407 -2.46556,62.9455 -14.98565,-1.7041 -35.91835,-10.9972 -45.77547,-45.3705 -0.47229,-63.8219 -0.28561,-65.6296 -0.31689,-120.3454 z"
             id="path4973"
             sodipodi:nodetypes="cssssssssccccssccccc" />
          <path
             style="fill:#ffffff;fill-opacity:1;stroke-width:0.677355"
             d="m -622.5535,1733.0801 c 0.22519,-2.9234 0.61042,-16.994 0.85606,-31.2677 0.36212,-21.0518 0.61991,-26.0206 1.36471,-26.3135 0.50502,-0.1987 7.75965,1.968 16.12138,4.815 26.16665,8.9091 42.10167,12.3627 57.34672,12.4286 13.36152,0.057 18.15446,-1.5481 21.37015,-7.1606 1.27002,-2.2166 3.58308,-6.5207 8.8132,-21.5428 l 5.6314,-16.1748 -26.24139,0.4525 c -7.47287,-0.2482 -18.74292,-0.452 -25.0445,-0.4531 0,0 3.94473,-3.8756 13.52081,-3.6328 l 25.0289,0.4218 v -16.9413 l -0.23208,-5.3677 -10.30382,-0.3589 c 0,0 -8.00435,-1.3255 3.54168,-1.8714 20.50665,-0.9469 23.56841,-0.374 23.14526,-1.8324 -0.31439,-1.0836 -9.10847,-39.5196 -15.88252,-69.1832 -3.53726,-15.4896 -4.80801,-19.6314 -8.07803,-26.3297 -6.69371,-13.7113 -18.90513,-25.5433 -33.4954,-32.4549 -16.16705,-7.6585 -37.2117,-8.0154 -53.85098,-0.9133 -11.70882,4.9977 -24.43832,15.5903 -31.25607,26.0092 -5.67151,8.6675 -10.27623,20.407 -11.09773,29.4638 l -0.79382,8.7516 c -0.20778,28.2483 -0.44527,40.2663 -0.19765,67.1459 l 0.23252,37.0366 c 0.2572,40.9503 0.23747,40.7399 4.75185,50.758 2.89399,6.4218 5.3244,10.0218 10.25155,15.1845 5.12987,5.3752 11.24517,9.6059 17.90616,12.388 2.94329,1.2292 5.53844,2.2402 5.76686,2.2467 0.22845,0.01 0.59951,-2.3805 0.82471,-5.3041 z"
             id="path4985"
             sodipodi:nodetypes="sssscsscccccccccsssssssccsssscss" />
          <path
             style="fill:#000000;stroke-width:0.51493"
             d="m -554.35888,1561.4453 c -4.07903,-0.8497 -6.53556,-1.9085 -10.49876,-4.5248 -3.48119,-2.2983 -4.53123,-3.4644 -4.10635,-4.5606 0.42775,-1.1036 1.78679,-0.6629 4.88019,1.5826 1.66821,1.2108 4.47854,2.8266 6.24518,3.5908 2.73944,1.1848 3.88158,1.3873 7.76252,1.3776 3.89978,-0.01 4.99983,-0.2137 7.69284,-1.426 1.72835,-0.7781 4.43516,-2.3887 6.01516,-3.5794 3.076,-2.318 4.32248,-2.6591 4.87237,-1.3331 0.82295,1.984 -8.05782,7.435 -14.34741,8.8067 -4.01328,0.8752 -4.6101,0.8799 -8.51574,0.066 z"
             id="path4989" />
          <g
             id="g935"
             transform="matrix(-0.57881151,0,0,0.54443241,-376.57755,392.75267)">
            <path
               style="fill:#000000;stroke-width:0.95454"
               d="m 199.20647,2203.8092 c 11.11633,-1.6388 33.74115,-14.473 33.74115,-19.1398 0,-3.084 -15.68085,-13.2679 -26.29822,-17.0794 -7.31414,-2.6257 -22.79482,-2.4592 -30.35345,0.3265 -11.53263,4.2503 -26.18029,14.2675 -25.51761,17.451 0.44897,2.1565 10.88163,9.6501 18.78223,13.4911 6.34215,3.083 17.63558,6.0573 22.20306,5.847 1.09153,-0.05 4.44082,-0.4536 7.44284,-0.8964 z"
               id="path4987" />
            <path
               style="fill:#fece00;fill-opacity:1;stroke-width:0.95454"
               d="m 181.25296,2198.0933 c -7.01362,-1.9666 -15.1239,-5.9912 -19.84405,-9.8477 l -4.37907,-3.5779 3.47342,-2.7847 c 5.42609,-4.3501 18.64095,-10.0821 25.82448,-11.2015 4.83711,-0.7536 7.85134,-0.724 12.17826,0.1198 6.86804,1.3399 19.56177,7.1091 24.83168,11.286 l 3.78713,3.0015 -4.77957,3.3661 c -5.39252,3.7978 -13.75394,7.8755 -19.66544,9.5905 -5.30474,1.5388 -16.023,1.5627 -21.42684,0.048 z"
               id="path5003" />
            <path
               style="fill:#000000;stroke-width:0.95454"
               d="m 197.84979,2192.1843 c 2.69406,-2.019 4.33392,-4.9813 4.33392,-7.829 0,-2.4593 -3.07319,-6.5617 -6.00152,-8.0116 -1.60657,-0.7954 -2.175,-0.3912 -3.93271,2.7962 -1.75898,3.1898 -5.85675,6.5107 -9.41742,7.6316 -1.58448,0.499 1.41656,4.8787 4.12516,6.0203 3.52808,1.4872 8.46482,1.2119 10.89257,-0.6075 z"
               id="path5005" />
          </g>
          <path
             style="fill:#000000;stroke-width:0.76692"
             d="m -557.63904,1751.6371 c 0,-1.006 -4.49381,-1.1504 -35.84308,-1.1504 h -35.84295 l 3.91608,-2.6372 c 15.51874,-10.4509 20.35161,-32.7074 10.59667,-48.7997 -2.50598,-4.1341 -8.69387,-10.5534 -12.6058,-13.0773 l -1.90723,-1.2306 4.20797,-2.1322 c 25.9746,-13.1622 45.43918,-38.9372 51.83031,-68.6338 2.19003,-10.1762 2.02384,-30.0713 -0.33953,-40.6465 -3.40252,-15.225 -10.08837,-29.2434 -19.61143,-41.1191 -11.31632,-14.1121 -27.40017,-25.7097 -43.47028,-31.3452 -3.78852,-1.3284 -7.2785,-3.2464 -9.9699,-5.4791 -4.81032,-3.9902 -14.57074,-8.8844 -20.62969,-10.3443 -2.91114,-0.7016 -8.58532,-0.9521 -18.3132,-0.8089 -15.8571,0.2333 -14.49993,0.913 -11.97057,-5.9948 6.63293,-18.1157 -4.56435,-40.1059 -23.84575,-46.8307 -3.83374,-1.3371 -6.32037,-1.5763 -15.99443,-1.5384 -26.55879,0.1035 -57.79264,6.2836 -81.80632,16.186 -5.98216,2.4669 -6.78608,2.2782 -6.80939,-1.5979 -0.0367,-6.1533 -5.28242,-19.0287 -10.7886,-26.4821 -17.25347,-23.3551 -49.25816,-36.8069 -84.20666,-35.3928 -12.80251,0.518 -21.34843,2.0108 -32.0968,5.607 -9.1978,3.0773 -12.84344,4.7931 -22.9486,10.8002 -14.35661,8.5345 -24.82858,18.5904 -32.12288,30.8466 -6.833,11.4813 -7.5854,14.151 -24.2134,85.9177 -2.3065,9.9548 -3.5301,16.7086 -3.1044,17.1344 0.3865,0.3864 3.9325,0.9299 7.8796,1.2075 l 7.177,0.5046 0.3834,41.4135 0.3834,41.4134 2.1295,3.6224 c 2.4376,4.1469 6.3299,6.715 13.2089,8.7151 8.19717,2.3834 29.17715,1.2125 43.73381,-2.441 l 1.89759,-0.4763 v 61.8198 61.8197 h -44.0976 c -38.6866,0 -44.0976,0.1412 -44.0976,1.1504 0,1.0201 27.694,1.1504 244.64585,1.1504 216.95181,0 244.64601,-0.1303 244.64601,-1.1504 z"
             id="path4760" />
          <path
             style="fill:#69d4dc;fill-opacity:1;stroke-width:0.76692"
             d="m -693.232,1555.3834 c -7.28391,-3.6911 -13.59888,-12.491 -15.86695,-22.1106 -1.70323,-7.2242 -1.51629,-8.6664 1.54343,-11.9132 l 2.69957,-2.8647 3.12595,3.4411 c 7.06272,7.7746 12.67732,20.2528 13.49352,29.9882 0.51039,6.0884 0.3763,6.1813 -4.99552,3.4592 z"
             id="path4762" />
          <path
             style="fill:#ffffff;stroke-width:0.76692"
             d="m -690.31532,1577.9003 c 0,-0.4386 0.69732,-2.1645 1.54967,-3.835 0.85227,-1.6708 2.0212,-4.8494 2.59754,-7.0635 l 1.04789,-4.0259 3.15432,0.1453 c 2.83276,0.1303 3.15433,-0.037 3.15433,-1.6402 0,-1.419 -0.52876,-1.8847 -2.57528,-2.2686 l -2.57506,-0.4831 -0.50137,-6.0114 c -0.60819,-7.2939 -2.11117,-12.5738 -5.57458,-19.5854 -2.84129,-5.7518 -8.72072,-14.0657 -12.48684,-17.6571 l -2.36205,-2.2525 -2.3676,2.2525 c -6.34119,6.0331 -13.95125,18.7444 -16.30068,27.2277 -2.76492,9.9834 -2.15611,19.5876 1.88733,29.7754 1.23724,3.1174 2.1543,5.7471 2.03777,5.8438 -0.52217,0.4334 -34.66813,-1.1596 -40.85817,-1.9061 -45.64908,-5.5057 -93.2896,-26.6045 -116.71833,-51.6918 -8.86888,-9.4966 -11.78217,-17.1049 -9.31634,-24.3293 6.49947,-19.0416 45.19605,-44.7285 85.77164,-56.9356 24.31867,-7.316 60.42125,-12.1402 73.24034,-9.7864 12.79433,2.3493 23.24742,11.7568 26.85601,24.1698 1.89988,6.5354 1.32478,16.2819 -1.29739,21.9897 l -1.96847,4.2848 -16.0131,0.5081 -16.0131,0.5079 -2.07925,-2.4921 c -1.14361,-1.3707 -3.21392,-4.7354 -4.60071,-7.4771 -2.22658,-4.4017 -2.52166,-5.7047 -2.52229,-11.1364 -6.2e-4,-5.3811 0.30749,-6.7736 2.46014,-11.1203 1.35357,-2.7329 3.86114,-6.6522 5.57242,-8.7099 2.4695,-2.9693 2.92793,-3.9625 2.22174,-4.8134 -1.34143,-1.6164 -3.47181,0.1127 -7.62526,6.189 -4.86207,7.1133 -6.42151,11.7765 -6.38309,19.0861 0.0298,5.5764 0.27462,6.461 3.6,12.9917 1.96265,3.8543 3.48241,7.094 3.37705,7.1992 -0.10474,0.1047 -9.76201,0.4377 -21.45942,0.739 -15.2797,0.3933 -21.48785,0.812 -22.04839,1.4876 -0.48547,0.585 -0.7014,6.4097 -0.57142,15.4123 0.20067,13.891 0.2706,14.472 1.74284,14.472 1.46795,0 1.54273,-0.581 1.74291,-13.5365 l 0.20913,-13.5365 9.37726,-0.4443 c 24.63518,-1.1671 99.2422,-2.0969 102.94104,-1.283 18.57873,4.0881 31.79493,16.8185 36.48075,35.14 1.88267,7.3612 1.87428,12.9699 -0.0312,20.4184 -4.4017,17.2102 -17.63406,30.1567 -34.53273,33.786 -5.97342,1.283 -22.24046,1.572 -22.24046,0.3951 z"
             id="path4764" />
          <path
             style="fill:#000000;stroke-width:0.76692"
             d="m -821.06015,1535.4905 c 6.36234,-2.8871 9.4265,-10.4551 6.90581,-17.0557 -1.24265,-3.2537 -1.24286,-3.6019 0,-6.2118 2.6547,-5.5944 -0.60846,-14.47 -6.17499,-16.7959 -10.41681,-4.3525 -19.55344,4.5336 -19.77561,19.2331 -0.13075,8.6607 2.80244,15.8885 8.01883,19.7591 2.57139,1.908 8.02014,2.4372 11.03033,1.0712 z"
             id="path4766" />
          <path
             style="fill:#4747ff;fill-opacity:1;stroke-width:0.76692"
             d="m -831.67347,1528.8722 c -4.7669,-5.6653 -5.68681,-17.0567 -1.96189,-24.2949 1.70532,-3.3137 4.01666,-5.6699 4.75254,-4.8447 0.17473,0.196 0.52987,7.3449 0.78916,15.8864 0.51607,17.0032 0.28758,17.8493 -3.57981,13.2532 z"
             id="path4768" />
          <path
             style="fill:#4747ff;fill-opacity:1;stroke-width:0.76692"
             d="m -822.99485,1524.822 c 0,-3.4799 -0.22752,-10.7272 -0.50178,-16.1052 -0.42562,-8.3465 -0.33246,-9.7782 0.63635,-9.7782 1.7608,0 4.53328,3.3987 5.20618,6.3821 0.45135,2.0016 0.23743,3.5233 -0.83105,5.9097 -1.71426,3.8291 -1.76573,5.2341 -0.26414,7.2193 1.86062,2.46 1.43202,7.6165 -0.85942,10.3397 -1.09207,1.2977 -2.29997,2.3597 -2.68432,2.3597 -0.3842,0 -0.70009,-2.8472 -0.70182,-6.3271 z"
             id="path4770" />
          <path
             style="fill:#fece00;fill-opacity:1;stroke-width:0.76692"
             d="m -903.02211,1671.6861 c -0.25818,-3.2689 -0.69982,-19.0023 -0.98144,-34.9629 -0.41514,-23.5397 -0.7107,-29.0957 -1.56457,-29.4232 -0.57898,-0.2222 -8.89607,2.2006 -18.48239,5.3841 -29.99882,9.962 -48.26756,13.8236 -65.74528,13.8974 -15.31831,0.064 -20.81321,-1.7311 -24.49981,-8.0068 -1.4561,-2.4786 -1.5933,-4.1379 -1.8139,-21.9229 l -0.2386,-19.2414 15.5769,-0.5048 c 8.5673,-0.2774 21.48787,-0.5054 28.71234,-0.5065 10.73845,0 13.30956,-0.2121 14.09005,-1.1525 0.74705,-0.9001 0.75343,-1.393 0.0291,-2.2657 -0.79283,-0.9553 -5.04623,-1.0478 -29.62016,-0.644 l -28.69443,0.4716 v -18.9434 -18.9434 l 12.0789,0.4614 c 6.64341,0.2539 12.83047,0.6133 13.74906,0.7986 0.92615,0.1869 2.23172,-0.2245 2.93069,-0.9236 2.69327,-2.6932 0.22177,-3.2411 -18.40535,-4.0802 -23.5099,-1.0589 -25.8608,-1.3335 -25.3757,-2.9642 0.3604,-1.2118 6.9484,-29.0834 14.7146,-62.2525 4.0553,-17.3201 5.5121,-21.9515 9.261,-29.4412 7.67404,-15.3317 21.67384,-28.562 38.4009,-36.2904 18.53476,-8.5637 42.66143,-8.9627 61.73758,-1.0213 13.4236,5.5883 28.01737,17.4327 35.83358,29.0829 6.50212,9.6917 11.57949,22.8394 12.72302,32.9458 l 0.49173,4.3472 -5.63784,3.8279 c -3.10085,2.1055 -9.27591,7.4532 -13.72256,11.884 -16.24512,16.1877 -17.94578,26.4766 -6.85046,41.4433 4.41086,5.9498 11.91508,12.8261 20.96035,19.206 l 5.89545,4.1584 -0.26657,41.4135 c -0.29486,45.7898 -0.27225,45.5545 -5.44777,56.7565 -3.31782,7.1807 -6.10417,11.2061 -11.7529,16.979 -5.88116,6.0104 -12.89206,10.7411 -20.52856,13.8519 -3.37435,1.3746 -6.34957,2.505 -6.61143,2.5122 -0.26191,0.012 -0.68732,-2.6617 -0.9455,-5.9308 z"
             id="path4772" />
          <path
             style="fill:#000000;stroke-width:0.76692"
             d="m -971.00633,1479.6809 c 8.59066,-1.3689 26.07504,-12.0894 26.07504,-15.9876 0,-2.5761 -12.1181,-11.0828 -20.32317,-14.2666 -5.65234,-2.1933 -17.61575,-2.0542 -23.45703,0.2728 -8.91238,3.5502 -20.23201,11.9176 -19.71991,14.5769 0.347,1.8013 8.4093,8.0608 14.51483,11.2692 4.90119,2.5753 13.62871,5.0598 17.15844,4.8841 0.84353,-0.042 3.43185,-0.3789 5.7518,-0.7488 z"
             id="path4774" />
          <path
             style="fill:#000000;stroke-width:0.76692"
             d="m -921.15685,1506.2963 c 5.84343,-1.3157 9.36255,-2.9552 15.04006,-7.0065 4.98699,-3.5587 6.49122,-5.3644 5.88255,-7.0617 -0.61276,-1.7089 -2.55967,-1.0265 -6.99113,2.4504 -2.3898,1.875 -6.41575,4.3771 -8.94656,5.5601 -3.92441,1.8347 -5.56057,2.1484 -11.12023,2.1334 -5.58665,-0.016 -7.16253,-0.331 -11.02042,-2.2083 -2.47595,-1.2048 -6.3536,-3.6987 -8.61702,-5.5424 -4.40656,-3.5892 -6.1922,-4.1173 -6.97996,-2.0641 -1.17891,3.0721 11.54328,11.5126 20.55345,13.6366 5.74924,1.3552 6.60422,1.3623 12.19926,0.1023 z"
             id="path4776" />
          <path
             style="fill:#fece00;fill-opacity:1;stroke-width:0.76692"
             d="m -636.95594,1637.3667 c -2.57972,-11.0464 -7.83189,-22.1149 -14.42445,-30.3982 l -3.27336,-4.1129 v -7.6692 c 0,-6.5732 0.31991,-8.539 2.23907,-13.7562 1.93296,-5.2547 3.03433,-6.9098 8.0526,-12.1016 9.44288,-9.7695 13.81495,-18.1522 15.35636,-29.443 1.40962,-10.3256 -0.5153,-20.3548 -5.7613,-30.0184 -1.43119,-2.6363 -2.24095,-4.7933 -1.79958,-4.7933 0.44157,0 3.41458,1.2068 6.60671,2.6816 18.80354,8.6878 37.30937,27.196 45.78198,45.7882 9.9828,21.9056 11.61972,46.3783 4.64246,69.4093 -2.46679,8.1424 -9.18275,21.4061 -14.28801,28.2183 -8.97355,11.9738 -22.11602,22.8558 -35.1387,29.0952 l -5.75187,2.7557 -0.49408,-20.1435 c -0.35417,-14.4361 -0.84943,-21.6646 -1.74783,-25.512 z"
             id="path4778" />
          <path
             style="fill:#ffffff;stroke-width:0.76692"
             d="m -853.93814,1724.7935 c -16.10486,-2.8086 -30.99495,-12.0184 -39.56224,-24.4705 -2.78552,-4.0487 -8.48357,-15.7956 -8.48357,-17.4895 0,-0.6492 1.72377,-1.6324 4.26721,-2.4341 9.21126,-2.9037 19.39813,-9.4978 26.62488,-17.2352 4.36252,-4.6705 7.44422,-6.4156 10.7619,-6.0943 2.36767,0.2292 2.45556,0.3678 2.827,4.4548 0.32545,3.5788 0.61595,4.218 1.91736,4.218 1.51873,0 1.53572,-0.5768 1.73043,-58.4773 0.10806,-32.1625 0.38295,-58.4773 0.61081,-58.4773 0.22787,0 3.07866,1.5367 6.33474,3.4148 8.23552,4.7503 19.14565,9.831 29.81605,13.8852 9.54594,3.627 29.24768,9.542 31.78203,9.542 1.46837,0 1.49022,0.8812 1.2634,50.8082 l -0.23105,50.8081 -1.80582,5.3683 c -7.63816,22.7075 -24.89281,38.044 -47.37077,42.1047 -7.98622,1.4429 -12.53907,1.4593 -20.48236,0.074 z"
             id="path4780" />
          <path
             style="fill:#fece00;fill-opacity:1;stroke-width:0.76692"
             d="m -634.799,1687.0457 c 0.17369,-0.1739 2.04915,0.5622 4.16746,1.6356 5.29837,2.6851 11.19827,8.9203 14.1522,14.9566 2.35054,4.8036 2.47206,5.4873 2.47206,13.9112 0,8.6694 -0.061,8.982 -2.83074,14.5714 -3.24222,6.5425 -7.60008,11.1582 -13.65791,14.4659 l -4.2181,2.303 -0.20046,-30.7639 c -0.1105,-16.9201 -0.0589,-30.9062 0.11549,-31.0798 z"
             id="path4782" />
          <path
             style="fill:#69d4dc;fill-opacity:1;stroke-width:0.76692"
             d="m -779.27756,1700.4255 c 0,-48.8053 0.33107,-56.8865 2.71116,-66.1844 1.4556,-5.6858 6.20697,-15.742 10.19311,-21.5734 10.00819,-14.6405 28.22317,-25.9462 45.87034,-28.4704 l 3.69503,-0.5286 4.48847,5.9567 c 4.76004,6.3169 6.75925,7.9315 8.56812,6.9191 1.29988,-0.7275 7.7617,-8.173 8.83718,-10.1825 0.62324,-1.1646 1.20208,-1.2675 3.82057,-0.6792 9.66026,2.1706 21.44104,9.0439 30.60555,17.8564 10.14491,9.7553 16.26385,21.0659 19.20551,35.5008 1.50721,7.3959 1.58358,10.2523 1.58358,59.2254 v 51.4545 h -69.78928 -69.78934 z"
             id="path4784" />
          <path
             style="fill:#4747ff;fill-opacity:1;stroke-width:0.76692"
             d="m -950.77674,1749.3688 c -0.55845,-1.4553 3.63239,-14.902 7.10822,-22.8073 7.07207,-16.0849 19.44273,-32.1668 31.96508,-41.555 2.03591,-1.5263 3.97407,-2.7751 4.30702,-2.7751 0.33302,0 1.37396,2.1079 2.3135,4.6843 8.04671,22.0692 27.09094,37.9865 50.38483,42.1123 9.10875,1.6135 21.39082,0.6771 30.35924,-2.3143 16.55018,-5.5203 29.35672,-16.3616 37.54542,-31.7839 l 2.8741,-5.4128 0.0208,29.9736 c 0.0111,16.4855 -0.20997,30.2038 -0.49109,30.4849 -0.28128,0.2812 -37.73673,0.5112 -83.23445,0.5112 -71.75866,0 -82.7799,-0.1481 -83.15204,-1.1179 z"
             id="path4786" />
          <path
             style="fill:#ffffff;stroke-width:0.76692"
             d="m -708.34295,1587.709 c -4.06126,-4.7126 -8.66308,-12.7353 -10.75308,-18.7466 -3.65098,-10.5007 -3.24201,-20.5739 1.27588,-31.4264 3.20032,-7.6874 4.09081,-8.2173 5.29802,-3.153 0.53112,2.2284 1.58774,5.51 2.34804,7.2922 1.36342,3.1969 1.36029,3.256 -0.22675,4.3675 -2.85578,2.0004 -4.4454,5.2312 -4.45081,9.0456 0,2.95 0.43047,4.1123 2.35886,6.3086 4.3913,5.0016 10.51052,5.1934 15.2263,0.4776 2.75472,-2.7548 2.80439,-2.7696 5.63215,-1.6935 3.36943,1.2824 3.43054,1.8334 0.97435,8.793 -2.84003,8.0478 -11.86117,21.9945 -14.22676,21.9945 -0.35604,0 -1.91132,-1.4669 -3.4562,-3.2595 z"
             id="path4788" />
          <path
             style="fill:#ffffff;stroke-width:0.76692"
             d="m -984.88073,1474.9064 c -5.4201,-1.6427 -11.6877,-5.0045 -15.33537,-8.2259 l -3.3842,-2.9886 2.6843,-2.3261 c 4.19324,-3.6337 14.40563,-8.4217 19.95704,-9.3568 3.7381,-0.6294 6.06748,-0.6047 9.41131,0.1001 5.30759,1.1192 15.11726,5.9383 19.18983,9.4273 l 2.92668,2.5072 -3.69364,2.8117 c -4.16732,3.1723 -10.62899,6.5785 -15.19737,8.011 -4.09948,1.2854 -12.38252,1.3054 -16.55858,0.04 z"
             id="path4790" />
          <path
             style="fill:#000000;stroke-width:0.76692"
             d="m -972.05477,1463.9705 c 2.08196,-1.6864 3.34924,-4.1609 3.34924,-6.5396 0,-2.0543 -2.37495,-5.4811 -4.63795,-6.6921 -1.24155,-0.6644 -1.68083,-0.3269 -3.03919,2.3356 -1.35932,2.6645 -4.52607,5.4384 -7.27774,6.3748 -1.22448,0.4168 1.09471,4.0751 3.18791,5.0288 2.72649,1.2422 6.54157,1.0123 8.41773,-0.5075 z"
             id="path4792" />
        </g>
        <g
           id="g1333"
           transform="matrix(0.82883006,-0.26043724,0.26043724,0.82883006,272.09109,4.4487746)">
          <path
             style="fill:#000000;stroke-width:0.906735"
             d="m -591.15992,1517.287 c 0.28792,-58.3086 7.38156,-66.2962 12.55632,-76.1702 11.30414,-21.5696 13.82306,-46.9568 30.66897,-55.3268 17.32932,-8.6102 34.88456,-15.4989 54.87077,-13.9871 13.47228,1.019 22.73541,-13.6786 34.53457,-6.4871 16.76331,10.2172 25.14316,-16.2202 33.66028,-1.5476 7.97852,13.745 24.24739,90.0452 43.66279,175.9617 2.69315,11.9175 7.84992,36.5287 7.35279,37.0384 -0.45128,0.4626 -9.61833,1.2656 -14.23139,1.516 l -6.14521,0.3335 -0.59454,29.6603 18.13145,-0.486 -19.36427,53.6574 -2.48645,4.3365 c -2.84622,4.9645 -7.39102,8.039 -15.42323,10.4335 -9.5713,2.8533 -34.06832,1.4515 -51.06521,-2.9223 -21.05624,-6.1553 -55.10163,-14.5189 -61.12604,-18.4375 0,0 -0.77071,30.1738 -3.3005,84.2613 -20.0604,-2.2812 -48.08176,-14.7213 -61.27689,-60.7347 -0.63223,-85.4346 -0.38233,-87.8545 -0.42421,-161.0993 z"
             id="path1252"
             sodipodi:nodetypes="cssssssssccccssccccc" />
          <path
             style="fill:#ffffff;fill-opacity:1;stroke-width:0.906735"
             d="m -532.30124,1726.4064 c 0.30145,-3.9134 0.81713,-22.7489 1.14596,-41.8562 0.48474,-28.1808 0.82983,-34.8323 1.82685,-35.2244 0.67604,-0.266 10.38738,2.6345 21.58073,6.4456 35.02773,11.9261 56.359,16.5492 76.76664,16.6374 17.88627,0.077 24.30229,-2.0723 28.60694,-9.5854 1.7001,-2.9672 4.79646,-8.7289 11.7977,-28.8381 l 7.53843,-21.6522 -35.12779,0.6057 c -10.00349,-0.3322 -25.09003,-0.6051 -33.52558,-0.6065 0,0 5.28058,-5.1881 18.09951,-4.863 l 33.50469,0.5646 v -22.6783 l -0.31067,-7.1854 -13.79311,-0.4805 c 0,0 -10.71495,-1.7744 4.74103,-2.5051 27.45103,-1.2676 31.54963,-0.5007 30.98318,-2.4529 -0.42085,-1.4506 -12.19296,-52.9026 -21.26098,-92.6114 -4.73512,-20.735 -6.4362,-26.2795 -10.81357,-35.246 -8.96047,-18.3545 -25.30717,-34.1933 -44.8383,-43.4455 -21.64187,-10.252 -49.81308,-10.7297 -72.0871,-1.2226 -15.67389,6.6901 -32.71412,20.8698 -41.84063,34.817 -7.59211,11.6026 -13.75617,27.3176 -14.85587,39.4414 l -1.06264,11.7153 c -0.27814,37.8143 -0.59606,53.902 -0.26458,89.8842 l 0.31126,49.5786 c 0.3443,54.8178 0.31789,54.5361 6.36102,67.9468 3.87401,8.5965 7.12746,13.4155 13.72313,20.3265 6.86706,7.1955 15.05325,12.8589 23.96991,16.5831 3.94001,1.6455 7.41399,2.9989 7.71975,3.0075 0.30582,0.014 0.80254,-3.1866 1.104,-7.1002 z"
             id="path1254"
             sodipodi:nodetypes="sssscsscccccccccsssssssccsssscss" />
          <path
             style="fill:#000000;stroke-width:0.689306"
             d="m -441.01317,1496.6491 c -5.46035,-1.1374 -8.74876,-2.5548 -14.05407,-6.0571 -4.66006,-3.0766 -6.06568,-4.6376 -5.49692,-6.105 0.5726,-1.4773 2.39187,-0.8874 6.53282,2.1185 2.23313,1.6209 5.99515,3.7839 8.36005,4.8068 3.66713,1.586 5.19604,1.8572 10.39122,1.8442 5.22041,-0.014 6.69298,-0.2861 10.29795,-1.909 2.31364,-1.0416 5.93708,-3.1976 8.05213,-4.7915 4.11766,-3.103 5.78625,-3.5595 6.52236,-1.7845 1.10163,2.6559 -10.78653,9.9528 -19.20603,11.789 -5.37233,1.1716 -6.17126,1.1778 -11.39951,0.088 z"
             id="path1256" />
          <g
             id="g1264"
             transform="matrix(-0.77482044,0,0,0.72879919,-203.02791,-67.81)">
            <path
               style="fill:#000000;stroke-width:0.95454"
               d="m 199.20647,2203.8092 c 11.11633,-1.6388 33.74115,-14.473 33.74115,-19.1398 0,-3.084 -15.68085,-13.2679 -26.29822,-17.0794 -7.31414,-2.6257 -22.79482,-2.4592 -30.35345,0.3265 -11.53263,4.2503 -26.18029,14.2675 -25.51761,17.451 0.44897,2.1565 10.88163,9.6501 18.78223,13.4911 6.34215,3.083 17.63558,6.0573 22.20306,5.847 1.09153,-0.05 4.44082,-0.4536 7.44284,-0.8964 z"
               id="path1258" />
            <path
               style="fill:#fece00;fill-opacity:1;stroke-width:0.95454"
               d="m 181.25296,2198.0933 c -7.01362,-1.9666 -15.1239,-5.9912 -19.84405,-9.8477 l -4.37907,-3.5779 3.47342,-2.7847 c 5.42609,-4.3501 18.64095,-10.0821 25.82448,-11.2015 4.83711,-0.7536 7.85134,-0.724 12.17826,0.1198 6.86804,1.3399 19.56177,7.1091 24.83168,11.286 l 3.78713,3.0015 -4.77957,3.3661 c -5.39252,3.7978 -13.75394,7.8755 -19.66544,9.5905 -5.30474,1.5388 -16.023,1.5627 -21.42684,0.048 z"
               id="path1260" />
            <path
               style="fill:#000000;stroke-width:0.95454"
               d="m 197.84979,2192.1843 c 2.69406,-2.019 4.33392,-4.9813 4.33392,-7.829 0,-2.4593 -3.07319,-6.5617 -6.00152,-8.0116 -1.60657,-0.7954 -2.175,-0.3912 -3.93271,2.7962 -1.75898,3.1898 -5.85675,6.5107 -9.41742,7.6316 -1.58448,0.499 1.41656,4.8787 4.12516,6.0203 3.52808,1.4872 8.46482,1.2119 10.89257,-0.6075 z"
               id="path1262" />
          </g>
        </g>
        <path
           style="fill:#000000;stroke-width:0.89192"
           d="m 373.88708,1751.4496 c 0,-1.17 -5.22626,-1.3379 -41.68515,-1.3379 h -41.685 l 4.55436,-3.067 c 18.04815,-12.1543 23.66872,-38.0384 12.32383,-56.7537 -2.91444,-4.8079 -10.11089,-12.2734 -14.66042,-15.2087 l -2.2181,-1.4312 4.89383,-2.4797 c 30.20821,-15.3075 52.84533,-45.2836 60.27814,-79.8204 2.54699,-11.8349 2.35371,-34.9727 -0.39487,-47.2715 -3.9571,-17.7066 -11.73267,-34.0098 -22.8079,-47.8211 -13.16077,-16.4123 -31.86613,-29.9002 -50.55551,-36.4542 -4.40601,-1.5449 -8.46483,-3.7756 -11.59489,-6.3721 -5.59436,-4.6406 -16.94563,-10.3325 -23.99213,-12.0304 -3.38563,-0.8159 -9.98464,-1.1073 -21.29808,-0.9407 -18.44165,0.2714 -16.86327,1.0618 -13.92165,-6.9718 7.71404,-21.0684 -5.3083,-46.6428 -27.73237,-54.4637 -4.45861,-1.5551 -7.35054,-1.8332 -18.60138,-1.7892 -30.8876,0.1204 -67.212263,7.3078 -95.139937,18.8241 -6.957193,2.869 -7.892153,2.6496 -7.919259,-1.8583 -0.04274,-7.1562 -6.143402,-22.1301 -12.54704,-30.7983 -20.065608,-27.1618 -57.28675,-42.8062 -97.931514,-41.1616 -14.8892,0.6024 -24.82802,2.3386 -37.32827,6.521 -10.69695,3.5788 -14.9368,5.5743 -26.68901,12.5605 -16.69657,9.9255 -28.87537,21.6204 -37.35861,35.8742 -7.94678,13.3527 -8.82173,16.4575 -28.15992,99.9215 -2.68237,11.5773 -4.10553,19.432 -3.61032,19.9271 0.44942,0.4494 4.57337,1.0815 9.16385,1.4044 l 8.34676,0.5868 0.44586,48.1635 0.44595,48.1634 2.47656,4.2127 c 2.83493,4.8228 7.36156,7.8095 15.36185,10.1357 9.53317,2.7719 33.93273,1.41 50.86196,-2.8389 l 2.20688,-0.554 v 71.8959 71.8957 h -51.28505 c -44.99219,0 -51.28514,0.1642 -51.28514,1.3379 0,1.1864 32.20793,1.3379 284.520776,1.3379 252.312824,0 284.520914,-0.1515 284.520914,-1.3379 z"
           id="path1266" />
        <path
           style="fill:#4747ff;fill-opacity:1;stroke-width:0.89192"
           d="m 216.19379,1523.2085 c -8.47112,-4.2928 -15.81536,-14.527 -18.4531,-25.7145 -1.98084,-8.4016 -1.76344,-10.0789 1.79498,-13.8549 l 3.13958,-3.3316 3.63546,4.0019 c 8.21386,9.0418 14.74359,23.5539 15.69283,34.8761 0.59357,7.0807 0.43763,7.1887 -5.80975,4.023 z"
           id="path1268" />
        <path
           style="fill:#fece00;fill-opacity:1;stroke-width:0.89192"
           d="m 219.58587,1549.3954 c 0,-0.5101 0.81097,-2.5172 1.80224,-4.4601 0.99119,-1.943 2.35064,-5.6397 3.02092,-8.2148 l 1.21868,-4.6821 3.66845,0.169 c 3.29447,0.1516 3.66845,-0.043 3.66845,-1.9075 0,-1.6502 -0.61494,-2.1918 -2.99502,-2.6383 l -2.99478,-0.5619 -0.58308,-6.9912 c -0.70731,-8.4828 -2.45527,-14.6232 -6.48318,-22.7777 -3.30439,-6.6893 -10.14211,-16.3582 -14.52207,-20.535 l -2.74705,-2.6195 -2.75349,2.6195 c -7.37474,7.0165 -16.22517,21.7996 -18.95753,31.6656 -3.21557,11.6106 -2.50754,22.7802 2.19494,34.6285 1.4389,3.6255 2.50544,6.6838 2.36991,6.7963 -0.60728,0.504 -40.31869,-1.3486 -47.51765,-2.2168 -53.089437,-6.4031 -108.494894,-30.9408 -135.742275,-60.1171 -10.314429,-11.0444 -13.70255,-19.8928 -10.834822,-28.2946 7.558826,-22.1453 52.562567,-52.019 99.75158,-66.2156 28.282387,-8.5085 70.269317,-14.119 85.177807,-11.3815 14.87967,2.7321 27.03652,13.673 31.23327,28.1092 2.20954,7.6006 1.54071,18.9357 -1.50885,25.5738 l -2.28931,4.9832 -18.62308,0.5909 -18.62308,0.5907 -2.41815,-2.8983 c -1.33,-1.5941 -3.73775,-5.5072 -5.35058,-8.6957 -2.58949,-5.1192 -2.93266,-6.6346 -2.93339,-12.9516 -7.2e-4,-6.2581 0.35761,-7.8776 2.86111,-12.9328 1.57419,-3.1783 4.49047,-7.7365 6.48068,-10.1295 2.872,-3.4533 3.40515,-4.6084 2.58385,-5.598 -1.56007,-1.8798 -4.03768,0.1311 -8.86809,7.1978 -5.65455,8.2727 -7.46816,13.6959 -7.42347,22.197 0.0347,6.4852 0.31937,7.514 4.18676,15.1092 2.28254,4.4825 4.05001,8.2502 3.92748,8.3725 -0.12182,0.1218 -11.35312,0.5091 -24.9571,0.8594 -17.77015,0.4574 -24.99017,0.9445 -25.64206,1.7301 -0.56461,0.6804 -0.81573,7.4545 -0.66456,17.9244 0.23338,16.1551 0.3147,16.8308 2.02691,16.8308 1.70721,0 1.79417,-0.6757 2.02699,-15.7428 l 0.24321,-15.7429 10.90566,-0.5166 c 28.65047,-1.3573 115.41771,-2.4387 119.71942,-1.4922 21.60688,4.7544 36.9772,19.5598 42.42675,40.8675 2.18954,8.5611 2.17978,15.0838 -0.0363,23.7464 -5.11914,20.0153 -20.50825,35.072 -40.16123,39.2928 -6.94703,1.4921 -25.86544,1.8282 -25.86544,0.4595 z"
           id="path1270" />
        <path
           style="fill:#000000;stroke-width:0.89192"
           d="m 67.530905,1500.0732 c 7.399343,-3.3576 10.962924,-12.1591 8.031393,-19.8356 -1.445198,-3.784 -1.445441,-4.189 0,-7.2243 3.087382,-6.5062 -0.707634,-16.8284 -7.181461,-19.5334 -12.114647,-5.0619 -22.740457,5.2725 -22.998833,22.3679 -0.152064,10.0723 3.259211,18.4781 9.325812,22.9796 2.990505,2.2191 9.327351,2.8344 12.828171,1.2458 z"
           id="path1272" />
        <path
           style="fill:#69d4dc;fill-opacity:1;stroke-width:0.89192"
           d="m 55.187716,1492.3762 c -5.543854,-6.5886 -6.613702,-19.8367 -2.281655,-28.2547 1.983262,-3.8538 4.671334,-6.594 5.527156,-5.6344 0.203209,0.228 0.616238,8.5421 0.917784,18.4758 0.600183,19.7746 0.334457,20.7585 -4.163285,15.4133 z"
           id="path1274" />
        <path
           style="fill:#69d4dc;fill-opacity:1;stroke-width:0.89192"
           d="m 65.280865,1487.6659 c 0,-4.0471 -0.264597,-12.4757 -0.583562,-18.7302 -0.49499,-9.7069 -0.386653,-11.372 0.740065,-11.372 2.047795,0 5.272159,3.9527 6.054734,7.4223 0.52492,2.3279 0.276135,4.0976 -0.966497,6.8729 -1.993669,4.4533 -2.053529,6.0873 -0.307193,8.3961 2.163882,2.8609 1.665425,8.8578 -0.999494,12.0249 -1.270067,1.5093 -2.674848,2.7443 -3.121838,2.7443 -0.446825,0 -0.814199,-3.3113 -0.816215,-7.3583 z"
           id="path1276" />
        <path
           style="fill:#69d4dc;fill-opacity:1;stroke-width:0.89192"
           d="m -27.790057,1658.4674 c -0.30026,-3.8017 -0.813877,-22.0996 -1.1414,-40.6615 -0.48281,-27.3764 -0.826536,-33.838 -1.819583,-34.219 -0.673352,-0.2584 -10.34604,2.5594 -21.49484,6.2617 -34.88833,11.5857 -56.13469,16.0768 -76.46113,16.1625 -17.81504,0.075 -24.20556,-2.0132 -28.49309,-9.3118 -1.69335,-2.8825 -1.85295,-4.8124 -2.1095,-25.4961 l -0.27749,-22.3776 18.11581,-0.587 c 9.96366,-0.3227 24.99016,-0.5878 33.39217,-0.5891 12.4887,0 15.47888,-0.2466 16.38658,-1.3403 0.86881,-1.0468 0.87623,-1.62 0.0339,-2.635 -0.92206,-1.111 -5.86872,-1.2186 -34.448,-0.7489 l -33.37132,0.5484 v -22.031 -22.0309 l 14.04764,0.5365 c 7.72627,0.2953 14.92172,0.7133 15.99007,0.9287 1.07712,0.2174 2.59541,-0.261 3.40833,-1.074 3.13223,-3.1322 0.25794,-3.7694 -21.40521,-4.7453 -27.34178,-1.2315 -30.07593,-1.5509 -29.51166,-3.4474 0.41911,-1.4092 8.08092,-33.8237 17.1128,-72.399 4.71629,-20.1431 6.41059,-25.5293 10.77059,-34.2399 8.92476,-17.8305 25.20639,-33.2172 44.65982,-42.2053 21.55574,-9.9594 49.61483,-10.4236 71.800199,-1.1878 15.611513,6.4992 32.583925,20.2741 41.674106,33.8232 7.561894,11.2714 13.466832,26.562 14.79675,38.3156 l 0.571869,5.0557 -6.556753,4.4519 c -3.606255,2.4486 -10.787786,8.668 -15.959201,13.8209 -18.892913,18.8261 -20.870771,30.7921 -7.967016,48.1982 5.129783,6.9196 13.857116,14.9167 24.376682,22.3364 l 6.856353,4.8362 -0.310017,48.1634 c -0.342927,53.2532 -0.316628,52.9795 -6.335708,66.0073 -3.858594,8.3512 -7.099091,13.0326 -13.668511,19.7464 -6.839733,6.9901 -14.993338,12.4918 -23.874507,16.1097 -3.924335,1.5986 -7.384496,2.9133 -7.689031,2.9216 -0.304605,0.014 -0.799352,-3.0955 -1.099604,-6.8974 z"
           id="path1278" />
        <path
           style="fill:#000000;stroke-width:0.89192"
           d="m -106.85504,1435.1672 c 9.99086,-1.592 30.32502,-14.0599 30.32502,-18.5935 0,-2.996 -14.09324,-12.8892 -23.63565,-16.5918 -6.57361,-2.5508 -20.48692,-2.389 -27.2803,0.3172 -10.36503,4.1289 -23.52964,13.8601 -22.93409,16.9528 0.40355,2.0949 9.77991,9.3746 16.88066,13.106 5.70001,2.995 15.85002,5.8844 19.95512,5.6801 0.98094,-0.049 3.99119,-0.4407 6.68924,-0.8708 z"
           id="path1280" />
        <path
           style="fill:#000000;stroke-width:0.89192"
           d="m -48.88058,1466.1206 c 6.79585,-1.5301 10.88855,-3.4368 17.491444,-8.1484 5.799824,-4.1388 7.549226,-6.2387 6.841349,-8.2128 -0.712638,-1.9874 -2.976873,-1.1938 -8.130617,2.8499 -2.779312,2.1805 -7.461456,5.0905 -10.404766,6.4663 -4.56405,2.1337 -6.46688,2.4986 -12.93272,2.4811 -6.49721,-0.018 -8.32995,-0.3849 -12.81663,-2.5682 -2.87951,-1.4012 -7.38918,-4.3016 -10.02152,-6.4458 -5.12478,-4.1742 -7.20146,-4.7884 -8.11762,-2.4005 -1.37106,3.5728 13.42472,13.3891 23.90346,15.8592 6.68631,1.5761 7.68064,1.5844 14.18762,0.119 z"
           id="path1282" />
        <path
           style="fill:#69d4dc;fill-opacity:1;stroke-width:0.89192"
           d="m 281.6423,1618.5543 c -3.00018,-12.8469 -9.10841,-25.7194 -16.7755,-35.3529 l -3.80688,-4.7832 v -8.9192 c 0,-7.6446 0.37205,-9.9308 2.60402,-15.9984 2.24801,-6.1111 3.52889,-8.036 9.3651,-14.074 10.98196,-11.3618 16.06665,-21.1109 17.85929,-34.2419 1.63937,-12.0086 -0.5993,-23.6725 -6.70034,-34.9111 -1.66446,-3.066 -2.60619,-5.5746 -2.09289,-5.5746 0.51354,0 3.97112,1.4035 7.68354,3.1187 21.86834,10.1038 43.39043,31.6286 53.24399,53.2512 11.6099,25.476 13.51363,53.9375 5.39914,80.7224 -2.86886,9.4694 -10.67945,24.8951 -16.61682,32.8175 -10.43615,13.9254 -25.72072,26.5811 -40.86596,33.8375 l -6.68936,3.2049 -0.57462,-23.4268 c -0.4119,-16.789 -0.98788,-25.1957 -2.03271,-29.6701 z"
           id="path1284" />
        <path
           style="fill:#fece00;fill-opacity:1;stroke-width:0.89192"
           d="m 29.294127,1720.2308 c -18.729799,-3.2664 -36.046832,-13.9773 -46.010506,-28.459 -3.239525,-4.7086 -9.866302,-18.3701 -9.866302,-20.3401 0,-0.755 2.004721,-1.8984 4.962716,-2.8309 10.71261,-3.3769 22.559836,-11.0458 30.964485,-20.0443 5.073563,-5.4318 8.657552,-7.4613 12.515981,-7.0877 2.753579,0.2667 2.855791,0.4278 3.287777,5.1809 0.378495,4.1621 0.716339,4.9055 2.229866,4.9055 1.766265,0 1.78603,-0.6707 2.01247,-68.0085 0.125679,-37.4047 0.445374,-68.0085 0.710371,-68.0085 0.265005,0 3.580444,1.7871 7.367242,3.9714 9.57783,5.5245 22.266195,11.4333 34.675768,16.1483 11.101843,4.2182 34.014775,11.0972 36.962195,11.0972 1.7077,0 1.73311,1.0249 1.46932,59.0895 l -0.26872,59.0893 -2.10014,6.2434 c -8.883109,26.4085 -28.950089,44.2447 -55.091742,48.9673 -9.287899,1.678 -14.582811,1.6971 -23.820781,0.086 z"
           id="path1286" />
        <path
           style="fill:#69d4dc;fill-opacity:1;stroke-width:0.89192"
           d="m 284.1508,1676.3304 c 0.202,-0.2022 2.38315,0.6539 4.84672,1.9022 6.16195,3.1227 13.02347,10.3742 16.45886,17.3944 2.73366,5.5866 2.87499,6.3817 2.87499,16.1786 0,10.0825 -0.071,10.446 -3.29213,16.9464 -3.77066,7.6089 -8.83881,12.9768 -15.88401,16.8237 l -4.9056,2.6784 -0.23314,-35.7781 c -0.12851,-19.678 -0.0686,-35.9436 0.13431,-36.1456 z"
           id="path1288" />
        <path
           style="fill:#4747ff;fill-opacity:1;stroke-width:0.89192"
           d="m 116.12365,1691.891 c 0,-56.7601 0.38503,-66.1585 3.15305,-76.9718 1.69286,-6.6125 7.21865,-18.3078 11.85448,-25.0896 11.63943,-17.0268 32.82328,-30.1752 53.34677,-33.1109 l 4.29728,-0.6147 5.22005,6.9276 c 5.53588,7.3465 7.86093,9.2242 9.96464,8.0468 1.51174,-0.846 9.02677,-9.5051 10.27755,-11.8421 0.72482,-1.3545 1.39801,-1.4741 4.44329,-0.7899 11.23478,2.5243 24.93572,10.5179 35.59395,20.7668 11.79843,11.3454 18.9147,24.4995 22.33582,41.2871 1.75287,8.6014 1.84169,11.9233 1.84169,68.8785 v 59.8411 h -81.16425 -81.16432 z"
           id="path1290" />
        <path
           style="fill:#ffffff;fill-opacity:1;stroke-width:0.89192"
           d="m -83.32822,1748.8116 c -0.64947,-1.6925 4.22443,-17.331 8.26679,-26.5247 8.22475,-18.7066 22.6117,-37.4097 37.175079,-48.328 2.367733,-1.7752 4.621804,-3.2275 5.009021,-3.2275 0.387296,0 1.597904,2.4515 2.690574,5.4479 9.358245,25.6661 31.506503,44.1779 58.597068,48.9762 10.593379,1.8764 24.877311,0.7874 35.307497,-2.6915 19.247698,-6.4201 34.141578,-19.0285 43.664951,-36.9644 l 3.34256,-6.2951 0.0242,34.859 c 0.0129,19.1725 -0.24419,35.1267 -0.57114,35.4537 -0.32712,0.327 -43.887444,0.5945 -96.800853,0.5945 -83.454627,0 -96.272217,-0.1722 -96.705017,-1.3001 z"
           id="path1292" />
        <path
           style="fill:#ffffff;stroke-width:0.89192"
           d="m 198.6199,1560.8028 c -4.7232,-5.4807 -10.07507,-14.811 -12.50572,-21.8021 -4.24605,-12.2122 -3.77043,-23.9272 1.48384,-36.5485 3.72193,-8.9404 4.75757,-9.5567 6.16154,-3.667 0.61769,2.5917 1.84653,6.4081 2.73075,8.4808 1.58564,3.7179 1.58201,3.7867 -0.26371,5.0794 -3.32125,2.3264 -5.16996,6.0837 -5.17625,10.5199 0,3.4308 0.50064,4.7826 2.74333,7.3368 5.10704,5.8168 12.22364,6.0399 17.70804,0.5555 3.20372,-3.2038 3.26148,-3.2211 6.55014,-1.9696 3.91861,1.4914 3.98968,2.1322 1.13316,10.2262 -3.30294,9.3596 -13.79442,25.5793 -16.54559,25.5793 -0.41407,0 -2.22284,-1.7059 -4.01953,-3.7907 z"
           id="path1294" />
        <path
           style="fill:#ffffff;stroke-width:0.89192"
           d="m -122.99084,1429.6145 c -6.30355,-1.9105 -13.59266,-5.8202 -17.83493,-9.5667 l -3.93568,-3.4757 3.12171,-2.7052 c 4.87675,-4.226 16.75365,-9.7944 23.20993,-10.8818 4.34732,-0.7321 7.05636,-0.7033 10.94522,0.1164 6.17268,1.3016 17.58123,6.9061 22.31759,10.9638 l 3.4037,2.9158 -4.29567,3.27 c -4.84655,3.6894 -12.36141,7.6507 -17.6744,9.3168 -4.76762,1.4949 -14.4007,1.5181 -19.25747,0.047 z"
           id="path1296" />
        <path
           style="fill:#000000;stroke-width:0.89192"
           d="m -118.07433,1427.8741 c 2.42127,-1.9613 3.8951,-4.8391 3.8951,-7.6055 0,-2.3891 -2.76205,-6.3744 -5.39392,-7.7829 -1.44384,-0.7727 -1.95477,-0.3801 -3.53448,2.7163 -1.58093,3.0988 -5.26379,6.3249 -8.46396,7.4138 -1.42411,0.4848 1.27311,4.7394 3.70745,5.8485 3.17089,1.4447 7.60786,1.1773 9.78981,-0.5902 z"
           id="path1298" />
        <path
           id="path1575"
           style="fill:#000000;fill-opacity:1;stroke:none;stroke-width:5.58145"
           d="m -1077.8092,1276.4259 -5.9733,5.9287 -5.9286,-5.9734 -1.1936,1.1846 5.9286,5.9734 -5.9733,5.9286 1.186,1.195 5.9733,-5.9287 5.9287,5.9733 1.1935,-1.1846 -5.9286,-5.9733 5.9733,-5.9286 z" />
        <path
           id="path1577"
           style="fill:#ffffff;fill-opacity:1;stroke:none;stroke-width:5.58145"
           d="m -657.80918,1216.4259 -5.97333,5.9287 -5.92863,-5.9734 -1.19356,1.1846 5.92864,5.9734 -5.97333,5.9286 1.186,1.195 5.97333,-5.9287 5.92863,5.9733 1.19356,-1.1846 -5.92864,-5.9733 5.97333,-5.9286 z" />
        <path
           id="path1579"
           style="fill:#4747ff;fill-opacity:1;stroke:none;stroke-width:11.215"
           d="m -1164.5464,1642.0112 -12.0024,11.9127 -11.9125,-12.0025 -2.3983,2.3802 11.9125,12.0025 -12.0023,11.9125 2.3831,2.4012 12.0023,-11.9127 11.9127,12.0023 2.3981,-2.3802 -11.9125,-12.0024 12.0023,-11.9125 z" />
        <path
           id="path1581"
           style="fill:#fece00;fill-opacity:1;stroke:none;stroke-width:5.58145"
           d="m -437.80918,1356.4259 -5.97333,5.9287 -5.92863,-5.9734 -1.19356,1.1846 5.92864,5.9734 -5.97333,5.9286 1.186,1.195 5.97333,-5.9287 5.92863,5.9733 1.19356,-1.1846 -5.92864,-5.9733 5.97333,-5.9286 z" />
        <path
           id="path1585"
           style="fill:#ffffff;fill-opacity:1;stroke:none;stroke-width:11.215"
           d="m -324.5464,1682.0112 -12.0024,11.9127 -11.9125,-12.0025 -2.3983,2.3802 11.9125,12.0025 -12.0023,11.9125 2.3831,2.4012 12.0023,-11.9127 11.9127,12.0023 2.3981,-2.3802 -11.9125,-12.0024 12.0023,-11.9125 z" />
        <path
           id="path1587"
           style="fill:#000000;fill-opacity:1;stroke:none;stroke-width:11.215"
           d="m 435.4536,1602.0112 -12.0024,11.9127 -11.9125,-12.0025 -2.3983,2.3802 11.9125,12.0025 -12.0023,11.9125 2.3831,2.4012 12.0023,-11.9127 11.9127,12.0023 2.3981,-2.3802 -11.9125,-12.0024 12.0023,-11.9125 z" />
        <path
           id="path1589"
           style="fill:#ffffff;fill-opacity:1;stroke:none;stroke-width:5.58145"
           d="m 482.19082,1396.4259 -5.97333,5.9287 -5.92863,-5.9734 -1.19356,1.1846 5.92864,5.9734 -5.97333,5.9286 1.186,1.195 5.97333,-5.9287 5.92863,5.9733 1.19356,-1.1846 -5.92864,-5.9733 5.97333,-5.9286 z" />
        <path
           id="path1591"
           style="fill:#4747ff;fill-opacity:1;stroke:none;stroke-width:11.215"
           d="m 615.4536,1732.0112 -12.0024,11.9127 -11.9125,-12.0025 -2.3983,2.3802 11.9125,12.0025 -12.0023,11.9125 2.3831,2.4012 12.0023,-11.9127 11.9127,12.0023 2.3981,-2.3802 -11.9125,-12.0024 12.0023,-11.9125 z" />
        <path
           id="path1593"
           style="fill:#fece00;fill-opacity:1;stroke:none;stroke-width:5.58145"
           d="m 742.19082,1576.4259 -5.97333,5.9287 -5.92863,-5.9734 -1.19356,1.1846 5.92864,5.9734 -5.97333,5.9286 1.186,1.195 5.97333,-5.9287 5.92863,5.9733 1.19356,-1.1846 -5.92864,-5.9733 5.97333,-5.9286 z" />
        <path
           id="path1595"
           style="fill:#ffffff;fill-opacity:1;stroke:none;stroke-width:11.215"
           d="m 1195.4536,1622.0112 -12.0024,11.9127 -11.9125,-12.0025 -2.3983,2.3802 11.9125,12.0025 -12.0023,11.9125 2.3831,2.4012 12.0023,-11.9127 11.9127,12.0023 2.3981,-2.3802 -11.9125,-12.0024 12.0023,-11.9125 z" />
        <g
           id="g1713"
           transform="rotate(19.556685,1090.9346,1726.7897)"
           inkscape:transform-center-x="2.0290961"
           inkscape:transform-center-y="-4.0587926">
          <g
             id="g1703">
            <g
               id="g1681">
              <path
                 style="fill:#000000;stroke-width:0.280826"
                 d="m 994.11294,1679.8504 c 0.0892,-18.0588 2.28615,-20.5326 3.88882,-23.5907 3.50104,-6.6804 4.28114,-14.543 9.49854,-17.1353 5.3671,-2.6667 10.8041,-4.8002 16.9941,-4.332 4.1725,0.3156 7.0414,-4.2364 10.6957,-2.0091 5.1918,3.1644 7.7871,-5.0236 10.4249,-0.4793 2.4711,4.257 7.5097,27.888 13.5229,54.4972 0.8341,3.691 2.4312,11.3134 2.2772,11.4712 -0.1397,0.1433 -2.9789,0.392 -4.4076,0.4696 l -1.9032,0.1032 -0.1842,9.1862 5.6155,-0.1505 -5.9973,16.6182 -0.7701,1.3431 c -0.8815,1.5376 -2.289,2.4897 -4.7767,3.2314 -2.9643,0.8837 -10.5513,0.4495 -15.8155,-0.9051 -6.5213,-1.9064 -17.0655,-4.4967 -18.9314,-5.7103 0,0 -0.2387,9.3452 -1.0222,26.0967 -6.2129,-0.7066 -14.8914,-4.5594 -18.97808,-18.8103 -0.19581,-26.46 -0.11841,-27.2094 -0.13138,-49.8942 z"
                 id="path1597"
                 sodipodi:nodetypes="cssssssssccccssccccc" />
              <path
                 style="fill:#fece00;fill-opacity:1;stroke-width:0.280826"
                 d="m 1012.3421,1744.617 c 0.093,-1.212 0.2531,-7.0456 0.3549,-12.9633 0.1502,-8.7279 0.257,-10.788 0.5658,-10.9094 0.2094,-0.082 3.2171,0.8159 6.6838,1.9963 10.8485,3.6936 17.455,5.1254 23.7755,5.1528 5.5395,0.024 7.5267,-0.6419 8.8599,-2.9688 0.5265,-0.919 1.4855,-2.7034 3.6538,-8.9314 l 2.3348,-6.706 -10.8795,0.1876 c -3.0982,-0.1029 -7.7706,-0.1874 -10.3832,-0.1878 0,0 1.6354,-1.6068 5.6056,-1.5061 l 10.3768,0.1748 v -7.0237 l -0.096,-2.2254 -4.2718,-0.1488 c 0,0 -3.3186,-0.5495 1.4683,-0.7759 8.5019,-0.3925 9.7713,-0.155 9.5958,-0.7597 -0.1303,-0.4492 -3.7763,-16.3844 -6.5847,-28.6827 -1.4665,-6.4219 -1.9934,-8.139 -3.3491,-10.9161 -2.7752,-5.6846 -7.8379,-10.59 -13.8869,-13.4555 -6.7027,-3.1752 -15.4277,-3.3231 -22.3262,-0.3787 -4.8543,2.072 -10.1319,6.4636 -12.9585,10.7832 -2.35133,3.5935 -4.26041,8.4606 -4.601,12.2155 l -0.32911,3.6283 c -0.0861,11.7115 -0.1846,16.6941 -0.0819,27.8381 l 0.0964,15.3551 c 0.10663,16.9776 0.0985,16.8904 1.97008,21.0438 1.19982,2.6624 2.20743,4.155 4.25013,6.2954 2.1268,2.2285 4.6622,3.9825 7.4238,5.136 1.2202,0.5096 2.2962,0.9287 2.3909,0.9314 0.095,0 0.2485,-0.9869 0.3419,-2.199 z"
                 id="path1599"
                 sodipodi:nodetypes="sssscsscccccccccsssssssccsssscss" />
              <path
                 style="fill:#000000;stroke-width:0.222154"
                 d="m 1066.518,1686.3659 c -2.6676,-0.3699 -8.0969,-3.2668 -8.0969,-4.3202 0,-0.6961 3.7629,-2.9948 6.3108,-3.8551 1.7552,-0.5926 5.4701,-0.5551 7.2839,0.074 2.7675,0.9594 6.2825,3.2204 6.1235,3.939 -0.1078,0.4868 -2.6113,2.1782 -4.5072,3.0452 -1.5219,0.6959 -4.232,1.3672 -5.3281,1.3197 -0.2619,-0.011 -1.0656,-0.1023 -1.786,-0.2023 z"
                 id="path1603" />
              <path
                 style="fill:#ffffff;fill-opacity:1;stroke-width:0.222154"
                 d="m 1070.8263,1685.0757 c 1.683,-0.4439 3.6293,-1.3523 4.762,-2.2228 l 1.0508,-0.8076 -0.8335,-0.6285 c -1.3021,-0.9819 -4.4733,-2.2757 -6.1971,-2.5284 -1.1608,-0.1701 -1.8841,-0.1634 -2.9225,0.027 -1.6481,0.3024 -4.6942,1.6046 -5.9588,2.5474 l -0.9088,0.6775 1.1469,0.7598 c 1.2941,0.8572 3.3006,1.7776 4.7192,2.1647 1.2729,0.3474 3.845,0.3528 5.1418,0.011 z"
                 id="path1605" />
              <path
                 style="fill:#000000;stroke-width:0.222154"
                 d="m 1066.8435,1683.742 c -0.6465,-0.4557 -1.04,-1.1244 -1.04,-1.7672 0,-0.5551 0.7375,-1.4811 1.4402,-1.8083 0.3855,-0.1796 0.5219,-0.088 0.9437,0.6311 0.4221,0.72 1.4055,1.4696 2.2599,1.7226 0.3803,0.1126 -0.3399,1.1012 -0.9899,1.3589 -0.8466,0.3357 -2.0313,0.2735 -2.6139,-0.1371 z"
                 id="path1607" />
            </g>
            <path
               style="fill:#000000;stroke-width:0.213486"
               d="m 1040.615,1673.4586 c -1.6911,-0.3522 -2.7096,-0.7912 -4.3527,-1.8759 -1.4432,-0.9529 -1.8786,-1.4363 -1.7024,-1.8908 0.1773,-0.4575 0.7408,-0.2748 2.0233,0.6562 0.6916,0.5019 1.8567,1.1718 2.5891,1.4887 1.1358,0.4912 1.6093,0.5751 3.2183,0.5711 1.6168,0 2.0729,-0.089 3.1894,-0.5912 0.7166,-0.3226 1.8388,-0.9903 2.4938,-1.484 1.2753,-0.961 1.7921,-1.1024 2.0201,-0.5527 0.3412,0.8226 -3.3407,3.0825 -5.9483,3.6512 -1.6639,0.3629 -1.9113,0.3648 -3.5306,0.027 z"
               id="path1601" />
          </g>
        </g>
        <path
           style="fill:#000000;stroke-width:0.317959"
           d="m 1039.2551,1752.3106 c 0,-0.4171 -1.8631,-0.477 -14.8602,-0.477 h -14.8602 l 1.6235,-1.0934 c 6.434,-4.3328 8.4377,-13.5602 4.3933,-20.2319 -1.0389,-1.714 -3.6044,-4.3753 -5.2262,-5.4217 l -0.7907,-0.5102 1.7445,-0.884 c 10.7689,-5.457 18.8387,-16.1431 21.4885,-28.455 0.9079,-4.219 0.839,-12.4673 -0.1408,-16.8517 -1.4107,-6.3122 -4.1826,-12.1241 -8.1307,-17.0476 -4.6917,-5.8508 -11.3599,-10.6591 -18.0225,-12.9955 -1.5706,-0.5507 -3.0176,-1.3459 -4.1334,-2.2716 -1.9943,-1.6543 -6.04089,-3.6834 -8.55288,-4.2886 -1.20694,-0.2909 -3.5594,-0.3948 -7.5925,-0.3354 -6.57422,0.097 -6.01155,0.3785 -4.9629,-2.4854 2.74996,-7.5106 -1.89234,-16.6276 -9.88624,-19.4156 -1.58944,-0.5544 -2.62037,-0.6535 -6.63116,-0.6378 -11.01105,0.043 -23.96033,2.6051 -33.9162,6.7106 -2.48015,1.0227 -2.81345,0.9445 -2.82312,-0.6625 -0.0152,-2.5511 -2.19004,-7.8891 -4.47286,-10.9793 -7.15314,-9.6828 -20.42201,-15.2598 -34.91136,-14.6735 -5.30782,0.2147 -8.85088,0.8336 -13.30706,2.3246 -3.81333,1.2758 -5.32479,1.9872 -9.5143,4.4777 -5.95213,3.5383 -10.29372,7.7074 -13.31787,12.7887 -2.83291,4.7601 -3.14484,5.8669 -10.03867,35.6208 -0.95626,4.1271 -1.46355,6.9272 -1.28706,7.1037 0.16024,0.1602 1.63038,0.3856 3.26682,0.5007 l 2.97552,0.2092 0.15895,17.1696 0.15896,17.1697 0.88287,1.5018 c 1.01061,1.7193 2.62432,2.784 5.4763,3.6132 3.39847,0.9881 12.0966,0.5027 18.13166,-1.012 l 0.78673,-0.1975 v 25.63 25.6299 h -18.28249 c -16.03914,0 -18.28249,0.059 -18.28249,0.477 0,0.4229 11.48169,0.4769 101.42809,0.4769 89.94636,0 101.42816,-0.054 101.42816,-0.4769 z"
           id="path1611" />
        <path
           style="fill:#ffffff;fill-opacity:1;stroke-width:0.317959"
           d="m 983.03941,1670.9454 c -3.01985,-1.5303 -5.63798,-5.1786 -6.57831,-9.1668 -0.70614,-2.9951 -0.62864,-3.593 0.6399,-4.9391 l 1.11921,-1.1877 1.296,1.4266 c 2.92814,3.2233 5.25591,8.3967 5.5943,12.4329 0.2116,2.5242 0.15601,2.5627 -2.0711,1.4341 z"
           id="path1613" />
        <path
           style="fill:#69d4dc;stroke-width:0.317959;fill-opacity:1"
           d="m 984.24864,1680.2808 c 0,-0.1819 0.2891,-0.8974 0.64248,-1.59 0.35334,-0.6927 0.83797,-2.0105 1.07691,-2.9285 l 0.43445,-1.6691 1.30775,0.06 c 1.17444,0.054 1.30776,-0.015 1.30776,-0.68 0,-0.5884 -0.21922,-0.7814 -1.06769,-0.9406 l -1.06759,-0.2003 -0.20787,-2.4923 c -0.25215,-3.0239 -0.87527,-5.2129 -2.31117,-8.1199 -1.17798,-2.3846 -3.61554,-5.8315 -5.17694,-7.3205 l -0.97929,-0.9338 -0.98158,0.9338 c -2.62901,2.5013 -5.78407,7.7713 -6.75813,11.2884 -1.14631,4.139 -0.8939,8.1208 0.78248,12.3446 0.51294,1.2925 0.89315,2.3827 0.84484,2.4228 -0.21649,0.1797 -14.37311,-0.4808 -16.93945,-0.7902 -18.92572,-2.2827 -38.67708,-11.03 -48.39043,-21.431 -3.67696,-3.9372 -4.88479,-7.0916 -3.86247,-10.0867 2.69462,-7.8945 18.73789,-18.5441 35.56019,-23.6051 10.08231,-3.0331 25.05013,-5.0332 30.36482,-4.0573 5.30442,0.974 9.63818,4.8743 11.13427,10.0206 0.78768,2.7095 0.54925,6.7503 -0.53788,9.1167 l -0.81611,1.7765 -6.6389,0.2106 -6.63889,0.2106 -0.86204,-1.0332 c -0.47413,-0.5683 -1.33247,-1.9633 -1.90742,-3.1 -0.92312,-1.8249 -1.04546,-2.3651 -1.04572,-4.617 -2.6e-4,-2.231 0.12748,-2.8083 1.01995,-4.6104 0.56118,-1.133 1.6008,-2.7579 2.31028,-3.6111 1.02384,-1.231 1.2139,-1.6428 0.92112,-1.9955 -0.55615,-0.6702 -1.43939,0.047 -3.16137,2.5659 -2.01577,2.9491 -2.6623,4.8824 -2.64638,7.9129 0.0124,2.3119 0.11386,2.6787 1.49253,5.3862 0.8137,1.598 1.44378,2.9412 1.4001,2.9848 -0.0434,0.043 -4.04725,0.1814 -8.89689,0.3064 -6.33484,0.163 -8.90868,0.3366 -9.14108,0.6167 -0.20127,0.2425 -0.29079,2.6574 -0.2369,6.3898 0.0832,5.7591 0.11218,6 0.72256,6 0.6086,0 0.6396,-0.2409 0.7226,-5.6121 l 0.0867,-5.6122 3.88773,-0.1842 c 10.21354,-0.4838 41.14498,-0.8693 42.67848,-0.5319 7.70255,1.6949 13.18195,6.9728 15.12465,14.5688 0.7805,3.0519 0.777,5.3772 -0.013,8.4653 -1.8249,7.1352 -7.3109,12.5027 -14.31695,14.0073 -2.47653,0.532 -9.2207,0.6518 -9.2207,0.1639 z"
           id="path1615" />
        <path
           style="fill:#000000;stroke-width:0.317959"
           d="m 930.04294,1662.698 c 2.63777,-1.197 3.90815,-4.3346 2.86309,-7.0711 -0.51519,-1.349 -0.51528,-1.4934 0,-2.5754 1.10062,-2.3194 -0.25226,-5.9991 -2.5601,-6.9634 -4.31872,-1.8045 -8.10669,1.8796 -8.1988,7.9738 -0.0542,3.5907 1.16187,6.5873 3.32454,8.192 1.06608,0.791 3.32508,1.0104 4.57308,0.4441 z"
           id="path1617" />
        <path
           style="fill:#fece00;fill-opacity:1;stroke-width:0.317959"
           d="m 925.64275,1659.9541 c -1.97632,-2.3488 -2.3577,-7.0715 -0.81338,-10.0724 0.70701,-1.3739 1.66527,-2.3507 1.97036,-2.0086 0.0724,0.081 0.21968,3.0451 0.32718,6.5864 0.21396,7.0493 0.11923,7.4001 -1.48416,5.4946 z"
           id="path1619" />
        <path
           style="fill:#fece00;fill-opacity:1;stroke-width:0.317959"
           d="m 929.24083,1658.2749 c 0,-1.4427 -0.0943,-4.4474 -0.20803,-6.677 -0.17646,-3.4604 -0.13784,-4.054 0.26382,-4.054 0.73001,0 1.87946,1.4091 2.15844,2.646 0.18713,0.8298 0.0984,1.4607 -0.34455,2.4501 -0.71071,1.5875 -0.73205,2.17 -0.10951,2.993 0.7714,1.0199 0.59371,3.1578 -0.3563,4.2868 -0.45277,0.538 -0.95355,0.9783 -1.1129,0.9783 -0.15929,0 -0.29025,-1.1804 -0.29097,-2.6232 z"
           id="path1621" />
        <path
           style="fill:#ffffff;fill-opacity:1;stroke-width:0.317959"
           d="m 896.06221,1719.1635 c -0.10704,-1.3552 -0.29014,-7.8781 -0.4069,-14.4953 -0.17211,-9.7593 -0.29465,-12.0628 -0.64866,-12.1986 -0.24004,-0.092 -3.68823,0.9124 -7.66264,2.2322 -12.43725,4.1302 -20.01132,5.7312 -27.25743,5.7618 -6.35084,0.026 -8.62898,-0.7177 -10.15741,-3.3196 -0.60369,-1.0276 -0.66057,-1.7155 -0.75203,-9.089 l -0.0989,-7.9774 6.45805,-0.2092 c 3.55193,-0.115 8.90869,-0.2096 11.90389,-0.21 4.45207,0 5.51803,-0.088 5.84161,-0.4778 0.30972,-0.3732 0.31237,-0.5776 0.0121,-0.9394 -0.3287,-0.396 -2.09213,-0.4344 -12.28027,-0.267 l -11.89646,0.1955 v -7.8537 -7.8538 l 5.0078,0.1913 c 2.75431,0.1052 5.31941,0.2543 5.70025,0.3311 0.38397,0.078 0.92525,-0.093 1.21504,-0.3829 1.1166,-1.1166 0.0919,-1.3438 -7.6307,-1.6917 -9.74701,-0.439 -10.72167,-0.5528 -10.52055,-1.2289 0.14941,-0.5024 2.88074,-12.0577 6.10054,-25.8093 1.6813,-7.1808 2.28527,-9.101 3.83954,-12.2061 3.18159,-6.3564 8.98579,-11.8416 15.92068,-15.0457 7.68436,-3.5504 17.68707,-3.7159 25.59588,-0.4234 5.56531,2.3168 11.61576,7.2274 14.8563,12.0575 2.69572,4.0181 4.80075,9.469 5.27485,13.659 l 0.20387,1.8024 -2.3374,1.587 c -1.28559,0.8729 -3.84571,3.09 -5.68926,4.927 -6.73509,6.7113 -7.44017,10.9769 -2.84014,17.182 1.8287,2.4667 4.93989,5.3176 8.68998,7.9627 l 2.44421,1.724 -0.11052,17.1697 c -0.12225,18.984 -0.11287,18.8865 -2.2586,23.5307 -1.37554,2.9771 -2.53074,4.646 -4.87265,7.0394 -2.43828,2.4919 -5.34494,4.4532 -8.51097,5.7429 -1.39898,0.5699 -2.63248,1.0385 -2.74104,1.0415 -0.10859,0.01 -0.28496,-1.1035 -0.392,-2.4589 z"
           id="path1623" />
        <path
           style="fill:#000000;stroke-width:0.317959"
           d="m 867.87653,1639.5598 c 3.56161,-0.5675 10.81049,-5.0121 10.81049,-6.6283 0,-1.068 -5.02406,-4.5948 -8.42581,-5.9148 -2.34342,-0.9093 -7.30334,-0.8517 -9.72509,0.1131 -3.695,1.4719 -8.38802,4.9409 -8.17571,6.0434 0.14387,0.7469 3.48643,3.342 6.01773,4.6722 2.03199,1.0677 5.65035,2.0977 7.11374,2.0249 0.34972,-0.017 1.42282,-0.1571 2.38465,-0.3105 z"
           id="path1625" />
        <path
           style="fill:#000000;stroke-width:0.317959"
           d="m 888.5437,1650.5943 c 2.42264,-0.5454 3.88163,-1.2252 6.23548,-2.9048 2.06756,-1.4754 2.69121,-2.224 2.43886,-2.9277 -0.25405,-0.7085 -1.06122,-0.4256 -2.89847,1.0159 -0.99079,0.7774 -2.65991,1.8147 -3.70916,2.3052 -1.62703,0.7606 -2.30537,0.8907 -4.61036,0.8845 -2.31618,-0.01 -2.96952,-0.1373 -4.56897,-0.9156 -1.02651,-0.4995 -2.63415,-1.5334 -3.57254,-2.2978 -1.82693,-1.4881 -2.56724,-1.707 -2.89384,-0.8558 -0.48876,1.2737 4.78575,4.7731 8.52129,5.6536 2.38359,0.5619 2.73805,0.5648 5.05771,0.043 z"
           id="path1627" />
        <path
           style="fill:#4747ff;fill-opacity:1;stroke-width:0.317959"
           d="m 1006.371,1704.935 c -1.0695,-4.5797 -3.2471,-9.1686 -5.9803,-12.6028 l -1.35708,-1.7052 v -3.1796 c 0,-2.7252 0.13263,-3.5402 0.9283,-5.7032 0.80138,-2.1785 1.25798,-2.8647 3.33858,-5.0172 3.9149,-4.0504 5.7275,-7.5257 6.3666,-12.2068 0.5844,-4.2809 -0.2137,-8.4389 -2.3886,-12.4454 -0.5934,-1.093 -0.9291,-1.9873 -0.7461,-1.9873 0.1831,0 1.4157,0.5004 2.7391,1.1118 7.7958,3.6019 15.4681,11.2752 18.9808,18.9834 4.1388,9.0819 4.8174,19.2281 1.9247,28.7765 -1.0227,3.3758 -3.8071,8.8748 -5.9237,11.6991 -3.7203,4.9642 -9.1691,9.4758 -14.5682,12.0626 l -2.3846,1.1425 -0.2049,-8.3513 c -0.1468,-5.9851 -0.3521,-8.982 -0.7246,-10.5771 z"
           id="path1629" />
        <path
           style="fill:#69d4dc;stroke-width:0.317959;fill-opacity:1"
           d="m 916.41201,1741.1814 c -6.67694,-1.1644 -12.85025,-4.9827 -16.40217,-10.1452 -1.15486,-1.6786 -3.51722,-6.5488 -3.51722,-7.251 0,-0.2692 0.71466,-0.6768 1.76915,-1.0092 3.81891,-1.2038 8.0423,-3.9377 11.03845,-7.1456 1.80866,-1.9363 3.08631,-2.6598 4.46179,-2.5266 0.98162,0.095 1.01806,0.1525 1.17205,1.8469 0.13493,1.4838 0.25537,1.7488 0.79492,1.7488 0.62966,0 0.6367,-0.2392 0.71742,-24.2442 0.0448,-13.3343 0.15877,-24.2442 0.25324,-24.2442 0.0945,0 1.27639,0.6371 2.62633,1.4157 3.41438,1.9695 7.93762,4.0759 12.36148,5.7567 3.95767,1.5037 12.12584,3.956 13.17656,3.956 0.60877,0 0.61783,0.3654 0.5238,21.0647 l -0.0958,21.0646 -0.74867,2.2257 c -3.16672,9.4143 -10.32035,15.7727 -19.63952,17.4562 -3.31102,0.5982 -5.19859,0.605 -8.49181,0.031 z"
           id="path1631" />
        <path
           style="fill:#4747ff;fill-opacity:1;stroke-width:0.317959"
           d="m 1007.2652,1725.5315 c 0.072,-0.072 0.8496,0.2331 1.7278,0.6781 2.1967,1.1132 4.6427,3.6983 5.8674,6.2009 0.9745,1.9915 1.0249,2.275 1.0249,5.7675 0,3.5942 -0.025,3.7238 -1.1736,6.0411 -1.3442,2.7125 -3.1509,4.6261 -5.6625,5.9975 l -1.7487,0.9548 -0.083,-12.7545 c -0.046,-7.0149 -0.024,-12.8134 0.048,-12.8854 z"
           id="path1633" />
        <path
           style="fill:#ffffff;fill-opacity:1;stroke-width:0.317959"
           d="m 947.36565,1731.0787 c 0,-20.2343 0.13726,-23.5847 1.12402,-27.4395 0.60348,-2.3573 2.57336,-6.5265 4.22598,-8.9442 4.14931,-6.0698 11.70108,-10.7571 19.01745,-11.8036 l 1.53193,-0.2191 1.86088,2.4696 c 1.97347,2.6189 2.80233,3.2883 3.55227,2.8686 0.53892,-0.3016 3.21794,-3.3885 3.66382,-4.2216 0.25839,-0.4828 0.49837,-0.5255 1.58398,-0.2816 4.00506,0.8999 8.88927,3.7495 12.6888,7.4031 4.20602,4.0445 6.74282,8.7338 7.96242,14.7184 0.6249,3.0662 0.6566,4.2505 0.6566,24.5543 v 21.3326 h -28.93409 -28.93406 z"
           id="path1635" />
        <path
           style="fill:#fece00;fill-opacity:1;stroke-width:0.317959"
           d="m 876.26355,1751.3701 c -0.23153,-0.6033 1.50595,-6.1782 2.947,-9.4557 2.93202,-6.6686 8.06079,-13.3361 13.25245,-17.2283 0.84407,-0.6328 1.64762,-1.1506 1.78566,-1.1506 0.13806,0 0.56963,0.874 0.95915,1.9421 3.3361,9.1497 11.23168,15.7489 20.88913,17.4594 3.77641,0.669 8.86845,0.2807 12.58668,-0.9595 6.86156,-2.2886 12.17105,-6.7834 15.56601,-13.1773 l 1.19158,-2.2441 0.009,12.4268 c 0.005,6.8347 -0.087,12.5222 -0.2036,12.6388 -0.11662,0.1166 -15.64533,0.2119 -34.50829,0.2119 -29.75054,0 -34.31985,-0.061 -34.47413,-0.4635 z"
           id="path1637" />
        <path
           style="fill:#ffffff;stroke-width:0.317959"
           d="m 976.77453,1684.3474 c -1.68376,-1.9538 -3.59164,-5.28 -4.45813,-7.7722 -1.51367,-4.3535 -1.34411,-8.5298 0.52897,-13.0291 1.32682,-3.1872 1.69601,-3.4069 2.19651,-1.3073 0.2202,0.9239 0.65826,2.2844 0.97348,3.0233 0.56526,1.3254 0.56396,1.3499 -0.094,1.8108 -1.18398,0.8293 -1.84302,2.1688 -1.84527,3.7502 0,1.223 0.17847,1.7049 0.97797,2.6155 1.82059,2.0736 4.35757,2.1531 6.31269,0.198 1.14208,-1.1421 1.16268,-1.1483 2.33504,-0.7021 1.39694,0.5317 1.42227,0.7601 0.40396,3.6455 -1.17745,3.3365 -4.91754,9.1187 -5.8983,9.1187 -0.14761,0 -0.79241,-0.6081 -1.43291,-1.3513 z"
           id="path1639" />
        <path
           style="fill:#fece00;stroke-width:0.317959;fill-opacity:1"
           d="m 862.12432,1637.5804 c -2.24713,-0.6811 -4.84562,-2.0749 -6.35791,-3.4104 l -1.40306,-1.2391 1.11288,-0.9644 c 1.73849,-1.5065 5.97246,-3.4915 8.27402,-3.8792 1.54979,-0.261 2.51553,-0.2507 3.90185,0.042 2.20048,0.464 6.26749,2.462 7.95594,3.9085 l 1.21338,1.0394 -1.53135,1.1657 c -1.72774,1.3152 -4.40669,2.7274 -6.3007,3.3213 -1.69961,0.5329 -5.13369,0.5412 -6.86505,0.017 z"
           id="path1641" />
        <path
           style="fill:#000000;stroke-width:0.317959"
           d="m 871.44185,1635.534 c 0.86317,-0.6992 1.38857,-1.7251 1.38857,-2.7113 0,-0.8517 -0.98463,-2.2724 -1.92285,-2.7745 -0.51474,-0.2754 -0.69686,-0.1355 -1.26003,0.9683 -0.56356,1.1047 -1.87647,2.2548 -3.01728,2.643 -0.50766,0.1728 0.45385,1.6895 1.32168,2.0849 1.13038,0.515 2.71207,0.4197 3.48991,-0.2104 z"
           id="path1643" />
        <path
           id="path1647"
           style="fill:#fece00;fill-opacity:1;stroke:none;stroke-width:2.31402"
           d="m 1148.9355,1556.1263 -2.4765,2.458 -2.4579,-2.4765 -0.4949,0.4912 2.4579,2.4764 -2.4764,2.4581 0.4917,0.4953 2.4765,-2.4579 2.458,2.4764 0.4948,-0.4911 -2.4579,-2.4765 2.4764,-2.4579 z" />
      </g>
    </g>
  </g>
</svg>
