<?xml version="1.0" encoding="UTF-8" standalone="no"?>
<svg
   xmlns:dc="http://purl.org/dc/elements/1.1/"
   xmlns:cc="http://creativecommons.org/ns#"
   xmlns:rdf="http://www.w3.org/1999/02/22-rdf-syntax-ns#"
   xmlns:svg="http://www.w3.org/2000/svg"
   xmlns="http://www.w3.org/2000/svg"
   xmlns:sodipodi="http://sodipodi.sourceforge.net/DTD/sodipodi-0.dtd"
   xmlns:inkscape="http://www.inkscape.org/namespaces/inkscape"
   class="gridItem__media"
   version="1.1"
   id="Layer_1"
   x="0px"
   y="0px"
   width="960"
   height="860"
   viewBox="0 0 960 860"
   xml:space="preserve"
   fill="none"
   sodipodi:docname="php-development-services.svg"
   inkscape:version="1.0.2 (e86c8708, 2021-01-15)"><metadata
   id="metadata732"><rdf:RDF><cc:Work
       rdf:about=""><dc:format>image/svg+xml</dc:format><dc:type
         rdf:resource="http://purl.org/dc/dcmitype/StillImage" /><dc:title></dc:title></cc:Work></rdf:RDF></metadata><sodipodi:namedview
   pagecolor="#ffffff"
   bordercolor="#666666"
   borderopacity="1"
   objecttolerance="10"
   gridtolerance="10"
   guidetolerance="10"
   inkscape:pageopacity="0"
   inkscape:pageshadow="2"
   inkscape:window-width="1550"
   inkscape:window-height="783"
   id="namedview730"
   showgrid="false"
   inkscape:zoom="0.43580919"
   inkscape:cx="820.39495"
   inkscape:cy="427.33389"
   inkscape:window-x="0"
   inkscape:window-y="23"
   inkscape:window-maximized="0"
   inkscape:current-layer="Layer_1" />








































































































































































































































































































<defs
   id="defs727">
<linearGradient
   id="paint0_linear"
   x1="462.04501"
   y1="376.05399"
   x2="494.29401"
   y2="408.04599"
   gradientUnits="userSpaceOnUse">
<stop
   stop-color="#387EB8"
   id="stop682" />
<stop
   offset="1"
   stop-color="#366994"
   id="stop684" />
</linearGradient>
<linearGradient
   id="paint1_linear"
   x1="481.83401"
   y1="396.60901"
   x2="516.48798"
   y2="429.33701"
   gradientUnits="userSpaceOnUse">
<stop
   stop-color="#FFE052"
   id="stop687" />
<stop
   offset="1"
   stop-color="#FFC331"
   id="stop689" />
</linearGradient>
<linearGradient
   id="paint2_linear"
   x1="479.543"
   y1="267.651"
   x2="463.73999"
   y2="299.888"
   gradientUnits="userSpaceOnUse">
<stop
   stop-color="#3E863D"
   id="stop692" />
<stop
   offset="0.3"
   stop-color="#3E863D"
   id="stop694" />
<stop
   offset="0.5"
   stop-color="#55934F"
   id="stop696" />
<stop
   offset="0.8"
   stop-color="#5AAD45"
   id="stop698" />
<stop
   offset="1"
   stop-color="#5AAD45"
   id="stop700" />
</linearGradient>
<linearGradient
   id="paint3_linear"
   x1="457.22299"
   y1="294.39301"
   x2="485.98499"
   y2="273.142"
   gradientUnits="userSpaceOnUse">
<stop
   stop-color="#3E863D"
   id="stop703" />
<stop
   offset="0.57"
   stop-color="#3E863D"
   id="stop705" />
<stop
   offset="0.72"
   stop-color="#619857"
   id="stop707" />
<stop
   offset="1"
   stop-color="#76AC64"
   id="stop709" />
</linearGradient>
<linearGradient
   id="paint4_linear"
   x1="460.10001"
   y1="283.72"
   x2="483.87"
   y2="283.72"
   gradientUnits="userSpaceOnUse">
<stop
   stop-color="#6BBF47"
   id="stop712" />
<stop
   offset="0.16"
   stop-color="#6BBF47"
   id="stop714" />
<stop
   offset="0.38"
   stop-color="#79B461"
   id="stop716" />
<stop
   offset="0.47"
   stop-color="#75AC64"
   id="stop718" />
<stop
   offset="0.7"
   stop-color="#659E5A"
   id="stop720" />
<stop
   offset="0.9"
   stop-color="#3E863D"
   id="stop722" />
<stop
   offset="1"
   stop-color="#3E863D"
   id="stop724" />
</linearGradient>
<clipPath
   clipPathUnits="userSpaceOnUse"
   id="clipPath3444"><path
     d="M 11.52,162 C 11.52,81.677 135.307,16.561 288,16.561 v 0 c 152.693,0 276.481,65.116 276.481,145.439 v 0 c 0,80.322 -123.788,145.439 -276.481,145.439 v 0 C 135.307,307.439 11.52,242.322 11.52,162"
     id="path3446" /></clipPath><radialGradient
   cx="0"
   cy="0"
   fx="0"
   fy="0"
   gradientTransform="matrix(363.05789,0,0,-363.05789,177.52002,256.30713)"
   gradientUnits="userSpaceOnUse"
   id="radialGradient3452"
   r="1"
   spreadMethod="pad"><stop
     id="stop3454"
     offset="0"
     style="stop-opacity:1;stop-color:#aeb2d5" /><stop
     id="stop3456"
     offset="0.3"
     style="stop-opacity:1;stop-color:#aeb2d5" /><stop
     id="stop3458"
     offset="0.75"
     style="stop-opacity:1;stop-color:#484c89" /><stop
     id="stop3460"
     offset="1"
     style="stop-opacity:1;stop-color:#484c89" /></radialGradient><clipPath
   clipPathUnits="userSpaceOnUse"
   id="clipPath3468"><path
     d="M 0,324 H 576 V 0 H 0 Z"
     id="path3470" /></clipPath><clipPath
   clipPathUnits="userSpaceOnUse"
   id="clipPath3480"><path
     d="M 0,324 H 576 V 0 H 0 Z"
     id="path3482" /></clipPath></defs>
<g
   id="g1286"
   transform="translate(-561.82,-237.2555)"><path
     d="m 1417.5223,1074.5755 84.79,-449.94 c 2.44,-12.97 0.23,-26.38 -6.25,-37.88 l -169.85,-301.16 c -9.2,-16.31 -25.93,-26.94 -44.6,-28.34 l -320.99317,16.9608 c -18.13,-1.36 -60.92845,15.5969 -72.49845,29.6169 L 795.76,521.51 c -10.72,12.99 -84.94809,231.6386 -81.64809,248.1586 l 89.74721,276.1171 z"
     id="path10"
     style="fill:#cccccc"
     sodipodi:nodetypes="ccccccccccc" /><path
     d="M 1368.9362,1027.75 H 827.73196 c -0.16192,0 -0.27295,-0.24 -0.27295,-0.59 0,-0.35 0.11103,-0.59 0.27295,-0.59 h 541.25514 c 0.1619,0 0.2729,0.24 0.2729,0.59 0,0.35 -0.1619,0.59 -0.3238,0.59 z"
     fill="#b0b4b9"
     id="path12"
     style="stroke-width:0.680161" /><path
     d="m 932.92,985.23 c 0,0 -0.44,5.03 -1.03,6.69 -2.48,6.95 -10.36,9.16 -17.35,11.44 l -38.33,13.56 c -3.45,1.1 -3.03,6.15 0.59,6.15 h 4.8 c 0.59,0.84 1.6,1.35 2.7,1.35 1.01,0 2.19,-0.51 2.95,-1.18 0.08,-0.08 0.17,-0.08 0.25,-0.17 h 0.67 c 0.08,0.08 0.25,0.08 0.34,0.25 0.59,0.67 1.52,1.18 2.53,1.18 0.93,0 2.02,-0.42 2.78,-1.01 0.34,-0.34 0.93,-0.25 1.18,0.08 0.51,0.59 1.18,0.93 2.02,0.93 0.76,0 1.68,-0.34 2.36,-0.84 0.34,-0.25 0.84,-0.17 1.1,0.08 0.51,0.42 1.1,0.76 1.85,0.76 1.01,0 1.85,-0.59 2.27,-1.35 h 0.34 l 50.94,-0.76 c 0.05,0 0.09,0 0.14,0 5.15,-0.13 9.49,-3.91 10.51,-8.96 l 4.2,-23.95 z"
     fill="#fc9d9d"
     id="path14" /><path
     opacity="0.15"
     d="m 956.65,987.061 -24.12,1.12 25.53,6.96 -3.01,12.109 c -1.23,4.92 -5.55,8.53 -10.62,8.66 -0.05,0 -0.09,0 -0.14,0 l -50.55,0.76 h -0.34 c -0.42,0.84 -1.35,1.35 -2.27,1.35 -0.67,0 -1.35,-0.25 -1.85,-0.76 -0.34,-0.25 -0.76,-0.34 -1.1,-0.08 -0.67,0.51 -1.6,0.84 -2.36,0.84 -0.84,0 -1.52,-0.34 -2.02,-0.93 -0.34,-0.34 -0.84,-0.34 -1.18,-0.08 -0.76,0.67 -1.85,1.01 -2.78,1.01 -1.01,0 -1.94,-0.42 -2.53,-1.18 -0.08,-0.08 -0.17,-0.17 -0.34,-0.25 h -0.08 l -0.76,0.25 c -0.25,0.08 -0.42,0.17 -0.59,0.25 -0.08,0.08 -0.25,0.17 -0.34,0.25 -2.36,1.68 -1.68,5.73 1.52,5.73 h 4.8 c 0.59,0.84 1.6,1.35 2.7,1.35 1.01,0 2.19,-0.51 2.95,-1.18 0.08,-0.08 0.17,-0.08 0.25,-0.17 h 0.67 c 0.08,0.08 0.25,0.08 0.34,0.25 0.59,0.67 1.52,1.18 2.53,1.18 0.93,0 2.02,-0.42 2.78,-1.01 0.34,-0.34 0.93,-0.25 1.18,0.08 0.51,0.59 1.18,0.93 2.02,0.93 0.76,0 1.68,-0.34 2.36,-0.84 0.34,-0.25 0.84,-0.17 1.1,0.08 0.51,0.42 1.1,0.76 1.85,0.76 1.01,0 1.85,-0.59 2.27,-1.35 h 0.34 l 47.43,-0.76 c 9.08,1.3 11.71,-3.46 13.65,-7 l 4.79,-25.909 z"
     fill="#000000"
     id="path16" /><path
     opacity="0.15"
     d="m 912.18,1004.2 c 0,0 7.41,13.06 21.31,17.77 h -14.07 z"
     fill="#000000"
     id="path18" /><path
     d="m 874.19,1026.69 h 86.94 c 1.26,0 2.36,-1.01 2.36,-2.36 0,-1.26 -1.01,-2.36 -2.36,-2.36 h -89.21 v 2.36 c 0,1.26 1.01,2.36 2.27,2.36 z"
     class="change-color-in-svg"
     fill="#4d61fc"
     id="path20" /><path
     d="m 871.92,1021.97 c 0.17,-4.97 3.37,-9.27 8.09,-10.95 L 908.82,1001 c 1.26,-0.42 2.53,0.25 2.86,1.52 1.26,4.21 4.38,13.23 10.53,19.46 h 38.92 c 1.26,0 2.36,1.01 2.36,2.36 0,1.35 -1.01,2.36 -2.36,2.36 h -86.94 c -1.26,0 -2.27,-1.01 -2.27,-2.27 z"
     class="change-color-in-svg"
     fill="#4d61fc"
     id="path22" /><path
     d="m 871.92,1021.97 c 0.17,-4.97 3.37,-9.27 8.09,-10.95 L 908.82,1001 c 1.26,-0.42 2.53,0.25 2.86,1.52 1.26,4.21 4.38,13.23 10.53,19.46 h 38.92 c 1.26,0 2.36,1.01 2.36,2.36 0,1.35 -1.01,2.36 -2.36,2.36 h -86.94 c -1.26,0 -2.27,-1.01 -2.27,-2.27 z"
     fill="#21252b"
     id="path24" /><path
     opacity="0.4"
     d="m 871.92,1021.97 c 0.17,-3.96 2.19,-7.5 5.39,-9.6 -4.13,2.95 -3.37,5.9 2.53,5.64 30.41,-1.43 34.37,-1.43 37.91,-1.77 -0.08,-0.08 -0.08,-0.17 -0.08,-0.25 1.35,2.11 2.86,4.21 4.63,5.98 h 38.84 c 1.26,0 2.36,1.01 2.36,2.36 0,1.35 -1.01,2.36 -2.36,2.36 H 874.2 c -1.26,0 -2.27,-1.01 -2.27,-2.27 z"
     fill="#000000"
     id="path26" /><path
     opacity="0.4"
     d="m 871.92,1021.21 h 49.61 l 0.68,0.76 h -50.29 z"
     fill="#000000"
     id="path28" /><path
     d="m 1181.9,859.931 h -106.63 c -7.27,0 -12.5,-7.12 -10.44,-14.22 l 11.58,-236.71 c 1.37,-4.71 5.62,-7.94 10.44,-7.94 h 106.63 c 7.27,0 12.5,7.12 10.44,14.22 l -11.57,236.71 c -1.38,4.71 -5.63,7.94 -10.45,7.94 z"
     fill="#84888f"
     id="path30" /><path
     d="m 1167.23,859.931 h -92.87 c -7.27,0 -12.5,-7.12 -10.44,-14.22 l 11.58,-236.71 c 1.37,-4.71 5.62,-7.94 10.44,-7.94 h 92.87 c 7.27,0 12.5,7.12 10.44,14.22 l -11.57,236.71 c -1.38,4.71 -5.63,7.94 -10.45,7.94 z"
     fill="#b0b4b9"
     id="path32" /><path
     d="m 1149.35,859.929 h -112.86 c -5.26,0 -9.53,-4.27 -9.53,-9.53 0,-5.26 4.27,-9.53 9.53,-9.53 h 112.86 c 5.26,0 9.53,4.27 9.53,9.53 0,5.27 -4.26,9.53 -9.53,9.53 z"
     fill="#b0b4b9"
     id="path34" /><path
     d="m 1130.56,1008.36 h -97.01 v 9.6 h 97.01 z"
     fill="#b0b4b9"
     id="path36" /><path
     d="m 1042.57,1016.04 c 0.83,4.98 -2.54,9.69 -7.53,10.52 -4.98,0.83 -9.69,-2.54 -10.52,-7.53 -0.83,-4.98 2.54,-9.69 7.53,-10.52 4.99,-0.83 9.7,2.54 10.52,7.53 z"
     fill="#b0b4b9"
     id="path38" /><path
     d="m 1032.05,1008.51 c 0.5,-0.08 1,-0.11 1.5,-0.11 v -0.04 h 97.01 v 9.6 h -87.88 c -0.19,4.22 -3.3,7.88 -7.64,8.6 -4.98,0.83 -9.69,-2.54 -10.52,-7.53 -0.83,-4.98 2.54,-9.69 7.53,-10.52 z"
     fill="#b0b4b9"
     id="path40" /><path
     d="m 1167.31,1008.36 h -97.01 v 9.6 h 97.01 z"
     fill="#84888f"
     id="path42" /><path
     d="m 1079.32,1016.04 c 0.83,4.98 -2.54,9.69 -7.53,10.52 -4.98,0.83 -9.69,-2.54 -10.52,-7.53 -0.83,-4.98 2.54,-9.69 7.53,-10.52 4.99,-0.83 9.7,2.54 10.52,7.53 z"
     fill="#84888f"
     id="path44" /><path
     d="m 1122.4,854.211 h -9.6 v 158.079 h 9.6 z"
     fill="#84888f"
     id="path46" /><path
     d="m 1176.33,1016.04 c 0.83,4.98 -2.54,9.69 -7.53,10.52 -4.98,0.83 -9.69,-2.54 -10.52,-7.53 -0.83,-4.98 2.54,-9.69 7.53,-10.52 4.99,-0.83 9.7,2.54 10.52,7.53 z"
     fill="#84888f"
     id="path48" /><path
     d="m 1178.9,859.929 h -112.85 c -5.26,0 -9.53,-4.27 -9.53,-9.53 0,-5.26 4.27,-9.53 9.53,-9.53 h 112.85 c 5.26,0 9.53,4.27 9.53,9.53 0,5.27 -4.27,9.53 -9.53,9.53 z"
     fill="#84888f"
     id="path50" /><path
     d="m 1287.95,778.01 h -7.3 v 248.64 h 7.3 z"
     fill="#61656d"
     id="path52" /><path
     d="m 1280.65,778.01 h -77.22 v 248.63 h 77.22 z"
     fill="#61656d"
     id="path54" /><path
     opacity="0.5"
     d="m 1280.65,778.01 h -77.22 v 248.63 h 77.22 z"
     fill="#000000"
     id="path56" /><path
     d="M 1297.33,763.779 H 783.68 v 14.22 h 513.65 c 3.93,0 7.11,-3.18 7.11,-7.11 0,-3.92 -3.18,-7.11 -7.11,-7.11 z"
     fill="#61656d"
     id="path58" /><path
     d="m 932.52,988.18 38.2,1.3 15.5,-148.21 h 148.69 V 778.26 H 960.95 c -0.46,0 -0.92,0.01 -1.38,0.03 -13.46,0.68 -23.9,12.11 -24.11,25.59 z"
     fill="#3f4249"
     id="path60" /><path
     d="m 1001.44,985.23 c 0,0 -0.44,5.03 -1.03,6.69 -2.48,6.95 -10.36,9.16 -17.35,11.44 l -38.33,13.56 c -3.45,1.1 -3.03,6.15 0.59,6.15 h 4.8 c 0.59,0.84 1.6,1.35 2.7,1.35 1.01,0 2.19,-0.51 2.95,-1.18 0.08,-0.08 0.17,-0.08 0.25,-0.17 h 0.67 c 0.08,0.08 0.25,0.08 0.34,0.25 0.59,0.67 1.52,1.18 2.53,1.18 0.93,0 2.02,-0.42 2.78,-1.01 0.34,-0.34 0.93,-0.25 1.18,0.08 0.51,0.59 1.18,0.93 2.02,0.93 0.76,0 1.68,-0.34 2.36,-0.84 0.34,-0.25 0.84,-0.17 1.1,0.08 0.51,0.42 1.1,0.76 1.85,0.76 1.01,0 1.85,-0.59 2.27,-1.35 h 0.34 l 50.94,-0.76 c 0.05,0 0.09,0 0.14,0 5.15,-0.13 9.49,-3.91 10.51,-8.96 l 4.86,-23.95 z"
     fill="#fc9d9d"
     id="path62" /><path
     opacity="0.15"
     d="m 1025.17,987.061 -24.22,2.32 25.62,5.76 -3.01,12.109 c -1.23,4.92 -5.55,8.53 -10.62,8.66 -0.05,0 -0.09,0 -0.14,0 l -50.55,0.76 h -0.34 c -0.42,0.84 -1.35,1.35 -2.27,1.35 -0.67,0 -1.35,-0.25 -1.85,-0.76 -0.34,-0.25 -0.76,-0.34 -1.1,-0.08 -0.67,0.51 -1.6,0.84 -2.36,0.84 -0.84,0 -1.52,-0.34 -2.02,-0.93 -0.34,-0.34 -0.84,-0.34 -1.18,-0.08 -0.76,0.67 -1.85,1.01 -2.78,1.01 -1.01,0 -1.94,-0.42 -2.53,-1.18 -0.08,-0.08 -0.17,-0.17 -0.34,-0.25 h -0.08 l -0.76,0.25 c -0.25,0.08 -0.42,0.17 -0.59,0.25 -0.08,0.08 -0.25,0.17 -0.34,0.25 -2.36,1.68 -1.68,5.73 1.52,5.73 h 4.8 c 0.59,0.84 1.6,1.35 2.7,1.35 1.01,0 2.19,-0.51 2.95,-1.18 0.08,-0.08 0.17,-0.08 0.25,-0.17 h 0.67 c 0.08,0.08 0.25,0.08 0.34,0.25 0.59,0.67 1.52,1.18 2.53,1.18 0.93,0 2.02,-0.42 2.78,-1.01 0.34,-0.34 0.93,-0.25 1.18,0.08 0.51,0.59 1.18,0.93 2.02,0.93 0.76,0 1.68,-0.34 2.36,-0.84 0.34,-0.25 0.84,-0.17 1.1,0.08 0.51,0.42 1.1,0.76 1.85,0.76 1.01,0 1.85,-0.59 2.27,-1.35 h 0.34 l 47.43,-0.76 c 9.08,1.3 11.71,-3.46 13.65,-7 l 5.45,-25.909 z"
     fill="#000000"
     id="path64" /><path
     opacity="0.15"
     d="m 980.7,1004.2 c 0,0 7.41,13.06 21.31,17.77 h -14.07 z"
     fill="#000000"
     id="path66" /><path
     opacity="0.2"
     d="m 951.03,988.81 19.7,0.67 15.5,-148.21 h 148.69 V 778.26 H 986.14 c -5.56,0 -10.91,2.91 -15.39,7.1 -6.52,6.1 -10.2,14.64 -10.65,23.56 z"
     fill="#000000"
     id="path68" /><path
     d="m 942.71,1026.69 h 86.94 c 1.26,0 2.36,-1.01 2.36,-2.36 0,-1.26 -1.01,-2.36 -2.36,-2.36 h -89.21 v 2.36 c 0,1.26 1.01,2.36 2.27,2.36 z"
     class="change-color-in-svg"
     fill="#4d61fc"
     id="path70" /><path
     d="m 940.44,1021.97 c 0.17,-4.97 3.37,-9.27 8.09,-10.95 L 977.34,1001 c 1.26,-0.42 2.53,0.25 2.86,1.52 1.26,4.21 4.38,13.23 10.53,19.46 h 38.92 c 1.26,0 2.36,1.01 2.36,2.36 0,1.35 -1.01,2.36 -2.36,2.36 h -86.94 c -1.26,0 -2.27,-1.01 -2.27,-2.27 z"
     class="change-color-in-svg"
     fill="#4d61fc"
     id="path72" /><path
     d="m 940.44,1021.97 c 0.17,-4.97 3.37,-9.27 8.09,-10.95 L 977.34,1001 c 1.26,-0.42 2.53,0.25 2.86,1.52 1.26,4.21 4.38,13.23 10.53,19.46 h 38.92 c 1.26,0 2.36,1.01 2.36,2.36 0,1.35 -1.01,2.36 -2.36,2.36 h -86.94 c -1.26,0 -2.27,-1.01 -2.27,-2.27 z"
     fill="#21252b"
     id="path74" /><path
     opacity="0.4"
     d="m 940.44,1021.97 c 0.17,-3.96 2.19,-7.5 5.39,-9.6 -4.13,2.95 -3.37,5.9 2.53,5.64 30.41,-1.43 34.37,-1.43 37.91,-1.77 -0.08,-0.08 -0.08,-0.17 -0.08,-0.25 1.35,2.11 2.86,4.21 4.63,5.98 h 38.84 c 1.26,0 2.36,1.01 2.36,2.36 0,1.35 -1.01,2.36 -2.36,2.36 h -86.94 c -1.26,0 -2.27,-1.01 -2.27,-2.27 z"
     fill="#000000"
     id="path76" /><path
     opacity="0.4"
     d="m 940.44,1021.21 h 49.62 l 0.67,0.76 h -50.29 z"
     fill="#000000"
     id="path78" /><path
     d="m 1000.95,989.38 38.95,0.1 32.76,-148.21 h 69.66 c 13.27,0 24.03,-10.76 24.03,-24.03 v -38.99 h -117.02 c -11.12,0 -21.14,6.74 -25.36,17.02 z"
     fill="#3f4249"
     id="path80" /><path
     opacity="0.2"
     d="m 1048.48,827.88 c 6.32,-12.3 13.31,-15.92 27.13,-15.92 h 71.91 l -3.62,-33.7 h 21.99 v 39.77 c 0,12.84 -10.41,23.24 -23.24,23.24 h -69.89 l -32.84,148.21 -17.96,-0.05 z"
     fill="#000000"
     id="path82" /><path
     d="m 999.36,763.7 16.85,-116.08 c 1.77,-11.96 10.61,-21.65 22.32,-24.43 l 45.07,-10.7 45.41,0.42 41.95,10.02 c 14.91,3.54 24.6,17.94 22.32,33.11 l -4.89,32.18 -8.26,17.86 c -0.42,1.01 -0.67,2.02 -0.93,3.03 l -12.87,54.67 z"
     class="change-color-in-svg"
     fill="#4d61fc"
     id="path84" /><path
     d="m 1040.5,675.789 103.76,4.17 -2.21,21.43 -103.66,-4.72 z"
     fill="#ffffff"
     id="path86" /><path
     opacity="0.2"
     d="m 1139.62,724.44 6.66,-65.46 c 0.08,-0.84 -1.1,-1.1 -1.35,-0.25 l -20.72,67.98 z"
     fill="#000000"
     id="path88" /><path
     d="m 1015.87,754.69 c 0.84,1.01 2.36,1.26 3.45,0.42 l 14.91,-10.95 -18.95,8.68 c -0.08,0.67 0.17,1.34 0.59,1.85 z"
     fill="#868a91"
     id="path90" /><path
     opacity="0.2"
     d="m 1042.24,658.651 -8,78.93 -6.99,6.91 -6.4,-4.21 13.98,-75.82 c 1.43,-6.23 7.41,-6.74 7.41,-5.81 z"
     fill="#000000"
     id="path92" /><path
     d="m 1129.09,612.91 c 0,0 0.84,3.45 -1.85,5.14 -3.03,1.77 -14.74,9.6 -31.25,4.63 0,0 -5.22,-1.43 -10.19,-5.05 -1.1,-0.84 -1.94,-2.02 -2.11,-3.45 0,-0.17 0,-0.25 0,-0.42 v -1.18 c 0,0 0,0 -4.63,1.1 0,1.43 0.42,4.13 2.78,6.49 1.35,1.35 21.31,16.76 46.75,2.53 0,0 5.56,-2.19 4.97,-8.68 -4.47,-1.11 -4.47,-1.11 -4.47,-1.11 z"
     fill="#ffffff"
     id="path94" /><path
     d="m 1065.24,735.311 -11.96,1.6 -25.53,-2.27 c -2.7,0.25 -3.88,0.76 -5.9,2.53 l -15.75,14.07 c -1.01,0.93 -1.1,2.44 -0.25,3.45 0.84,1.01 2.36,1.26 3.45,0.42 l 14.91,-10.95 -9.69,11.46 c -1.1,1.26 -0.59,3.29 1.01,3.88 0.93,0.34 1.85,0.08 2.53,-0.51 l 12.97,-12.72 -9.86,9.69 c -1.18,1.18 -0.76,3.12 0.76,3.71 0.76,0.34 1.6,0.17 2.19,-0.25 l 13.82,-10.11 -9.35,6.91 c -1.1,0.76 -1.1,2.44 0,3.2 0.59,0.42 1.35,0.51 1.94,0.25 l 12.55,-5.22 c 1.18,-0.51 2.61,-0.51 3.79,0.08 l 4.8,2.36 c 3.88,1.94 8.26,2.95 12.55,2.95 h 7.83 c 11.22,-0.01 -6.81,-24.53 -6.81,-24.53 z"
     fill="#fc9d9d"
     id="path96" /><path
     opacity="0.15"
     d="m 1028.59,756.619 c 0.08,0 0.17,0 0.25,-0.08 l 8.59,-6.32 c 0.17,-0.17 0.25,-0.42 0.08,-0.59 -0.17,-0.17 -0.42,-0.25 -0.59,-0.08 l -8.59,6.32 c -0.17,0.17 -0.25,0.42 -0.08,0.59 0.09,0.08 0.26,0.16 0.34,0.16 z"
     fill="#000000"
     id="path98" /><path
     opacity="0.15"
     d="m 1021.27,756.37 c 0.08,0 0.25,0 0.25,-0.08 l 9.27,-9.1 c 0.17,-0.17 0.17,-0.42 0,-0.59 -0.17,-0.17 -0.42,-0.17 -0.59,0 l -9.27,9.1 c -0.17,0.17 -0.17,0.42 0,0.59 0.08,0.08 0.25,0.08 0.34,0.08 z"
     fill="#000000"
     id="path100" /><path
     opacity="0.15"
     d="m 1040.3,752.919 c -2.86,1.43 -7.67,3.88 -9.35,4.8 -2.36,1.35 -3.03,-0.42 -3.03,-0.42 -0.17,0.76 0.08,1.6 0.76,2.11 0.59,0.42 1.35,0.51 1.94,0.25 l 12.55,-5.22 c 1.18,-0.51 2.61,-0.51 3.79,0.08 l -2.44,-1.43 c -1.35,-0.76 -2.87,-0.76 -4.22,-0.17 z"
     fill="#000000"
     id="path102" /><path
     d="m 1067.18,736.321 72.36,-10.61 4.72,-45.83 45.15,2.27 -9.18,58.55 c -1.77,11.04 -11.2,19.12 -22.32,19.12 h -82.3 z"
     class="change-color-in-svg"
     fill="#4d61fc"
     id="path104" /><path
     d="m 1057.32,736.321 82.22,-10.53 4.72,-45.83 45.15,2.27 -9.18,58.55 c -1.77,11.04 -11.2,19.12 -22.32,19.12 h -92.41 z"
     class="change-color-in-svg"
     fill="#4d61fc"
     id="path106" /><path
     d="m 1065.49,735.311 -8.17,1.01 8.09,23.51 h 10.11 z"
     fill="#ffffff"
     id="path108" /><g
     opacity="0.2"
     id="g112">
<path
   opacity="0.2"
   d="m 1064.65,734.72 c 0.08,0.34 0.34,0.51 0.59,0.51 h 0.08 l 74.3,-10.78 0.17,-1.35 -74.64,10.87 c -0.33,0.08 -0.58,0.41 -0.5,0.75 z"
   fill="#000000"
   id="path110" />
</g><path
     opacity="0.15"
     d="m 1064.06,755.61 1.35,4.13 h 92.41 c 11.12,0 20.64,-8.09 22.32,-19.12 l 13.23,-84.66 c 2.27,-15.16 -7.41,-29.57 -22.32,-33.11 l -7.83,-1.85 c 11.96,5.31 19.21,18.03 17.19,31.34 l -12.22,78.01 c -1.77,11.04 -11.2,19.12 -22.32,19.12 z"
     fill="#000000"
     id="path114" /><path
     opacity="0.15"
     d="m 1055.89,755.7 c 1.94,0 3.45,-1.77 3.29,-3.71 l -1.85,-15.67 8.17,23.5 h -1.18 c -4.38,0 -8.68,-1.01 -12.55,-2.95 l -5.73,-2.7 c 1.34,0.18 4.88,1.53 9.85,1.53 z"
     fill="#000000"
     id="path116" /><path
     d="m 1076.7,759.15 h -83.06 c -0.67,0 -1.26,0.59 -1.26,1.26 v 2.11 c 0,0.67 0.59,1.26 1.26,1.26 h 83.06 c 0.67,0 1.26,-0.59 1.26,-1.26 v -2.11 c 0,-0.67 -0.51,-1.26 -1.26,-1.26 z"
     fill="#21252b"
     id="path118" /><path
     opacity="0.6"
     d="m 1076.7,759.15 h -83.06 c -0.67,0 -1.26,0.59 -1.26,1.26 v 2.11 c 0,0.67 0.59,1.26 1.26,1.26 h 83.06 c 0.67,0 1.26,-0.59 1.26,-1.26 v -2.11 c 0,-0.67 -0.51,-1.26 -1.26,-1.26 z"
     fill="#000000"
     id="path120" /><path
     d="M 1020.68,759.15 H 875.86 c -0.67,0 -1.26,0.59 -1.26,1.26 v 2.11 c 0,0.67 0.59,1.26 1.26,1.26 h 144.81 c 0.67,0 1.26,-0.59 1.26,-1.26 v -2.11 c -0.08,-0.67 -0.58,-1.26 -1.25,-1.26 z"
     fill="#21252b"
     id="path122" /><g
     opacity="0.6"
     id="g126">
<path
   opacity="0.6"
   d="m 877.72,759.99 h 147.42 c 0.25,0 0.42,-0.17 0.42,-0.42 0,-0.25 -0.17,-0.42 -0.42,-0.42 H 877.72 c -0.25,0 -0.42,0.17 -0.42,0.42 0,0.25 0.25,0.42 0.42,0.42 z"
   fill="#000000"
   id="path124" />
</g><path
     d="m 1021.01,759.149 h -21.82 c -1.68,0 -3.12,-1.18 -3.45,-2.86 l -18.28,-96.12 c -0.42,-2.19 1.26,-4.13 3.45,-4.13 h 21.82 c 1.68,0 3.12,1.18 3.45,2.86 l 18.28,96.12 c 0.34,2.19 -1.26,4.13 -3.45,4.13 z"
     fill="#21252b"
     id="path128" /><path
     opacity="0.6"
     d="m 1021.01,759.149 h -21.82 c -1.68,0 -3.12,-1.18 -3.45,-2.86 l -18.28,-96.12 c -0.42,-2.19 1.26,-4.13 3.45,-4.13 h 21.82 c 1.68,0 3.12,1.18 3.45,2.86 l 18.28,96.12 c 0.34,2.19 -1.26,4.13 -3.45,4.13 z"
     fill="#000000"
     id="path130" /><path
     d="M 1017.9,759.149 H 877.8 c -1.68,0 -3.12,-1.18 -3.45,-2.86 l -18.28,-96.12 c -0.42,-2.19 1.26,-4.13 3.45,-4.13 h 140.01 c 1.68,0 3.12,1.18 3.45,2.86 l 18.28,96.12 c 0.43,2.19 -1.17,4.13 -3.36,4.13 z"
     fill="#21252b"
     id="path132" /><path
     opacity="0.6"
     d="m 937.87,704.9 c 0.84,1.94 -0.08,3.62 -2.02,3.62 -0.08,0 -0.25,0 -0.34,0 2.27,2.53 5.73,4.3 8.76,4.21 4.13,-0.08 6.07,-3.45 4.21,-7.58 -1.77,-4.13 -6.66,-7.33 -10.78,-7.24 -2.61,0.08 -4.38,1.43 -4.8,3.54 1.93,0.08 4.12,1.51 4.97,3.45 z"
     fill="#000000"
     id="path134" /><path
     d="m 1079.9,562.781 c 0,0 38.58,-28.31 42.37,2.53 l 1.1,8.09 5.73,39.51 v 0.08 l 0.08,0.84 c 0.17,1.18 -0.17,2.27 -0.84,3.12 v 0.08 l -0.08,0.08 c -0.25,0.34 -0.59,0.67 -1.01,0.93 -3.12,1.94 -5.14,2.95 -7.67,3.88 -11.46,4.38 -24.68,2.7 -34.79,-5.05 -0.76,-0.93 -1.18,-2.11 -1.1,-3.37 l 0.67,-20.55 c -0.67,-2.11 -1.1,-4.46 -1.35,-7.08 -1.26,-12.13 -3.11,-23.09 -3.11,-23.09 z"
     fill="#fc9d9d"
     id="path136" /><path
     d="m 1075.52,564.97 c 7.58,0 13.73,-6.15 13.73,-13.73 0,-7.58 -6.15,-13.73 -13.73,-13.73 -7.58,0 -13.73,6.15 -13.73,13.73 0,7.58 6.15,13.73 13.73,13.73 z"
     fill="#21252b"
     id="path138" /><path
     d="m 1073.75,541.3 c 0,0 -9.94,61.24 21.31,63.01 27.04,1.6 26.87,-40.27 26.87,-40.27 l -3.29,-26.96 z"
     fill="#fc9d9d"
     id="path140" /><path
     d="m 1075.77,544.931 h 27.46 c 3.45,0 6.23,2.78 6.23,6.23 0,3.45 2.78,6.23 6.23,6.23 0.93,0 1.68,0.76 1.68,1.68 v 6.07 c 0,0.76 0.59,1.43 1.43,1.43 0.67,0 1.26,-0.51 1.35,-1.18 l 0.84,-5.81 1.1,-2.02 6.74,3.54 c 0,0 9.27,-16.85 3.2,-31.09 -3.45,-8.17 -11.96,-10.45 -15.84,-10.7 -1.26,-0.08 -2.44,-0.76 -3.2,-1.77 -1.77,-2.61 -5.98,-6.99 -14.57,-5.98 -6.57,0.76 -10.02,4.55 -11.63,7.67 -1.01,1.77 -3.2,2.61 -5.14,1.94 -2.86,-1.01 -6.99,-1.52 -11.46,1.68 -8.74,6.07 -4.02,21.32 5.58,22.08 z"
     fill="#21252b"
     id="path142" /><path
     opacity="0.15"
     d="m 1123.7,575.42 c 0,0 -2.53,0.42 -3.96,-0.59 l 4.8,6.4 z"
     fill="#000000"
     id="path144" /><path
     d="m 1121.01,559.5 c 0,0 1.6,-5.81 7.67,-3.62 6.91,2.44 6.74,17.86 -4.63,19.54 -5.98,0.93 -4.97,-2.61 -4.3,-7.33 1.26,-8.59 1.26,-8.59 1.26,-8.59 z"
     fill="#fc9d9d"
     id="path146" /><path
     opacity="0.3"
     d="m 1129.26,559.751 c -1.18,-0.67 -2.36,-0.93 -3.37,-0.59 -1.01,0.34 -1.85,1.1 -2.44,2.27 -0.59,1.26 -0.93,2.7 -0.84,4.21 v 1.36 c 0,0.42 0.34,0.67 0.76,0.67 0.42,0 0.67,-0.34 0.67,-0.76 v -1.35 c -0.08,-0.34 0.08,-2.36 0.67,-3.54 0.42,-0.84 1.01,-1.43 1.6,-1.6 0.59,-0.17 1.35,0 2.27,0.51 0.34,0.17 0.76,0.08 0.93,-0.25 0.17,-0.25 0.09,-0.68 -0.25,-0.93 z"
     fill="#000000"
     id="path148" /><path
     d="m 1075.69,546.19 3.2,0.08 c 0.34,0 0.67,-0.25 0.67,-0.59 0,-0.34 -0.25,-0.67 -0.59,-0.67 l -3.2,-0.08 c -0.42,0 -0.84,-0.08 -1.18,-0.17 -0.76,-0.17 -2.27,-0.67 -3.79,-1.52 -0.34,-0.17 -0.67,-0.08 -0.84,0.25 -0.17,0.34 -0.08,0.67 0.25,0.84 1.6,0.93 3.29,1.43 4.13,1.6 0.33,0.17 0.84,0.26 1.35,0.26 z"
     fill="#fc9d9d"
     id="path150" /><path
     opacity="0.15"
     d="m 1083.69,610.04 0.34,-9.77 c 2.78,2.53 10.53,5.81 18.7,3.2 0,0 0.08,-0.08 0,0 5.05,-1.68 8.34,-4.8 10.28,-7.5 0.17,-0.25 0.59,-0.34 0.84,-0.17 0.25,0.17 0.34,0.59 0.17,0.84 -2.44,3.29 -6.74,7.24 -13.65,8.68 -8.17,6.41 -16.68,4.72 -16.68,4.72 z"
     fill="#000000"
     id="path152" /><g
     opacity="0.45"
     id="g156">
<path
   opacity="0.3"
   d="m 1091.78,592.27 h 0.08 c 2.44,0 3.71,0 3.71,0 0.42,0 0.84,-0.34 0.84,-0.84 0,-0.42 -0.34,-0.84 -0.84,-0.84 0,0 -1.26,0 -3.71,0 -0.42,0 -0.84,0.34 -0.84,0.84 0.08,0.42 0.42,0.75 0.76,0.84 z"
   fill="#000000"
   id="path154" />
</g><g
     opacity="0.45"
     id="g160">
<path
   opacity="0.3"
   d="m 1090.26,588.811 c 6.82,0.51 9.6,-3.37 10.53,-5.31 0.17,-0.42 0,-0.84 -0.34,-1.01 -0.42,-0.17 -0.84,0 -1.01,0.34 -0.93,1.85 -3.96,5.98 -12.3,3.88 -0.42,-0.08 -0.84,0.17 -0.93,0.59 -0.09,0.42 0.17,0.84 0.59,0.93 1.18,0.33 2.36,0.5 3.46,0.58 z"
   fill="#000000"
   id="path158" />
</g><path
     d="m 1098.09,571.96 c 1.35,0 2.44,-1.09 2.44,-2.44 0,-1.35 -1.09,-2.44 -2.44,-2.44 -1.35,0 -2.44,1.09 -2.44,2.44 0,1.35 1.09,2.44 2.44,2.44 z"
     fill="#21252b"
     id="path162" /><path
     d="m 1096.91,570.62 c 0.28,0 0.51,-0.23 0.51,-0.51 0,-0.28 -0.23,-0.51 -0.51,-0.51 -0.28,0 -0.51,0.23 -0.51,0.51 0,0.28 0.23,0.51 0.51,0.51 z"
     fill="#ffffff"
     id="path164" /><path
     d="m 1078.55,573.48 c 1.35,0 2.44,-1.09 2.44,-2.44 0,-1.35 -1.09,-2.44 -2.44,-2.44 -1.35,0 -2.44,1.09 -2.44,2.44 0,1.35 1.09,2.44 2.44,2.44 z"
     fill="#21252b"
     id="path166" /><path
     d="m 1077.37,572.059 c 0.28,0 0.51,-0.23 0.51,-0.51 0,-0.28 -0.23,-0.51 -0.51,-0.51 -0.28,0 -0.51,0.23 -0.51,0.51 0,0.28 0.23,0.51 0.51,0.51 z"
     fill="#ffffff"
     id="path168" /><g
     opacity="0.45"
     id="g172">
<path
   opacity="0.3"
   d="m 1087.98,582.92 h 3.37 c 0.42,0 0.76,-0.34 0.76,-0.76 0,-0.42 -0.34,-0.76 -0.76,-0.76 h -3.37 c -0.84,0 -1.52,-0.67 -1.52,-1.52 0,-0.84 0.67,-1.52 1.52,-1.52 0.42,0 0.76,-0.34 0.76,-0.76 0,-0.42 -0.34,-0.76 -0.76,-0.76 -1.6,0 -2.95,1.35 -2.95,2.95 0.01,1.78 1.27,3.13 2.95,3.13 z"
   fill="#000000"
   id="path170" />
</g><path
     d="m 1067.6,568.849 0.17,2.78 c 0.34,5.39 5.05,9.35 10.36,9.01 5.39,-0.34 9.35,-5.05 9.01,-10.36 l -0.17,-2.78 c -0.08,-0.84 -0.42,-1.52 -0.93,-2.11 l 3.79,-0.25 c -0.42,0.59 -0.67,1.35 -0.59,2.19 l 0.17,2.78 c 0.34,5.39 5.05,9.35 10.36,9.01 5.39,-0.34 9.35,-5.05 9.01,-10.36 l -0.17,-2.78 c -0.08,-1.94 -1.85,-3.45 -3.79,-3.29 l -12.13,0.84 h -0.08 l -9.44,0.67 -1.43,0.08 -10.78,0.76 c -1.93,0.19 -3.45,1.96 -3.36,3.81 z m 25.19,-3.88 h 0.08 l 12.13,-0.84 c 1.18,-0.08 2.19,0.84 2.27,2.02 l 0.17,2.78 c 0.34,4.55 -3.12,8.51 -7.67,8.85 -4.55,0.34 -8.51,-3.12 -8.85,-7.67 l -0.17,-2.78 c -0.07,-1.18 0.86,-2.27 2.04,-2.36 z m -23.68,3.71 c -0.08,-1.18 0.84,-2.19 2.02,-2.27 l 10.78,-0.76 1.43,-0.08 c 1.18,-0.08 2.19,0.84 2.27,2.02 l 0.17,2.78 c 0.34,4.55 -3.12,8.51 -7.67,8.85 -4.55,0.34 -8.51,-3.12 -8.85,-7.67 z"
     fill="#21252b"
     id="path174" /><path
     d="M 990.96,532.87 H 589.78 c -0.74,0 -1.34,-0.6 -1.34,-1.34 V 280.99 c 0,-0.74 0.6,-1.34 1.34,-1.34 h 401.18 c 0.74,0 1.34,0.6 1.34,1.34 v 250.53 c 0,0.75 -0.6,1.35 -1.34,1.35 z"
     class="change-color-in-svg"
     fill="#4d61fc"
     id="path178" /><path
     opacity="0.2"
     d="M 990.96,532.87 H 589.78 c -0.74,0 -1.34,-0.6 -1.34,-1.34 V 280.99 c 0,-0.74 0.6,-1.34 1.34,-1.34 h 401.18 c 0.74,0 1.34,0.6 1.34,1.34 v 250.53 c 0,0.75 -0.6,1.35 -1.34,1.35 z"
     fill="#ffffff"
     id="path180" /><path
     d="M 984.34,532.87 H 583.16 c -0.74,0 -1.34,-0.6 -1.34,-1.34 V 280.99 c 0,-0.74 0.6,-1.34 1.34,-1.34 h 401.18 c 0.74,0 1.34,0.6 1.34,1.34 v 250.53 c 0.01,0.75 -0.59,1.35 -1.34,1.35 z"
     fill="#3f4249"
     id="path182" /><path
     d="M 977.67,287.74 H 589.83 v 237.04 h 387.84 z"
     class="change-color-in-svg"
     fill="#4d61fc"
     id="path184" /><path
     opacity="0.7"
     d="M 977.67,287.74 H 692.42 v 237.04 h 285.25 z"
     fill="#ffffff"
     id="path186" /><path
     opacity="0.5"
     d="M 692.42,287.74 H 589.83 v 237.04 h 102.59 z"
     fill="#ffffff"
     id="path188" /><path
     d="m 928.33,647.19 c 2.36,0 4.27,-1.91 4.27,-4.27 0,-2.36 -1.91,-4.27 -4.27,-4.27 -2.36,0 -4.27,1.91 -4.27,4.27 0,2.36 1.91,4.27 4.27,4.27 z"
     fill="#000000"
     id="path196" /><path
     d="m 928.33,644.41 c 0.82,0 1.49,-0.67 1.49,-1.49 0,-0.82 -0.67,-1.49 -1.49,-1.49 -0.82,0 -1.49,0.67 -1.49,1.49 0,0.82 0.67,1.49 1.49,1.49 z"
     fill="#ffffff"
     id="path198" /><path
     d="M 928.33,640.159 V 532.869"
     stroke="#000000"
     stroke-width="3"
     stroke-miterlimit="10"
     id="path200" /><path
     d="M 837.54,312.92 H 713.86 v 4.5 h 123.68 z"
     fill="#ffffff"
     id="path202" /><path
     d="m 772.5,328.551 h -58.64 v 4.5 h 58.64 z"
     fill="#ffffff"
     id="path204" /><path
     d="m 790.08,344.189 h -58.64 v 4.5 h 58.64 z"
     fill="#ffffff"
     id="path206" /><path
     d="M 836.79,430.84 H 713.86 v 4.5 h 122.93 z"
     fill="#b074ff"
     id="path208" /><path
     d="m 776.94,446.52 h -63.08 v 4.5 h 63.08 z"
     fill="#ffffff"
     id="path210" /><path
     d="m 776.94,462.199 h -63.08 v 4.5 h 63.08 z"
     fill="#ffffff"
     id="path212" /><path
     d="m 818.69,481.85 h -63.08 v 4.5 h 63.08 z"
     fill="#ffffff"
     id="path214" /><path
     d="M 860.07,481.85 H 832.6 v 4.5 h 27.47 z"
     fill="#ffffff"
     id="path216" /><path
     d="m 823.23,501.51 h -27.47 v 4.5 h 27.47 z"
     fill="#ffffff"
     id="path218" /><path
     d="m 901.53,501.51 h -59.72 v 4.5 h 59.72 z"
     fill="#ffffff"
     id="path220" /><path
     d="m 950.65,501.51 h -41.31 v 4.5 h 41.31 z"
     fill="#ffffff"
     id="path222" /><path
     d="m 943.71,481.85 h -68.73 v 4.5 h 68.73 z"
     fill="#ffffff"
     id="path224" /><path
     d="m 853.45,446.52 h -63.08 v 4.5 h 63.08 z"
     fill="#00beff"
     id="path226" /><path
     d="m 940.38,430.84 h -86.52 v 4.5 h 86.52 z"
     fill="#fd8a88"
     id="path228" /><path
     d="m 849.22,328.551 h -58.64 v 4.5 h 58.64 z"
     fill="#fd8a88"
     id="path230" /><path
     d="m 811.03,361.289 h -58.64 v 4.5 h 58.64 z"
     fill="#ffffff"
     id="path232" /><path
     d="M 865.63,361.289 H 831.2 v 4.5 h 34.43 z"
     fill="#00beff"
     id="path234" /><path
     d="m 959.48,361.289 h -77.79 v 4.5 h 77.79 z"
     fill="#ffffff"
     id="path236" /><path
     d="m 787.79,379.25 h -35.4 v 4.5 h 35.4 z"
     fill="#ffffff"
     id="path238" /><path
     d="m 865.63,379.25 h -57.67 v 4.5 h 57.67 z"
     fill="#ffffff"
     id="path240" /><path
     d="m 959.48,379.25 h -85.82 v 4.5 h 85.82 z"
     fill="#ffffff"
     id="path242" /><path
     d="m 821.92,397.211 h -69.53 v 4.5 h 69.53 z"
     fill="#ffffff"
     id="path244" /><path
     d="M 876.52,397.211 H 831.2 v 4.5 h 45.32 z"
     fill="#fd8a88"
     id="path246" /><path
     d="m 964.16,397.211 h -77.79 v 4.5 h 77.79 z"
     fill="#ffffff"
     id="path248" /><path
     d="m 811.03,415.17 h -58.64 v 4.5 h 58.64 z"
     fill="#ffffff"
     id="path250" /><path
     d="M 865.63,415.17 H 831.2 v 4.5 h 34.43 z"
     fill="#ffffff"
     id="path252" /><path
     d="m 959.48,415.17 h -77.79 v 4.5 h 77.79 z"
     fill="#ffffff"
     id="path254" /><path
     d="M 951.83,328.551 H 864.1 v 4.5 h 87.73 z"
     fill="#00f3be"
     id="path256" /><g
     opacity="0.5"
     id="g298">
<path
   opacity="0.5"
   d="m 612.75,308.41 h -13.52 v 13.52 h 13.52 z"
   fill="#ffffff"
   id="path258" />
<path
   opacity="0.5"
   d="m 681.88,312.92 h -57.63 v 4.5 h 57.63 z"
   fill="#ffffff"
   id="path260" />
<path
   opacity="0.5"
   d="m 612.75,328.551 h -13.52 v 13.52 h 13.52 z"
   fill="#ffffff"
   id="path262" />
<path
   opacity="0.5"
   d="m 681.88,333.061 h -57.63 v 4.5 h 57.63 z"
   fill="#ffffff"
   id="path264" />
<path
   opacity="0.5"
   d="m 612.75,348.689 h -13.52 v 13.52 h 13.52 z"
   fill="#ffffff"
   id="path266" />
<path
   opacity="0.5"
   d="m 681.88,353.199 h -57.63 v 4.5 h 57.63 z"
   fill="#ffffff"
   id="path268" />
<path
   opacity="0.5"
   d="m 631.47,370.24 h -13.52 v 13.52 h 13.52 z"
   fill="#ffffff"
   id="path270" />
<path
   opacity="0.5"
   d="m 681.89,374.74 h -38.91 v 4.5 h 38.91 z"
   fill="#ffffff"
   id="path272" />
<path
   opacity="0.5"
   d="m 631.47,391.041 h -13.52 v 13.52 h 13.52 z"
   fill="#ffffff"
   id="path274" />
<path
   opacity="0.5"
   d="m 681.89,395.551 h -38.91 v 4.5 h 38.91 z"
   fill="#ffffff"
   id="path276" />
<path
   opacity="0.5"
   d="m 631.47,411.85 h -13.52 v 13.52 h 13.52 z"
   fill="#ffffff"
   id="path278" />
<path
   opacity="0.5"
   d="m 681.89,416.35 h -38.91 v 4.5 h 38.91 z"
   fill="#ffffff"
   id="path280" />
<path
   opacity="0.5"
   d="m 612.75,434.99 h -13.52 v 13.52 h 13.52 z"
   fill="#ffffff"
   id="path282" />
<path
   opacity="0.5"
   d="m 681.88,439.5 h -57.63 v 4.5 h 57.63 z"
   fill="#ffffff"
   id="path284" />
<path
   opacity="0.5"
   d="m 631.47,456.541 h -13.52 v 13.52 h 13.52 z"
   fill="#ffffff"
   id="path286" />
<path
   opacity="0.5"
   d="m 681.89,461.051 h -38.91 v 4.5 h 38.91 z"
   fill="#ffffff"
   id="path288" />
<path
   opacity="0.5"
   d="m 631.47,477.35 h -13.52 v 13.52 h 13.52 z"
   fill="#ffffff"
   id="path290" />
<path
   opacity="0.5"
   d="m 681.89,481.85 h -38.91 v 4.5 h 38.91 z"
   fill="#ffffff"
   id="path292" />
<path
   opacity="0.5"
   d="m 631.47,498.15 h -13.52 v 13.52 h 13.52 z"
   fill="#ffffff"
   id="path294" />
<path
   opacity="0.5"
   d="m 681.89,502.66 h -38.91 v 4.5 h 38.91 z"
   fill="#ffffff"
   id="path296" />
</g><g
     opacity="0.7"
     id="g326">
<path
   opacity="0.7"
   d="m 702.71,312.92 h -4.5 v 4.5 h 4.5 z"
   fill="#ffffff"
   id="path300" />
<path
   opacity="0.7"
   d="m 702.71,328.551 h -4.5 v 4.5 h 4.5 z"
   fill="#ffffff"
   id="path302" />
<path
   opacity="0.7"
   d="m 702.71,344.189 h -4.5 v 4.5 h 4.5 z"
   fill="#ffffff"
   id="path304" />
<path
   opacity="0.7"
   d="m 702.71,359.82 h -4.5 v 4.5 h 4.5 z"
   fill="#ffffff"
   id="path306" />
<path
   opacity="0.7"
   d="m 702.71,375.459 h -4.5 v 4.5 h 4.5 z"
   fill="#ffffff"
   id="path308" />
<path
   opacity="0.7"
   d="m 702.71,391.09 h -4.5 v 4.5 h 4.5 z"
   fill="#ffffff"
   id="path310" />
<path
   opacity="0.7"
   d="m 702.71,406.721 h -4.5 v 4.5 h 4.5 z"
   fill="#ffffff"
   id="path312" />
<path
   opacity="0.7"
   d="m 702.71,422.359 h -4.5 v 4.5 h 4.5 z"
   fill="#ffffff"
   id="path314" />
<path
   opacity="0.7"
   d="m 702.71,437.99 h -4.5 v 4.5 h 4.5 z"
   fill="#ffffff"
   id="path316" />
<path
   opacity="0.7"
   d="m 702.71,453.619 h -4.5 v 4.5 h 4.5 z"
   fill="#ffffff"
   id="path318" />
<path
   opacity="0.7"
   d="m 702.71,469.26 h -4.5 v 4.5 h 4.5 z"
   fill="#ffffff"
   id="path320" />
<path
   opacity="0.7"
   d="m 702.71,484.891 h -4.5 v 4.5 h 4.5 z"
   fill="#ffffff"
   id="path322" />
<path
   opacity="0.7"
   d="m 702.71,500.529 h -4.5 v 4.5 h 4.5 z"
   fill="#ffffff"
   id="path324" />
</g><path
     d="m 1342.6491,498.82512 -5.19,58.18 -23.35,6.47 -23.28,-6.46 -5.19,-58.19 z"
     fill="#e44d26"
     id="path370" /><path
     d="m 1314.1391,558.53512 18.87,-5.23 4.44,-49.72 h -23.3 v 54.95 z"
     fill="#f16529"
     id="path372" /><path
     d="m 1304.0391,517.86512 h 10.1 v -7.14 h -17.9 l 0.17,1.91 1.75,19.67 h 15.97 v -7.14 h -9.44 z m 1.61,18.01 h -7.16 l 1,11.21 14.62,4.06 0.03,-0.01 v -7.43 l -0.03,0.01 -7.95,-2.15 z"
     fill="#ebebeb"
     id="path374" /><path
     d="m 1290.9391,483.01512 h 3.63 v 3.58 h 3.32 v -3.58 h 3.63 v 10.85 h -3.63 v -3.63 h -3.32 v 3.63 h -3.63 z m 15.34,3.6 h -3.19 v -3.6 h 10.01 v 3.6 h -3.19 v 7.25 h -3.63 z m 8.41,-3.6 h 3.78 l 2.33,3.81 2.32,-3.81 h 3.78 v 10.85 h -3.61 v -5.38 l -2.5,3.86 h -0.06 l -2.5,-3.86 v 5.38 h -3.55 v -10.85 z m 14.02,0 h 3.63 v 7.26 h 5.1 v 3.59 h -8.73 z"
     fill="#000000"
     id="path376" /><path
     d="m 1314.1191,532.30512 h 8.79 l -0.83,9.26 -7.96,2.15 v 7.43 l 14.63,-4.05 0.11,-1.21 1.68,-18.79 0.17,-1.92 h -16.59 z m 0,-14.46 v 0.02 h 17.24 l 0.14,-1.6 0.33,-3.62 0.17,-1.91 h -17.88 z"
     fill="#ffffff"
     id="path378" /><path
     d="m 1220.78,444.939 h -4.22 l 4.39,4.76 v 2.26 h -9.04 v -2.65 h 4.39 l -4.39,-4.76 v -2.27 h 8.87 z m -10.66,0 h -4.22 l 4.39,4.76 v 2.26 h -9.04 v -2.65 h 4.39 l -4.39,-4.76 v -2.27 h 8.87 z m -10.56,0.11 h -4.55 v 4.16 h 4.55 v 2.76 h -7.79 v -9.68 h 7.79 z"
     fill="#131313"
     id="path380" /><path
     d="m 1185.57,508.281 -4.63,-51.89 h 50.83 l -4.63,51.88 -20.82,5.77 z"
     fill="#1572b6"
     id="path382" /><path
     d="m 1206.36,509.631 16.82,-4.66 3.96,-44.33 h -20.78 z"
     fill="#33a9dc"
     id="path384" /><path
     d="m 1206.36,479.431 h 8.42 l 0.58,-6.52 h -9 v -6.36 h 15.96 l -0.15,1.71 -1.56,17.54 h -14.24 v -6.37 z"
     fill="#ffffff"
     id="path386" /><path
     d="m 1206.4,495.96 h -0.03 l -7.09,-1.91 -0.45,-5.07 h -6.38 l 0.89,9.99 13.04,3.63 h 0.04 v -6.63 z"
     fill="#ebebeb"
     id="path388" /><path
     d="m 1214.24,485.53 -0.77,8.52 -7.1,1.91 v 6.63 l 13.05,-3.62 0.09,-1.08 1.11,-12.37 z"
     fill="#ffffff"
     id="path390" /><path
     d="m 1206.38,466.561 v 6.36 h -15.37 l -0.13,-1.43 -0.29,-3.23 -0.15,-1.71 z m -0.02,12.87 v 6.36 h -7.01 l -0.12,-1.43 -0.29,-3.23 -0.15,-1.71 z"
     fill="#ebebeb"
     id="path392" /><path
     d="m 851.11,975.881 -0.68,-0.14 c 0.14,-0.55 7.39,-58.59 23.96,-89.94 l 0.55,0.27 c -16.44,31.49 -23.83,89.26 -23.83,89.81 z"
     fill="#3f4249"
     id="path612" /><path
     d="m 848.51,955.071 h -0.68 c 1.78,-31.9 -9.45,-78.58 -9.58,-79.12 l 0.68,-0.14 c 0,0.41 11.36,47.23 9.58,79.26 z"
     fill="#3f4249"
     id="path614" /><path
     d="m 873.15,888.809 c 0,0 0.14,-31.35 27.52,-33.27 0.13,0.01 2.33,27.66 -27.52,33.27 z"
     class="change-color-in-svg"
     fill="#4d61fc"
     id="path616" /><path
     d="m 807.44,882.1 c 0,0 -7.39,-29.84 -39.84,-21.36 0.01,-0.13 6.17,21.77 39.84,21.36 z"
     class="change-color-in-svg"
     fill="#4d61fc"
     id="path618" /><path
     d="m 842.62,894.291 c 0,0 9.72,-25.46 -12.87,-38.74 0.14,0 -9.71,25.05 12.87,38.74 z"
     class="change-color-in-svg"
     fill="#4d61fc"
     id="path620" /><path
     d="m 837.7,975.88 h -0.68 c 0,-58.86 -29.43,-93.22 -29.84,-93.64 l 0.55,-0.41 c 0.26,0.41 29.97,34.91 29.97,94.05 z"
     fill="#3f4249"
     id="path622" /><path
     d="m 847.14,975.88 h -0.68 c 3.42,-60.37 6.16,-70.91 11.5,-91.72 0.55,-2.19 1.1,-4.38 1.78,-6.84 l 0.68,0.14 c -0.55,2.46 -1.23,4.65 -1.78,6.84 -5.34,20.8 -8.08,31.21 -11.5,91.58 z"
     fill="#3f4249"
     id="path624" /><path
     d="m 830.72,974.779 h -0.68 c 3.7,-45.31 -6.84,-77.35 -16.29,-96.24 -11.09,-22.04 -24.78,-34.36 -31.21,-37.37 l 0.27,-0.55 c 6.57,3.01 20.4,15.47 31.49,37.65 9.57,18.89 20.25,51.06 16.42,96.51 z"
     fill="#3f4249"
     id="path626" /><path
     d="m 825.65,974.779 h -0.68 c 0.14,-0.55 8.21,-58.45 -27.38,-77.62 l 0.27,-0.55 c 10.4,5.61 23.55,18.21 27.52,46.54 2.46,16.85 0.27,31.49 0.27,31.63 z"
     fill="#3f4249"
     id="path628" /><path
     d="m 852.21,967.12 -0.68,-0.27 c 0,-0.14 3.29,-9.45 13.28,-17.25 l 0.41,0.55 c -9.73,7.66 -13.01,16.83 -13.01,16.97 z"
     fill="#3f4249"
     id="path630" /><path
     d="m 855.49,949.181 -0.41,-0.55 c 0.82,-0.68 20.67,-18.07 30.8,-21.08 l 0.14,0.68 c -9.99,2.88 -30.39,20.68 -30.53,20.95 z"
     fill="#3f4249"
     id="path632" /><path
     d="m 814.01,911.671 c 0,0 -8.08,-30.66 -39.97,-23.55 0,0.01 5.48,26.15 39.97,23.55 z"
     class="change-color-in-svg"
     fill="#4d61fc"
     id="path634" /><path
     opacity="0.4"
     d="m 814.01,911.671 c 0,0 -8.08,-30.66 -39.97,-23.55 0,0.01 5.48,26.15 39.97,23.55 z"
     fill="#ffffff"
     id="path636" /><path
     d="m 830.44,943.161 c 0,0 -5.48,-21.77 -34.77,-14.65 0,0 9.58,21.77 34.77,14.65 z"
     class="change-color-in-svg"
     fill="#4d61fc"
     id="path638" /><path
     d="m 850.29,928.919 c 0,0 2.74,-34.22 38.47,-38.47 -0.14,0.14 1.64,33.54 -38.47,38.47 z"
     class="change-color-in-svg"
     fill="#4d61fc"
     id="path640" /><path
     d="m 840.85,975.879 h -0.68 c 0.27,-24.37 1.64,-150.04 1.64,-151.27 h 0.68 c -0.14,1.23 -1.51,126.9 -1.64,151.27 z"
     fill="#3f4249"
     id="path642" /><path
     d="m 847.42,919.891 c 0,0 -30.53,1.64 -30.53,-32.17 0,0 29.57,0.41 30.53,32.17 z"
     class="change-color-in-svg"
     fill="#4d61fc"
     id="path644" /><path
     opacity="0.4"
     d="m 847.42,919.891 c 0,0 -30.53,1.64 -30.53,-32.17 0,0 29.57,0.41 30.53,32.17 z"
     fill="#ffffff"
     id="path646" /><path
     d="m 876.16,932.889 c 0,0 8.35,-23.27 34.5,-17.39 0,0.14 -4.38,19.58 -34.5,17.39 z"
     class="change-color-in-svg"
     fill="#4d61fc"
     id="path648" /><path
     opacity="0.4"
     d="m 876.16,932.889 c 0,0 8.35,-23.27 34.5,-17.39 0,0.14 -4.38,19.58 -34.5,17.39 z"
     fill="#ffffff"
     id="path650" /><path
     d="m 863.98,975.189 h -53.94 v 6.84 h 53.94 z"
     fill="#3f4249"
     id="path652" /><path
     d="m 857.14,1026.25 h -40.25 l -3.01,-44.211 h 46.27 z"
     fill="#84888f"
     id="path654" /><path
     d="m 857.14,1026.25 h -40.25 l -3.01,-44.211 h 46.27 z"
     fill="#3f4249"
     id="path656" /><path
     opacity="0.2"
     d="m 863.98,975.189 h -8.62 v 6.85 h -8.08 -33.4 l 0.13,1.91 h 33.27 l 0.14,42.301 h 9.72 l 3.01,-44.211 h 3.83 z"
     fill="#000000"
     id="path658" /><path
     d="m 841.67,850.76 c 0,0 -14.92,-22.59 4.52,-44.08 -0.01,-0.14 12.86,21.9 -4.52,44.08 z"
     class="change-color-in-svg"
     fill="#4d61fc"
     id="path660" /><path
     opacity="0.4"
     d="m 841.67,850.76 c 0,0 -14.92,-22.59 4.52,-44.08 -0.01,-0.14 12.86,21.9 -4.52,44.08 z"
     fill="#ffffff"
     id="path662" /><path
     d="m 855.22,896.069 c 0,0 -16.43,-34.91 12.87,-56.54 0,0.14 20.26,31.76 -12.87,56.54 z"
     class="change-color-in-svg"
     fill="#4d61fc"
     id="path664" /><path
     opacity="0.4"
     d="m 855.22,896.069 c 0,0 -16.43,-34.91 12.87,-56.54 0,0.14 20.12,31.76 -12.87,56.54 z"
     fill="#ffffff"
     id="path666" /><path
     d="m 859.19,955.89 c 0,0 3.97,-15.2 24.78,-12.05 0,0 -3.43,15.47 -24.78,12.05 z"
     class="change-color-in-svg"
     fill="#4d61fc"
     id="path668" /><path
     d="m 830.72,962.871 c 0,0 -4.52,-29.57 22.45,-32.99 0,0 6.43,25.6 -22.45,32.99 z"
     class="change-color-in-svg"
     fill="#4d61fc"
     id="path670" /><path
     opacity="0.4"
     d="m 830.72,962.871 c 0,0 -4.52,-29.57 22.45,-32.99 0,0 6.43,25.6 -22.45,32.99 z"
     fill="#ffffff"
     id="path672" /><path
     d="m 775.41,836.38 c 0,0 16.29,-1.64 19.44,13.96 -0.14,0 -14.79,1.78 -19.44,-13.96 z"
     class="change-color-in-svg"
     fill="#4d61fc"
     id="path674" /><path
     opacity="0.3"
     d="m 775.41,836.38 c 0,0 16.29,-1.64 19.44,13.96 -0.14,0 -14.79,1.78 -19.44,-13.96 z"
     fill="#ffffff"
     id="path676" /><path
     d="m 814.97,834.74 c 0,0 -20.26,21.08 -0.41,43.94 0,0 19.85,-22.45 0.41,-43.94 z"
     class="change-color-in-svg"
     fill="#4d61fc"
     id="path678" /><path
     opacity="0.4"
     d="m 814.97,834.74 c 0,0 -20.26,21.08 -0.41,43.94 0,0 19.85,-22.45 0.41,-43.94 z"
     fill="#ffffff"
     id="path680" /><g
     id="g1059"
     transform="matrix(0.25143078,0,0,0.25143078,1054.9594,296.51561)"><g
       id="g3440"
       transform="matrix(1.25,0,0,-1.25,-96.56104,443.14327)"
       style="fill:#4d61fc;fill-opacity:1"><g
         clip-path="url(#clipPath3444)"
         id="g3442"
         style="fill:#4d61fc;fill-opacity:1"><g
           id="g3448"
           style="fill:#4d61fc;fill-opacity:1"><g
             id="g3450"
             style="fill:#4d61fc;fill-opacity:1"><path
               d="M 11.52,162 C 11.52,81.677 135.307,16.561 288,16.561 v 0 c 152.693,0 276.481,65.116 276.481,145.439 v 0 c 0,80.322 -123.788,145.439 -276.481,145.439 v 0 C 135.307,307.439 11.52,242.322 11.52,162"
               id="path3462"
               style="fill:#4d61fc;fill-opacity:1;stroke:none" /></g></g></g></g><g
       id="g3464"
       transform="matrix(1.25,0,0,-1.25,-96.56104,443.14327)"
       style="fill:#94a0fd;fill-opacity:1"><g
         clip-path="url(#clipPath3468)"
         id="g3466"
         style="fill:#94a0fd;fill-opacity:1"><g
           id="g3472"
           transform="translate(288,27.3594)"
           style="fill:#94a0fd;fill-opacity:1"><path
             d="M 0,0 C 146.729,0 265.68,60.281 265.68,134.641 265.68,209 146.729,269.282 0,269.282 -146.729,269.282 -265.68,209 -265.68,134.641 -265.68,60.281 -146.729,0 0,0"
             id="path3474"
             style="fill:#94a0fd;fill-opacity:1;fill-rule:nonzero;stroke:none" /></g></g></g><g
       clip-path="url(#clipPath3480)"
       id="g3478"
       transform="matrix(1.25,0,0,-1.25,-96.56104,443.14327)"><g
         id="g3484"
         transform="translate(161.7344,145.3066)"><path
           d="m 0,0 c 12.065,0 21.072,2.225 26.771,6.611 5.638,4.341 9.532,11.862 11.573,22.353 1.903,9.806 1.178,16.653 -2.154,20.348 C 32.783,53.086 25.417,55 14.297,55 H -4.984 L -15.673,0 Z m -63.063,-67.75 c -0.895,0 -1.745,0.4 -2.314,1.092 -0.57,0.691 -0.801,1.601 -0.63,2.48 L -37.679,81.573 C -37.405,82.982 -36.17,84 -34.734,84 H 26.32 C 45.508,84 59.79,78.79 68.767,68.513 77.792,58.182 80.579,43.741 77.05,25.592 75.614,18.198 73.144,11.331 69.709,5.183 66.27,-0.972 61.725,-6.667 56.198,-11.747 49.582,-17.939 42.094,-22.429 33.962,-25.071 25.959,-27.678 15.681,-29 3.414,-29 h -24.722 l -7.06,-36.322 c -0.274,-1.41 -1.508,-2.428 -2.944,-2.428 z"
           id="path3486"
           style="fill:#32353a;fill-opacity:1;fill-rule:nonzero;stroke:none" /></g><g
         id="g3488"
         transform="translate(159.2236,197.3071)"><path
           d="m 0,0 h 16.808 c 13.421,0 18.083,-2.945 19.667,-4.7 2.628,-2.914 3.124,-9.058 1.435,-17.767 C 36.012,-32.217 32.494,-39.13 27.452,-43.012 22.29,-46.986 13.898,-49 2.511,-49 H -9.523 Z m 28.831,35 h -61.055 c -2.872,0 -5.341,-2.036 -5.889,-4.855 l -28.328,-145.751 c -0.342,-1.759 0.12,-3.578 1.259,-4.961 1.14,-1.383 2.838,-2.183 4.63,-2.183 h 31.75 c 2.873,0 5.342,2.036 5.89,4.855 L -16.324,-84 H 5.925 c 12.582,0 23.174,1.372 31.479,4.077 8.541,2.775 16.399,7.48 23.354,13.984 5.752,5.292 10.49,11.232 14.08,17.657 3.591,6.427 6.171,13.594 7.668,21.302 3.715,19.104 0.697,34.402 -8.969,45.466 C 63.965,29.444 48.923,35 28.831,35 M -16.802,-55 H 2.511 c 12.801,0 22.336,2.411 28.601,7.234 6.266,4.824 10.492,12.875 12.688,24.157 2.101,10.832 1.144,18.476 -2.871,22.929 C 36.909,3.773 28.87,6 16.808,6 H -4.946 L -16.802,-55 M 28.831,29 C 47.198,29 60.597,24.18 69.019,14.539 77.44,4.898 79.976,-8.559 76.616,-25.836 75.233,-32.953 72.894,-39.46 69.601,-45.355 66.304,-51.254 61.999,-56.648 56.679,-61.539 50.339,-67.472 43.296,-71.7 35.546,-74.218 27.796,-76.743 17.925,-78 5.925,-78 h -27.196 l -7.531,-38.75 h -31.75 L -32.224,29 h 61.055"
           id="path3490"
           style="fill:#ffffff;fill-opacity:1;fill-rule:nonzero;stroke:none" /></g><g
         id="g3492"
         transform="translate(311.583,116.3066)"
         style="fill:#32353a;fill-opacity:1"><path
           d="m 0,0 c -0.896,0 -1.745,0.4 -2.314,1.092 -0.571,0.691 -0.802,1.6 -0.631,2.48 L 9.586,68.061 C 10.778,74.194 10.484,78.596 8.759,80.456 7.703,81.593 4.531,83.5 -4.848,83.5 H -27.55 L -43.305,2.428 C -43.579,1.018 -44.814,0 -46.25,0 h -31.5 c -0.896,0 -1.745,0.4 -2.315,1.092 -0.57,0.691 -0.801,1.601 -0.63,2.48 l 28.328,145.751 c 0.274,1.409 1.509,2.427 2.945,2.427 h 31.5 c 0.896,0 1.745,-0.4 2.315,-1.091 0.57,-0.692 0.801,-1.601 0.63,-2.481 L -21.813,113 H 2.609 c 18.605,0 31.221,-3.28 38.569,-10.028 7.49,-6.884 9.827,-17.891 6.947,-32.719 L 34.945,2.428 C 34.671,1.018 33.437,0 32,0 Z"
           id="path3494"
           style="fill:#32353a;fill-opacity:1;fill-rule:nonzero;stroke:none" /></g><g
         id="g3496"
         transform="translate(293.6611,271.0571)"><path
           d="m 0,0 h -31.5 c -2.873,0 -5.342,-2.036 -5.89,-4.855 l -28.328,-145.751 c -0.342,-1.759 0.12,-3.578 1.26,-4.961 1.14,-1.383 2.838,-2.183 4.63,-2.183 h 31.5 c 2.872,0 5.342,2.036 5.89,4.855 l 15.283,78.645 h 20.229 c 9.363,0 11.328,-2 11.407,-2.086 0.568,-0.611 1.315,-3.441 0.082,-9.781 l -12.531,-64.489 c -0.342,-1.759 0.12,-3.578 1.26,-4.961 1.14,-1.383 2.838,-2.183 4.63,-2.183 h 32 c 2.872,0 5.342,2.036 5.89,4.855 l 13.179,67.825 c 3.093,15.921 0.447,27.864 -7.861,35.5 -7.928,7.281 -21.208,10.82 -40.599,10.82 H -0.253 L 5.89,-7.145 C 6.231,-5.386 5.77,-3.566 4.63,-2.184 3.49,-0.801 1.792,0 0,0 m 0,-6 -7.531,-38.75 h 28.062 c 17.657,0 29.836,-3.082 36.539,-9.238 6.703,-6.16 8.711,-16.141 6.032,-29.938 l -13.18,-67.824 h -32 l 12.531,64.488 c 1.426,7.336 0.902,12.34 -1.574,15.008 -2.477,2.668 -7.746,4.004 -15.805,4.004 h -25.176 l -16.226,-83.5 h -31.5 L -31.5,-6 H 0"
           id="path3498"
           style="fill:#ffffff;fill-opacity:1;fill-rule:nonzero;stroke:none" /></g><g
         id="g3500"
         transform="translate(409.5498,145.3066)"
         style="fill:#32353a;fill-opacity:1"><path
           d="m 0,0 c 12.065,0 21.072,2.225 26.771,6.611 5.638,4.34 9.532,11.861 11.574,22.353 1.903,9.806 1.178,16.653 -2.155,20.348 C 32.783,53.086 25.417,55 14.297,55 H -4.984 L -15.673,0 Z m -63.062,-67.75 c -0.895,0 -1.745,0.4 -2.314,1.092 -0.57,0.691 -0.802,1.601 -0.631,2.48 L -37.679,81.573 C -37.404,82.982 -36.17,84 -34.733,84 H 26.32 C 45.509,84 59.79,78.79 68.768,68.513 77.793,58.183 80.579,43.742 77.051,25.592 75.613,18.198 73.144,11.331 69.709,5.183 66.27,-0.972 61.725,-6.667 56.198,-11.747 49.582,-17.939 42.094,-22.429 33.962,-25.071 25.959,-27.678 15.681,-29 3.414,-29 h -24.723 l -7.057,-36.322 c -0.275,-1.41 -1.509,-2.428 -2.946,-2.428 z"
           id="path3502"
           style="fill:#32353a;fill-opacity:1;fill-rule:nonzero;stroke:none" /></g><g
         id="g3504"
         transform="translate(407.0391,197.3071)"><path
           d="M 0,0 H 16.808 C 30.229,0 34.891,-2.945 36.475,-4.7 39.104,-7.614 39.6,-13.758 37.91,-22.466 36.012,-32.217 32.493,-39.13 27.452,-43.012 22.29,-46.986 13.898,-49 2.511,-49 H -9.522 Z m 28.831,35 h -61.054 c -2.872,0 -5.341,-2.036 -5.889,-4.855 L -66.44,-115.606 c -0.342,-1.759 0.12,-3.578 1.259,-4.961 1.14,-1.383 2.838,-2.183 4.63,-2.183 h 31.75 c 2.872,0 5.342,2.036 5.89,4.855 L -16.324,-84 H 5.925 c 12.582,0 23.174,1.372 31.479,4.077 8.541,2.775 16.401,7.481 23.356,13.986 5.752,5.291 10.488,11.23 14.078,17.655 3.591,6.427 6.171,13.594 7.668,21.302 3.715,19.105 0.697,34.403 -8.969,45.467 C 63.965,29.444 48.924,35 28.831,35 M -16.801,-55 H 2.511 c 12.801,0 22.336,2.411 28.601,7.234 6.267,4.824 10.492,12.875 12.688,24.157 2.102,10.832 1.145,18.476 -2.871,22.929 C 36.909,3.773 28.87,6 16.808,6 H -4.946 L -16.801,-55 M 28.831,29 C 47.198,29 60.597,24.18 69.019,14.539 77.441,4.898 79.976,-8.559 76.616,-25.836 75.233,-32.953 72.894,-39.46 69.601,-45.355 66.304,-51.254 61.999,-56.648 56.679,-61.539 50.339,-67.472 43.296,-71.7 35.546,-74.218 27.796,-76.743 17.925,-78 5.925,-78 h -27.196 l -7.53,-38.75 h -31.75 L -32.223,29 h 61.054"
           id="path3506"
           style="fill:#ffffff;fill-opacity:1;fill-rule:nonzero;stroke:none" /></g></g></g></g></svg>
